<svg width="470" height="313" viewBox="0 0 470 313" fill="none" xmlns="http://www.w3.org/2000/svg">
<path d="M417.076 94.0688L411.091 123.084L407.239 119.322L400.686 124.004L395.677 117.775L384.446 125.951L374.847 109.882L364.141 116.16L359.895 110.301L346.301 117.969L342.211 109.199L351.741 62.9941L402.831 73.5548L417.076 94.0688Z" fill="#EBEBEB"/>
<path d="M402.83 73.5547L417.075 94.0687L399.354 90.4066L402.83 73.5547Z" fill="#DBDBDB"/>
<path d="M409.816 128.88L401.043 171.448L332.225 157.226L340.935 115.002L345.025 123.766L358.626 116.097L362.866 121.957L373.578 115.684L383.17 131.754L394.408 123.578L399.41 129.801L405.97 125.124L409.816 128.88Z" fill="#EBEBEB"/>
<path d="M311.319 123.891L241.188 128.236L235.616 38.1169L287.694 34.8867L306.81 50.9436L311.319 123.891Z" fill="#EBEBEB"/>
<path d="M287.694 34.8867L306.811 50.9436L288.751 52.0642L287.694 34.8867Z" fill="#DBDBDB"/>
<path d="M268.277 95.5269L268.002 93.4924C267.296 89.2795 268.446 84.5657 272.105 79.6391C275.406 75.2571 277.195 72.1271 276.995 68.5714C276.77 64.565 274.112 62.0359 269.165 62.2363C266.339 62.3832 263.623 63.3875 261.38 65.1159L259.223 60.2769C261.724 58.2424 266.101 56.74 270.26 56.5209C279.283 56.0201 283.673 61.3661 284.017 67.3319C284.317 72.6717 281.553 76.6843 278.039 81.3731C274.812 85.6487 273.755 89.173 274.212 93.1607L274.406 95.2014L268.277 95.5269ZM267.164 106.613C267.002 103.709 268.847 101.555 271.592 101.405C274.337 101.255 276.338 103.183 276.501 106.094C276.651 108.842 274.969 111.058 272.067 111.221C269.297 111.377 267.296 109.362 267.139 106.613H267.164Z" fill="#DBDBDB"/>
<path d="M92.8592 80.1969L85.8054 76.998L84.8237 79.1577C84.6787 79.4664 84.4525 79.7297 84.1694 79.9194C83.8862 80.1091 83.5569 80.218 83.2166 80.2345C82.8289 80.2472 82.4425 80.2848 82.0597 80.3472C81.7237 80.3971 81.3804 80.3548 81.0665 80.2247C80.7526 80.0946 80.4799 79.8816 80.2775 79.6085L78.8955 77.6741L72.5984 82.1938L73.9804 84.1282C74.1726 84.4074 74.2857 84.7335 74.3077 85.0718C74.3298 85.4102 74.2599 85.7482 74.1055 86.05C73.9272 86.3943 73.7665 86.7474 73.6239 87.1079C73.5001 87.4259 73.292 87.7041 73.0221 87.9125C72.7521 88.121 72.4305 88.2518 72.0919 88.2911L69.7344 88.5227L70.491 96.2413L72.861 96.0034C73.2009 95.9762 73.5418 96.0423 73.847 96.1945C74.1522 96.3467 74.4102 96.5793 74.5932 96.8673C74.6933 97.0301 74.7996 97.1865 74.9121 97.343C75.0247 97.4995 75.1373 97.6498 75.2561 97.8C75.4719 98.0629 75.6106 98.3805 75.657 98.7175C75.7034 99.0546 75.6555 99.3979 75.5187 99.7093L74.5307 101.888L81.5907 105.093L82.5725 102.921C82.7188 102.612 82.9463 102.35 83.2306 102.161C83.5149 101.972 83.8451 101.865 84.1858 101.85C84.5691 101.834 84.9512 101.797 85.3302 101.738C85.6662 101.688 86.0095 101.73 86.3234 101.86C86.6373 101.99 86.91 102.203 87.1124 102.476L88.4944 104.411L94.7977 99.8909L93.4157 97.9565C93.2176 97.6799 93.1009 97.3532 93.0788 97.0135C93.0567 96.6738 93.1301 96.3347 93.2907 96.0347C93.4649 95.6924 93.6214 95.3414 93.7597 94.983C93.8799 94.6627 94.087 94.3824 94.3576 94.1734C94.6283 93.9644 94.9518 93.835 95.2917 93.7999L97.6618 93.562L96.8989 85.8434L94.5288 86.075C94.1911 86.1047 93.8517 86.0404 93.5482 85.889C93.2447 85.7376 92.9889 85.5052 92.8092 85.2174C92.7029 85.0547 92.5966 84.8982 92.484 84.7417C92.3714 84.5852 92.2589 84.4287 92.1401 84.2847C91.9257 84.0186 91.788 83.699 91.7417 83.3603C91.6954 83.0217 91.7424 82.6768 91.8774 82.3629L92.8592 80.1969ZM88.8571 87.3396C89.5883 88.3611 90.0005 89.5768 90.0416 90.8329C90.0826 92.089 89.7506 93.3291 89.0876 94.3963C88.4246 95.4635 87.4603 96.3099 86.3167 96.8284C85.1731 97.347 83.9016 97.5144 82.663 97.3095C81.4244 97.1046 80.2742 96.5366 79.3581 95.6773C78.442 94.818 77.801 93.706 77.5162 92.482C77.2314 91.258 77.3156 89.977 77.7581 88.8009C78.2007 87.6248 78.9817 86.6065 80.0023 85.8747C81.3707 84.8938 83.0722 84.497 84.7327 84.7717C86.3932 85.0464 87.8767 85.9701 88.8571 87.3396Z" fill="#EBEBEB"/>
<path d="M411.717 182.61L407.014 185.327L407.846 186.767C407.97 186.974 408.032 187.212 408.024 187.453C408.017 187.694 407.939 187.927 407.802 188.125C407.658 188.351 407.521 188.582 407.396 188.827C407.293 189.043 407.131 189.224 406.928 189.351C406.725 189.477 406.49 189.543 406.251 189.54H404.601V194.98H406.264C406.503 194.977 406.738 195.043 406.94 195.169C407.143 195.296 407.306 195.478 407.408 195.694C407.533 195.938 407.671 196.17 407.815 196.395C407.952 196.593 408.029 196.827 408.037 197.068C408.045 197.309 407.983 197.547 407.859 197.753L407.027 199.193L411.729 201.91L412.567 200.464C412.689 200.259 412.865 200.092 413.076 199.981C413.287 199.87 413.524 199.821 413.762 199.838H414.562C414.8 199.822 415.037 199.871 415.248 199.982C415.458 200.092 415.635 200.259 415.757 200.464L416.594 201.916L421.291 199.199L420.459 197.753C420.341 197.546 420.283 197.309 420.292 197.07C420.3 196.831 420.376 196.599 420.509 196.401C420.653 196.176 420.79 195.938 420.916 195.7C421.018 195.484 421.181 195.302 421.383 195.176C421.586 195.049 421.821 194.983 422.06 194.986H423.723V189.546H422.047C421.808 189.549 421.574 189.484 421.371 189.357C421.168 189.231 421.006 189.049 420.903 188.833C420.778 188.595 420.64 188.357 420.497 188.132C420.363 187.933 420.288 187.702 420.279 187.463C420.27 187.224 420.328 186.987 420.447 186.78L421.278 185.333L416.582 182.617L415.744 184.044C415.623 184.249 415.447 184.416 415.236 184.527C415.025 184.637 414.787 184.687 414.55 184.67H414.149H413.749C413.511 184.686 413.273 184.636 413.061 184.526C412.849 184.415 412.672 184.249 412.549 184.044L411.717 182.61ZM414.149 187.806C415.031 187.805 415.892 188.065 416.625 188.555C417.359 189.044 417.93 189.74 418.268 190.555C418.606 191.369 418.694 192.266 418.523 193.131C418.351 193.996 417.927 194.791 417.304 195.415C416.681 196.039 415.887 196.463 415.023 196.635C414.158 196.807 413.263 196.718 412.449 196.38C411.635 196.042 410.94 195.47 410.451 194.736C409.962 194.002 409.702 193.139 409.703 192.257C409.702 191.672 409.817 191.093 410.04 190.552C410.263 190.011 410.59 189.52 411.003 189.106C411.416 188.692 411.907 188.363 412.447 188.139C412.986 187.915 413.565 187.8 414.149 187.8V187.806Z" fill="#EBEBEB"/>
<path d="M107.129 57.0664L102.821 60.3717L103.815 61.6925C103.963 61.8807 104.055 62.1076 104.078 62.3462C104.101 62.5848 104.055 62.825 103.946 63.0384C103.827 63.2821 103.722 63.533 103.634 63.7896C103.557 64.0157 103.418 64.2158 103.234 64.3673C103.049 64.5188 102.826 64.6158 102.589 64.6472L100.938 64.8601L101.639 70.2499L103.29 70.0371C103.53 70.0036 103.775 70.0387 103.996 70.1383C104.217 70.238 104.406 70.3982 104.54 70.6005C104.691 70.8183 104.854 71.0273 105.028 71.2265C105.189 71.4039 105.296 71.6238 105.336 71.8601C105.376 72.0965 105.347 72.3394 105.253 72.5599L104.628 74.0998L109.631 76.1844L110.256 74.6445C110.349 74.4235 110.502 74.2331 110.698 74.0948C110.893 73.9565 111.124 73.8759 111.363 73.862L111.763 73.8181L112.157 73.7555C112.388 73.7119 112.627 73.7326 112.848 73.8153C113.068 73.8981 113.262 74.0398 113.408 74.225L114.427 75.5584L118.735 72.2531L117.729 70.9323C117.583 70.7415 117.494 70.5138 117.471 70.2749C117.448 70.036 117.491 69.7954 117.597 69.5801C117.716 69.3381 117.82 69.0893 117.91 68.8352C117.987 68.6091 118.126 68.409 118.31 68.2575C118.495 68.106 118.718 68.009 118.954 67.9776L120.605 67.7647L119.905 62.3749L118.254 62.5877C118.014 62.6219 117.77 62.5877 117.549 62.4892C117.327 62.3907 117.138 62.2317 117.003 62.0306C116.847 61.8052 116.684 61.5924 116.509 61.4046C116.364 61.2234 116.269 61.0063 116.236 60.7761C116.203 60.5459 116.233 60.3111 116.322 60.0962L116.947 58.5563L111.944 56.4717L111.319 58.0116C111.225 58.2317 111.071 58.4213 110.876 58.5595C110.681 58.6976 110.451 58.7788 110.212 58.7941L109.812 58.8317L109.443 58.8442C109.212 58.8879 108.973 58.8672 108.752 58.7844C108.532 58.7016 108.338 58.5599 108.192 58.3747L107.129 57.0664ZM110.212 61.9054C111.083 61.7933 111.968 61.9419 112.755 62.3326C113.542 62.7233 114.195 63.3385 114.633 64.1006C115.071 64.8626 115.274 65.7375 115.215 66.6147C115.157 67.492 114.841 68.3323 114.306 69.0298C113.771 69.7272 113.042 70.2505 112.211 70.5336C111.379 70.8168 110.483 70.8471 109.634 70.6207C108.786 70.3943 108.023 69.9214 107.442 69.2616C106.862 68.6018 106.49 67.7847 106.373 66.9134C106.294 66.3319 106.332 65.7407 106.483 65.1738C106.634 64.6069 106.895 64.0754 107.252 63.61C107.609 63.1446 108.054 62.7544 108.562 62.4618C109.07 62.1693 109.631 61.9802 110.212 61.9054Z" fill="#EBEBEB"/>
<path d="M74.9372 198.304C75.1722 192.252 75.0887 186.193 74.6871 180.15C73.7924 167.672 71.8914 155.287 69.0028 143.116C67.4145 136.267 65.4634 129.531 63.4249 122.802C63.3623 122.595 63.0371 122.652 63.0934 122.865C69.3905 146.59 74.5558 171.067 74.1993 195.731C74.0993 202.617 73.2989 209.409 72.6485 216.27C72.6485 216.452 72.9299 216.527 72.9737 216.339C74.2681 210.448 74.6934 204.301 74.9372 198.304Z" fill="#EBEBEB"/>
<path d="M63.0935 122.846C63.0935 122.846 53.5634 147.072 55.6958 152.743C57.8282 158.415 62.2305 159.629 62.2305 159.629C62.2305 159.629 56.3962 167.968 60.4734 175.787C64.5505 183.605 73.6054 183.236 74.2307 192.1C74.2119 192.144 74.7122 155.078 63.0935 122.846Z" fill="#EBEBEB"/>
<path d="M73.1737 176.839C73.1891 176.799 73.1891 176.754 73.1737 176.714C71.9229 160.174 68.8227 143.827 63.9313 127.98C63.9313 127.936 63.8375 127.948 63.85 127.98C65.7385 135.074 67.4061 142.198 68.8527 149.351C67.5715 148.136 66.0062 147.262 64.3002 146.81C64.3002 146.81 64.2502 146.847 64.3002 146.86C66.0924 147.517 67.7038 148.59 69.0028 149.99C69.2779 151.398 69.553 152.8 69.8094 154.209C67.677 151.824 64.7255 150.641 61.7676 149.514C61.761 149.517 61.7553 149.522 61.7513 149.528C61.7473 149.534 61.7451 149.541 61.7451 149.548C61.7451 149.556 61.7473 149.563 61.7513 149.569C61.7553 149.575 61.761 149.58 61.7676 149.583C64.8505 150.835 67.9147 152.45 70.0033 155.11C70.7287 159.129 71.3665 163.163 71.9168 167.211C70.3771 165.596 68.4026 164.463 66.2325 163.949C66.1637 163.949 66.1262 164.031 66.195 164.05C68.4242 164.707 70.4143 165.999 71.9231 167.768H71.9606C72.1482 169.187 72.3274 170.612 72.4984 172.044C71.3073 171.035 69.9625 170.223 68.515 169.64C68.4775 169.64 68.4525 169.684 68.515 169.696C69.9921 170.337 71.3448 171.233 72.5109 172.344C72.5109 172.344 72.5421 172.344 72.5609 172.344C72.7172 173.703 72.8736 175.061 73.0111 176.419C70.8638 173.821 68.0771 171.827 64.9256 170.635C64.9123 170.635 64.8996 170.64 64.8902 170.65C64.8808 170.659 64.8756 170.672 64.8756 170.685C64.8756 170.699 64.8808 170.711 64.8902 170.721C64.8996 170.73 64.9123 170.735 64.9256 170.735C68.0375 172.108 70.771 174.215 72.8923 176.876C72.9157 176.906 72.9472 176.927 72.9828 176.938C73.0185 176.949 73.0566 176.95 73.0924 176.939C73.2988 179.024 73.4864 181.108 73.6365 183.199C73.6365 183.23 73.6865 183.23 73.6865 183.199C73.5239 181.1 73.353 178.98 73.1737 176.839Z" fill="white"/>
<path d="M65.5136 144.424C63.7877 143.349 61.8161 142.733 59.7856 142.634C59.7756 142.634 59.7661 142.638 59.759 142.645C59.752 142.652 59.748 142.661 59.748 142.671C59.748 142.681 59.752 142.691 59.759 142.698C59.7661 142.705 59.7756 142.709 59.7856 142.709C61.7487 143.082 63.6538 143.713 65.4511 144.587C65.5261 144.606 65.5824 144.474 65.5136 144.424Z" fill="white"/>
<path d="M66.6703 170.072C65.3438 169.31 63.8831 168.81 62.368 168.601C62.318 168.601 62.3117 168.669 62.368 168.682C63.8475 168.979 65.2786 169.48 66.6203 170.172C66.6766 170.203 66.7266 170.103 66.6703 170.072Z" fill="white"/>
<path d="M100 153.163C95.9688 155.953 92.2661 159.191 88.9633 162.816C85.5571 166.654 82.9298 171.119 81.2279 175.962C77.6059 186.052 75.6583 196.667 75.4623 207.387C75.3409 213.324 75.9096 219.254 77.157 225.059C77.1671 225.101 77.193 225.138 77.2294 225.162C77.2658 225.185 77.3099 225.194 77.3525 225.186C77.3951 225.178 77.4329 225.154 77.4582 225.118C77.4835 225.083 77.4944 225.04 77.4884 224.997C75.9362 214.753 75.9953 204.329 77.6635 194.104C79.3019 184.088 81.872 173.183 88.2379 165.038C91.7022 160.6 96.0233 157.113 100.294 153.507C100.519 153.307 100.232 153 100 153.163Z" fill="#EBEBEB"/>
<path d="M76.8633 200.163C79.1581 196.447 81.855 192.996 84.9051 189.872C89.6764 185.095 93.691 181.702 94.3163 178.547C94.9417 175.392 89.5388 173.064 89.5388 173.064C89.5388 173.064 96.1361 174.253 97.9433 171.48C99.7505 168.707 100.62 152.644 100.62 152.644C100.62 152.644 88.6133 161.226 83.0166 173.258C77.4198 185.289 76.8633 200.163 76.8633 200.163Z" fill="#EBEBEB"/>
<path d="M96.3113 167.712C95.5207 167.594 94.7193 167.566 93.9225 167.63C93.8287 167.63 93.835 167.793 93.9225 167.799C94.7104 167.799 95.5046 167.762 96.2925 167.799C96.3015 167.797 96.3097 167.792 96.3162 167.785C96.3226 167.779 96.327 167.77 96.329 167.761C96.3309 167.752 96.3303 167.743 96.3272 167.734C96.3241 167.725 96.3186 167.717 96.3113 167.712Z" fill="white"/>
<path d="M87.6873 183.293C86.4195 183.319 85.1662 183.569 83.9854 184.032C83.9854 184.032 83.9854 184.094 83.9854 184.088C85.236 183.794 86.4429 183.675 87.6811 183.462C87.6972 183.455 87.7111 183.443 87.721 183.429C87.7309 183.414 87.7365 183.397 87.7372 183.379C87.7379 183.362 87.7335 183.344 87.7247 183.329C87.7159 183.314 87.7029 183.301 87.6873 183.293Z" fill="white"/>
<path d="M85.0983 177.908C84.5719 177.904 84.0463 177.95 83.5287 178.046C83.5191 178.05 83.5109 178.056 83.505 178.065C83.4992 178.073 83.4961 178.083 83.4961 178.093C83.4961 178.103 83.4992 178.113 83.505 178.122C83.5109 178.13 83.5191 178.137 83.5287 178.14C84.0529 178.17 84.5788 178.147 85.0983 178.071C85.1199 178.071 85.1405 178.063 85.1558 178.047C85.171 178.032 85.1796 178.011 85.1796 177.99C85.1796 177.968 85.171 177.948 85.1558 177.932C85.1405 177.917 85.1199 177.908 85.0983 177.908Z" fill="white"/>
<path d="M41.6634 170.203C45.5713 171.529 49.316 173.295 52.8256 175.467C56.4672 177.784 59.6251 180.786 62.1243 184.307C67.3827 191.634 71.4088 199.773 74.0432 208.401C75.5124 213.179 76.419 218.112 76.7446 223.1C76.7378 223.132 76.7201 223.161 76.6945 223.182C76.6689 223.203 76.6369 223.214 76.6039 223.214C76.571 223.214 76.539 223.203 76.5134 223.182C76.4878 223.161 76.4701 223.132 76.4632 223.1C75.3594 214.451 72.9075 206.029 69.1969 198.141C65.5512 190.41 60.955 182.184 53.9262 177.064C50.0992 174.278 45.7969 172.45 41.5071 170.522C41.282 170.447 41.4383 170.128 41.6634 170.203Z" fill="#EBEBEB"/>
<path d="M71.2413 202.886C68.5245 200.412 65.5447 198.243 62.3553 196.42C57.3902 193.659 53.3568 191.844 52.1248 189.433C50.8929 187.023 54.7262 183.893 54.7262 183.893C54.7262 183.893 49.661 186.397 47.5599 184.551C45.4588 182.704 41.0439 169.934 41.0439 169.934C41.0439 169.934 52.7439 174.097 60.0416 182.541C67.3392 190.986 71.2413 202.886 71.2413 202.886Z" fill="#EBEBEB"/>
<path d="M61.5297 191.13C60.3794 191.05 59.2244 191.192 58.1279 191.55C58.1279 191.55 58.1279 191.606 58.1279 191.6C59.2466 191.408 60.3768 191.291 61.511 191.249C61.5923 191.249 61.611 191.136 61.5297 191.13Z" fill="white"/>
<path d="M51.3248 177.734C50.8001 177.691 50.272 177.721 49.7552 177.822C49.699 177.822 49.7177 177.922 49.7552 177.915C50.2743 177.859 50.7808 177.878 51.2936 177.865C51.3095 177.866 51.3251 177.861 51.3378 177.851C51.3506 177.842 51.3595 177.828 51.3632 177.813C51.3669 177.797 51.3651 177.781 51.3581 177.766C51.3511 177.752 51.3393 177.741 51.3248 177.734Z" fill="white"/>
<path d="M86.3307 239.245H59.9229L63.6874 211.632L64.6504 204.552H81.6032L82.5662 211.632L86.3307 239.245Z" fill="#DBDBDB"/>
<path d="M82.5663 211.632H63.6875L64.6505 204.552H81.6033L82.5663 211.632Z" fill="#C7C7C7"/>
<path d="M84.0228 202.098H62.2236V208.095H84.0228V202.098Z" fill="#DBDBDB"/>
<path d="M43.1328 239.245L90.6644 239.094L138.196 239.038L233.259 238.932L328.322 239.038L375.854 239.094L423.385 239.245L375.854 239.401L328.322 239.451L233.259 239.558L138.196 239.451L90.6644 239.395L43.1328 239.245Z" fill="#263238"/>
<path d="M234.51 285.9C333.539 285.9 413.818 277.094 413.818 266.231C413.818 255.369 333.539 246.562 234.51 246.562C135.481 246.562 55.2021 255.369 55.2021 266.231C55.2021 277.094 135.481 285.9 234.51 285.9Z" fill="#EBEBEB"/>
<path d="M192.769 262.977C191.312 263.471 149.533 263.603 147.932 262.614C147.307 262.238 146.95 256.147 146.682 248.773C146.625 247.183 146.581 245.536 146.544 243.871L143.211 221.56L171.145 221.379L173.777 243.696L173.671 248.604C173.671 248.604 189.692 255.709 191.33 256.998C192.969 258.288 194.226 262.482 192.769 262.977Z" fill="#EB9481"/>
<path d="M192.769 262.977C191.312 263.472 149.533 263.603 147.933 262.614C147.195 262.151 146.794 253.255 146.569 243.872L173.746 243.696L173.64 248.604C173.64 248.604 189.661 255.709 191.299 256.999C192.938 258.288 194.226 262.483 192.769 262.977Z" fill="white"/>
<path d="M192.769 262.976C191.312 263.471 149.533 263.602 147.932 262.613C147.307 262.238 146.951 256.147 146.682 248.773L173.615 248.604C173.615 248.604 189.636 255.709 191.274 256.998C192.913 258.288 194.226 262.482 192.769 262.976Z" fill="#A6A6A6"/>
<path d="M192.162 261.305C185.158 261.155 156.893 261.224 149.958 261.612C149.902 261.612 149.902 261.649 149.958 261.656C156.899 261.95 185.164 261.656 192.162 261.418C192.312 261.412 192.312 261.305 192.162 261.305Z" fill="#263238"/>
<path d="M188.604 255.502C187.826 255.485 187.052 255.629 186.332 255.927C185.611 256.224 184.961 256.668 184.421 257.23C183.437 258.233 182.881 259.58 182.87 260.986C182.87 261.03 182.945 261.03 182.951 260.986C183.184 259.601 183.858 258.329 184.872 257.358C185.886 256.388 187.187 255.772 188.579 255.603C188.593 255.606 188.607 255.604 188.618 255.597C188.63 255.59 188.639 255.578 188.642 255.565C188.645 255.552 188.643 255.538 188.636 255.526C188.629 255.514 188.618 255.506 188.604 255.502Z" fill="#263238"/>
<path d="M176.354 249.293C173.553 249.261 170.307 250.263 168.569 252.567C168.506 252.654 168.631 252.748 168.713 252.704C171.16 251.411 173.739 250.383 176.404 249.637C176.445 249.626 176.481 249.6 176.504 249.564C176.528 249.528 176.537 249.485 176.531 249.443C176.525 249.4 176.504 249.362 176.471 249.334C176.438 249.307 176.397 249.292 176.354 249.293Z" fill="#263238"/>
<path d="M178.53 250.125C175.722 250.125 172.477 251.102 170.744 253.399C170.676 253.493 170.801 253.587 170.888 253.543C173.332 252.245 175.909 251.215 178.574 250.469C178.614 250.458 178.65 250.433 178.673 250.398C178.696 250.362 178.706 250.32 178.701 250.278C178.696 250.236 178.675 250.198 178.644 250.17C178.613 250.141 178.572 250.126 178.53 250.125Z" fill="#263238"/>
<path d="M180.694 250.964C177.892 250.964 174.647 251.934 172.909 254.238C172.846 254.326 172.971 254.419 173.052 254.376C175.5 253.082 178.078 252.054 180.744 251.308C180.785 251.297 180.821 251.271 180.844 251.235C180.868 251.199 180.877 251.156 180.871 251.114C180.865 251.072 180.843 251.033 180.811 251.005C180.778 250.978 180.737 250.963 180.694 250.964Z" fill="#263238"/>
<path d="M182.863 251.802C180.056 251.771 176.81 252.773 175.078 255.076C175.009 255.164 175.14 255.258 175.222 255.214C177.669 253.92 180.247 252.891 182.913 252.147C182.954 252.135 182.99 252.109 183.014 252.074C183.037 252.038 183.046 251.995 183.04 251.952C183.034 251.91 183.013 251.872 182.98 251.844C182.948 251.816 182.906 251.802 182.863 251.802Z" fill="#263238"/>
<path d="M151.722 254.945C148.595 254.945 148.595 259.859 151.722 259.841C154.849 259.822 154.874 254.927 151.722 254.945Z" fill="#263238"/>
<path d="M179.362 241.793C177.942 240.616 176.154 241.793 175.285 243.002C173.838 245.137 172.975 247.615 172.783 250.188C172.783 250.244 172.827 250.269 172.871 250.269C172.882 250.322 172.905 250.372 172.94 250.414C172.974 250.456 173.018 250.489 173.067 250.51C173.117 250.532 173.171 250.541 173.225 250.537C173.279 250.533 173.331 250.517 173.377 250.488C175.366 249.105 177.667 247.866 179.174 245.906C180.031 244.767 180.731 242.889 179.362 241.793ZM175.947 247.765C174.984 248.473 173.99 249.13 173.052 249.875C173.552 248.473 173.984 247.058 174.622 245.706C174.916 245.058 175.255 244.43 175.635 243.828C176.26 242.895 178.987 240.541 179.274 243.59C179.437 245.261 177.092 246.927 175.947 247.765Z" fill="#263238"/>
<path d="M165.804 251.252C168.243 251.615 170.763 250.914 173.158 250.532C173.21 250.518 173.258 250.493 173.298 250.457C173.339 250.422 173.37 250.377 173.39 250.327C173.41 250.277 173.418 250.224 173.414 250.17C173.409 250.116 173.392 250.065 173.364 250.019C173.373 250.012 173.381 250.003 173.386 249.992C173.391 249.982 173.393 249.971 173.393 249.959C173.393 249.948 173.391 249.936 173.386 249.926C173.381 249.916 173.373 249.907 173.364 249.9C171.44 248.182 169.098 247.001 166.573 246.475C165.097 246.194 163.009 246.601 162.821 248.435C162.596 250.163 164.378 251.027 165.804 251.252ZM164.103 249.662C162.227 247.258 165.81 247.051 166.886 247.302C167.584 247.477 168.269 247.698 168.937 247.965C170.305 248.533 171.642 249.17 172.945 249.875C171.757 249.994 170.588 250.206 169.406 250.369C167.993 250.557 165.154 250.983 164.103 249.662Z" fill="#263238"/>
<path d="M102.14 118.439C102.14 118.439 134.576 173.678 135.445 177.559C136.777 183.518 143.837 242.369 143.837 242.369L177.605 241.743C177.605 241.743 171.789 189.854 166.28 172.757C162.315 160.444 133.688 119.604 133.688 119.604L102.14 118.439Z" fill="#37474F"/>
<path d="M174.534 236.585C169.688 236.547 152.51 236.353 146.057 236.954C146.007 236.954 146.013 237.042 146.057 237.048C148.277 237.368 169.682 236.873 174.528 236.717C174.538 236.72 174.549 236.721 174.56 236.72C174.57 236.719 174.581 236.715 174.59 236.709C174.599 236.703 174.606 236.695 174.611 236.686C174.617 236.676 174.62 236.666 174.62 236.655C174.621 236.644 174.619 236.634 174.614 236.624C174.61 236.614 174.603 236.605 174.595 236.598C174.587 236.592 174.577 236.587 174.566 236.584C174.556 236.582 174.545 236.582 174.534 236.585Z" fill="#263238"/>
<path d="M107.673 123.51C109.799 126.847 112.05 130.115 114.214 133.426C116.378 136.738 118.554 140.049 120.699 143.354C124.976 150.032 129.145 156.753 133.205 163.518C135.187 166.654 136.882 169.962 138.27 173.402C139.538 176.844 140.49 180.393 141.116 184.007C141.779 187.631 142.216 191.294 142.623 194.956C143.04 198.849 143.475 202.745 143.93 206.643C144.818 214.618 145.708 222.594 146.6 230.569C146.706 231.545 146.813 232.522 146.913 233.505C146.913 233.649 146.669 233.674 146.65 233.505C145.656 225.586 144.83 217.636 143.93 209.717C143.479 205.765 143.031 201.815 142.585 197.867C142.166 194.192 141.766 190.511 141.197 186.861C140.675 183.259 139.88 179.702 138.821 176.219C137.653 172.614 136.089 169.15 134.156 165.89C130.247 159.136 126.108 152.5 121.968 145.858C117.828 139.217 113.576 132.518 109.211 125.958C108.673 125.15 108.129 124.343 107.567 123.548C107.523 123.504 107.635 123.448 107.673 123.51Z" fill="#263238"/>
<path d="M112.77 266.232C111.232 266.138 71.4978 250.024 70.3972 248.497C70.3482 248.407 70.3265 248.305 70.3347 248.203C70.3347 246.832 73.0924 242.049 75.3937 235.764C75.5375 235.363 76.563 233.498 77.9825 230.988C81.9284 224.108 88.8071 212.258 88.8071 212.258L114.777 222.587L102.346 241.21L100.413 245.717C100.413 245.717 112.601 258.331 113.627 260.116C114.652 261.9 114.302 266.319 112.77 266.232Z" fill="#EB9481"/>
<path d="M112.77 266.232C111.232 266.138 71.4978 250.025 70.3972 248.498C70.3482 248.408 70.3265 248.305 70.3347 248.203C70.3347 246.832 73.0924 242.05 75.3937 235.765C75.5375 235.364 76.563 233.499 77.9825 230.988L102.371 241.211L100.438 245.718C100.438 245.718 112.626 258.332 113.652 260.116C114.677 261.9 114.302 266.32 112.77 266.232Z" fill="white"/>
<path d="M112.769 266.232C111.231 266.138 71.4975 250.025 70.3969 248.497C69.9716 247.915 71.7476 242.488 75.3995 235.765L100.413 245.724C100.413 245.724 112.601 258.326 113.632 260.122C114.664 261.919 114.302 266.32 112.769 266.232Z" fill="#A6A6A6"/>
<path d="M112.832 264.454C106.398 261.687 80.171 251.133 73.5988 248.892C73.5425 248.892 73.53 248.892 73.5988 248.929C79.9209 251.809 106.229 262.15 112.807 264.579C112.932 264.61 112.97 264.51 112.832 264.454Z" fill="#263238"/>
<path d="M111.706 257.738C110.993 257.424 110.222 257.262 109.443 257.262C108.663 257.262 107.892 257.424 107.179 257.738C105.896 258.3 104.879 259.336 104.34 260.63C104.34 260.667 104.396 260.699 104.415 260.661C105.152 259.461 106.258 258.532 107.567 258.014C108.876 257.496 110.317 257.416 111.675 257.788C111.686 257.785 111.695 257.778 111.7 257.769C111.706 257.759 111.708 257.748 111.706 257.738Z" fill="#263238"/>
<path d="M102.683 247.383C100.101 246.3 96.7114 246.012 94.2413 247.496C94.1475 247.552 94.2413 247.683 94.3226 247.677C97.0762 247.397 99.8516 247.412 102.602 247.721C102.644 247.725 102.687 247.715 102.722 247.69C102.757 247.665 102.781 247.629 102.791 247.588C102.801 247.546 102.796 247.503 102.776 247.465C102.756 247.427 102.723 247.398 102.683 247.383Z" fill="#263238"/>
<path d="M104.378 248.974C101.795 247.891 98.4057 247.603 95.9357 249.086C95.8419 249.143 95.9357 249.274 96.017 249.268C98.7703 248.985 101.546 249 104.296 249.312C104.339 249.316 104.381 249.305 104.416 249.281C104.451 249.256 104.476 249.22 104.486 249.178C104.496 249.137 104.49 249.093 104.47 249.056C104.45 249.018 104.417 248.989 104.378 248.974Z" fill="#263238"/>
<path d="M106.079 250.564C103.49 249.481 100.101 249.193 97.6368 250.676C97.5368 250.733 97.6368 250.864 97.7119 250.858C100.465 250.575 103.241 250.59 105.991 250.902C106.034 250.909 106.079 250.9 106.116 250.876C106.152 250.852 106.179 250.815 106.19 250.773C106.201 250.73 106.195 250.685 106.175 250.646C106.154 250.608 106.12 250.578 106.079 250.564Z" fill="#263238"/>
<path d="M107.773 252.153C105.184 251.07 101.801 250.782 99.3312 252.26C99.2311 252.322 99.3312 252.454 99.4062 252.447C102.16 252.165 104.935 252.179 107.686 252.491C107.729 252.499 107.773 252.489 107.81 252.465C107.847 252.442 107.873 252.405 107.884 252.362C107.895 252.32 107.89 252.275 107.869 252.236C107.849 252.198 107.814 252.168 107.773 252.153Z" fill="#263238"/>
<path d="M77.7265 243.371C74.8062 242.206 72.9927 246.757 75.9255 247.922C78.8583 249.086 80.678 244.535 77.7265 243.371Z" fill="#263238"/>
<path d="M108.28 241.562C107.398 239.94 105.316 240.341 104.047 241.149C101.908 242.583 100.183 244.553 99.0439 246.864C99.0389 246.874 99.0362 246.885 99.0361 246.897C99.036 246.908 99.0385 246.919 99.0433 246.929C99.0481 246.94 99.0551 246.949 99.0639 246.956C99.0727 246.963 99.0829 246.968 99.0939 246.97C99.0939 247.177 99.2315 247.421 99.4754 247.371C101.845 246.826 104.441 246.545 106.567 245.293C107.786 244.567 109.112 243.095 108.28 241.562ZM102.871 245.812C101.714 246.107 100.551 246.344 99.4066 246.682C100.353 245.541 101.357 244.448 102.414 243.408C102.935 242.912 103.489 242.452 104.072 242.031C104.978 241.405 108.405 240.247 107.53 243.183C107.048 244.804 104.253 245.462 102.871 245.812Z" fill="#263238"/>
<path d="M92.1647 245.236C94.2908 246.488 96.886 246.782 99.2497 247.333C99.4936 247.39 99.6562 247.146 99.6375 246.933C99.6492 246.931 99.6604 246.927 99.67 246.92C99.6796 246.913 99.6873 246.904 99.6923 246.894C99.6973 246.883 99.6995 246.871 99.6987 246.859C99.6978 246.848 99.694 246.836 99.6875 246.826C98.55 244.511 96.8249 242.536 94.6848 241.098C93.4341 240.285 91.3393 239.878 90.4513 241.493C89.5633 243.108 90.9203 244.504 92.1647 245.236ZM91.1892 243.12C90.32 240.184 93.7406 241.349 94.6473 241.981C95.2295 242.403 95.7812 242.865 96.2982 243.365C97.3535 244.406 98.3554 245.501 99.2998 246.645C98.1554 246.307 96.9923 246.063 95.8354 245.768C94.4347 245.393 91.6644 244.767 91.1892 243.12Z" fill="#263238"/>
<path d="M104.366 240.172L75.2939 228.422C75.2939 228.422 111.338 175.368 111.601 171.418C111.838 167.925 96.005 137.489 95.3859 128.619C94.7106 119.041 99.313 111.635 104.378 107.034L134.363 119.798C134.363 119.798 131.199 124.863 126.234 127.686C126.234 127.686 141.611 162.867 140.735 173.684C139.86 184.502 104.366 240.172 104.366 240.172Z" fill="#37474F"/>
<path d="M105.654 234.638C101.451 232.829 102.683 233.285 98.4559 231.508C96.3923 230.644 82.8226 224.991 80.734 224.521C80.6902 224.521 80.6589 224.584 80.7027 224.609C82.5099 225.717 96.1922 231.132 98.2746 231.958C102.533 233.636 101.326 233.11 105.604 234.738C105.61 234.746 105.618 234.753 105.628 234.757C105.638 234.762 105.649 234.764 105.659 234.763C105.67 234.762 105.68 234.758 105.689 234.752C105.698 234.746 105.705 234.738 105.709 234.728C105.714 234.719 105.716 234.708 105.716 234.697C105.716 234.687 105.712 234.676 105.707 234.667C105.701 234.658 105.693 234.651 105.684 234.646C105.675 234.64 105.664 234.638 105.654 234.638Z" fill="#263238"/>
<path d="M131.149 127.041C128.027 127.77 124.973 128.762 122.019 130.009C122.007 130.013 121.996 130.019 121.986 130.027C121.977 130.036 121.969 130.046 121.964 130.057C121.958 130.069 121.955 130.081 121.954 130.094C121.954 130.106 121.955 130.119 121.959 130.131C121.963 130.143 121.97 130.154 121.978 130.163C121.987 130.172 121.997 130.18 122.008 130.186C122.019 130.191 122.032 130.194 122.044 130.195C122.057 130.196 122.069 130.194 122.081 130.19C125.145 129.295 128.26 128.456 131.274 127.398C131.505 127.317 131.386 126.991 131.149 127.041Z" fill="#263238"/>
<path d="M127.578 125.827C127.287 126.345 127.03 126.883 126.809 127.435C126.593 127.855 126.459 128.312 126.415 128.781C126.415 128.875 126.54 128.894 126.596 128.838C126.91 128.462 127.163 128.04 127.347 127.586C127.603 127.091 127.866 126.603 128.11 126.096C128.279 125.726 127.772 125.489 127.578 125.827Z" fill="#263238"/>
<path d="M127.953 122.984C128.141 122.521 128.322 122.064 128.516 121.6C128.71 121.137 128.954 120.661 129.141 120.173C129.141 120.098 129.291 120.173 129.26 120.23C129.072 120.693 128.954 121.181 128.81 121.657C128.666 122.133 128.503 122.608 128.347 123.084C128.053 123.967 127.722 124.843 127.315 125.701C127.807 125.725 128.299 125.64 128.754 125.45C129.218 125.153 129.575 124.714 129.773 124.198C130.035 123.685 130.279 123.159 130.548 122.646C130.879 122.091 131.158 121.506 131.38 120.899C131.38 120.824 131.53 120.899 131.499 120.956C131.091 122.239 130.557 123.478 129.904 124.655C129.623 125.112 129.404 125.594 128.891 125.77C128.336 125.925 127.755 125.966 127.184 125.889C127.109 125.889 127.021 125.889 127.046 125.776C127.302 124.831 127.605 123.899 127.953 122.984Z" fill="#263238"/>
<path d="M126.677 128.831C127.747 131.091 128.685 133.344 129.679 135.598C130.673 137.851 131.555 140.03 132.449 142.271C134.238 146.791 135.839 151.398 137.246 156.043C137.94 158.347 138.584 160.669 139.159 163.01C139.793 165.344 140.257 167.721 140.547 170.122C140.798 172.519 140.586 174.942 139.922 177.258C139.232 179.548 138.347 181.774 137.277 183.913C136.62 185.265 136.401 185.083 136.714 184.401C137.608 182.46 139.953 176.582 139.784 171.643C139.648 169.278 139.283 166.932 138.696 164.638C138.15 162.272 137.535 159.924 136.852 157.595C135.52 153.001 133.938 148.5 132.312 144.005C131.399 141.501 130.436 138.997 129.498 136.493C128.56 133.989 127.622 131.685 126.571 128.918C126.54 128.806 126.646 128.762 126.677 128.831Z" fill="#263238"/>
<path d="M104.609 121.363C105.128 121.169 105.859 121.489 106.385 121.576C107.065 121.692 107.752 121.761 108.442 121.783C109.124 121.807 109.808 121.784 110.487 121.714C111.171 121.696 111.841 121.518 112.444 121.194C113.433 120.473 114.281 119.575 114.946 118.546C115.737 117.495 116.391 116.346 116.89 115.128C116.89 115.053 117.022 115.128 116.997 115.179C116.778 115.873 116.615 116.575 116.371 117.257C116.102 117.898 115.78 118.516 115.408 119.104C114.806 120.287 113.916 121.299 112.819 122.046C111.613 122.734 110.062 122.672 108.717 122.615C107.937 122.57 107.162 122.467 106.397 122.309C105.847 122.19 104.921 122.102 104.571 121.62C104.555 121.602 104.543 121.58 104.535 121.556C104.528 121.532 104.527 121.507 104.53 121.483C104.534 121.458 104.543 121.435 104.556 121.414C104.57 121.394 104.588 121.376 104.609 121.363Z" fill="#263238"/>
<path d="M83.5915 222.857C88.369 215.612 93.059 208.308 97.6615 200.947C102.264 193.585 106.804 186.167 111.281 178.692C112.351 176.908 113.582 175.13 114.27 173.152C115.021 171.005 114.596 168.92 113.92 166.817C112.645 162.98 111.154 159.218 109.455 155.549C107.779 151.849 105.972 148.212 104.196 144.563C102.42 140.913 100.563 137.307 99.1935 133.501C97.9429 129.864 97.4364 126.096 98.4119 122.327C99.3874 118.559 101.489 115.228 103.683 112.092C104.259 111.266 104.853 110.446 105.434 109.588C105.478 109.526 105.572 109.588 105.528 109.663C103.108 112.931 100.751 116.393 99.3311 120.23C98.6056 122.122 98.1998 124.121 98.1305 126.146C98.1186 128.201 98.4375 130.245 99.0747 132.199C100.25 136.005 102.108 139.605 103.84 143.186C105.572 146.766 107.423 150.472 109.13 154.159C110.891 157.87 112.457 161.671 113.82 165.546C114.402 167.268 115.071 169.071 115.021 170.917C114.977 172.939 114.014 174.761 113.013 176.464C108.636 183.882 104.152 191.212 99.5875 198.499C95.0226 205.786 90.3263 213.072 85.5738 220.284L83.7728 223.007C83.679 223.119 83.5164 222.988 83.5915 222.857Z" fill="#263238"/>
<path d="M136.026 86.0567C138.734 92.0037 152.41 100.198 158.814 101.081C163.416 101.707 177.411 101.932 182.207 101.2C187.835 100.336 183.533 85.1553 180.212 85.5497C171.083 86.6139 163.328 87.8033 160.89 87.8033C157.913 87.8033 141.811 82.6325 139.872 81.9001C135.12 80.1285 134.494 82.6826 136.026 86.0567Z" fill="#EB9481"/>
<path d="M136.113 87.6401C139.54 92.7169 150.927 101.018 150.927 101.018L152.509 97.5121L157.743 85.9186C157.743 85.9186 147.281 82.6321 140.397 81.1297C139.586 80.9451 138.762 80.8278 137.933 80.7791C133.537 80.5412 133.155 83.2581 136.113 87.6401Z" fill="#2F4153"/>
<path d="M136.113 87.6408C139.54 92.7176 150.927 101.018 150.927 101.018L152.509 97.5128C148.263 92.5736 141.704 85.0929 137.933 80.7923C133.537 80.5419 133.155 83.2588 136.113 87.6408Z" fill="#263238"/>
<path d="M148.876 98.664C149.746 96.5293 153.61 87.9343 154.573 86.144C154.636 86.0188 154.736 86.0313 154.68 86.144C153.003 90.4182 151.095 94.5978 148.964 98.664C148.939 98.7391 148.839 98.714 148.876 98.664Z" fill="#263238"/>
<path d="M178.536 85.7059C184.089 84.9797 190.962 83.734 196.783 86.2067C197.437 86.4635 197.986 86.9331 198.34 87.5401C200.967 88.6043 201.255 90.163 201.255 90.163C203.399 91.9033 203.474 93.5434 203.474 93.5434C203.474 93.5434 206.551 94.7954 206.082 96.8111C205.569 99.0397 201.355 96.8111 198.29 96.9927C191.255 97.4309 181.406 100.016 179.374 100.342L178.536 85.7059Z" fill="#EB9481"/>
<path d="M190.598 92.2671C192.656 92.1262 194.72 92.1262 196.777 92.2671C199.017 92.5484 201.233 92.9983 203.405 93.613C203.419 93.6179 203.435 93.6171 203.448 93.6107C203.462 93.6042 203.472 93.5926 203.477 93.5785C203.482 93.5644 203.481 93.5489 203.475 93.5354C203.468 93.5219 203.457 93.5115 203.443 93.5065C199.361 91.9034 194.918 91.453 190.598 92.2045C190.498 92.1919 190.498 92.2733 190.598 92.2671Z" fill="#263238"/>
<path d="M189.292 85.7625C192.725 85.9378 194.87 86.4887 198.322 87.5279V87.4903C194.52 85.9003 192.963 85.75 189.273 85.6123C189.154 85.6624 189.161 85.7625 189.292 85.7625Z" fill="#263238"/>
<path d="M189.848 98.0566C188.954 98.4761 189.173 98.9456 190.88 99.3399C192.587 99.7343 199.685 99.8533 199.435 102.332C199.185 104.811 189.173 104.498 186.378 103.622C183.583 102.745 179.374 100.342 179.374 100.342C181.356 100.01 186.009 98.7515 189.848 98.0566Z" fill="#EB9481"/>
<path d="M143.461 95.5345C143.417 96.605 143.317 97.6942 143.167 98.7772C143.167 98.7334 143.167 98.6958 143.211 98.6583C143.417 98.0949 143.624 97.519 143.874 96.9743C143.874 96.9743 143.936 96.9743 143.93 96.9743C143.81 97.5711 143.63 98.1542 143.392 98.7146C143.28 98.9838 143.174 99.2467 143.055 99.5096C142.98 99.9917 142.892 100.467 142.798 100.943C142.611 101.838 141.767 105.644 141.548 106.289C141.51 106.421 141.348 106.389 141.36 106.239C141.404 105.538 142.11 101.575 142.254 100.674C142.534 98.9335 142.907 97.2094 143.374 95.5095C143.405 95.4782 143.467 95.5032 143.461 95.5345Z" fill="#263238"/>
<path d="M136.958 123.998C135.288 124.856 133.137 126.189 123.444 124.28C122.819 124.155 122.231 124.004 121.618 123.823C112.532 121.093 101.608 110.395 101.014 109.638C101.014 109.638 115.453 86.2065 133.919 78.8385C136.201 77.9308 139.978 79.6836 142.048 81.8683C142.792 82.6508 144.412 88.4037 143.793 93.0612C143.174 97.7186 138.621 123.14 136.958 123.998Z" fill="#2F4153"/>
<path d="M135.657 92.8486C135.726 93.8388 135.588 94.8325 135.25 95.7658C135.171 94.7753 135.31 93.7796 135.657 92.8486Z" fill="white"/>
<path d="M129.36 108.806C129.4 109.298 129.383 109.794 129.31 110.283C129.25 110.776 129.13 111.259 128.954 111.723C128.911 111.228 128.928 110.73 129.004 110.239C129.068 109.749 129.187 109.268 129.36 108.806Z" fill="white"/>
<path d="M118.66 96.7422C118.731 97.7344 118.592 98.7304 118.254 99.6656C118.175 98.6731 118.314 97.6755 118.66 96.7422Z" fill="white"/>
<path d="M139.778 107.992C139.818 108.487 139.802 108.985 139.728 109.476C139.668 109.968 139.548 110.452 139.372 110.916C139.329 110.421 139.346 109.923 139.422 109.432C139.485 108.94 139.605 108.457 139.778 107.992Z" fill="white"/>
<path d="M126.039 94.6766C126.531 94.6347 127.026 94.6494 127.515 94.7204C128.007 94.7829 128.49 94.9048 128.953 95.0835C127.964 95.1546 126.971 95.016 126.039 94.6766Z" fill="white"/>
<path d="M113.896 106.201C114.885 106.131 115.877 106.27 116.81 106.608C115.82 106.687 114.825 106.549 113.896 106.201Z" fill="white"/>
<path d="M128.203 118.677C129.192 118.606 130.185 118.745 131.117 119.084C130.128 119.162 129.133 119.024 128.203 118.677Z" fill="white"/>
<path d="M110.149 114.146C111.138 114.076 112.131 114.214 113.063 114.552C112.074 114.631 111.08 114.492 110.149 114.146Z" fill="white"/>
<path d="M135.563 81.6309C136.553 81.5611 137.545 81.6997 138.478 82.0378C137.488 82.1076 136.496 81.9689 135.563 81.6309Z" fill="white"/>
<path d="M132.03 85.625C131.714 86.0054 131.353 86.346 130.955 86.6391C130.567 86.9391 130.148 87.1952 129.704 87.4028C130.018 87.0248 130.375 86.6845 130.767 86.3887C131.158 86.0876 131.582 85.8314 132.03 85.625Z" fill="white"/>
<path d="M112.776 96.9736C112.456 97.3508 112.093 97.689 111.694 97.9815C111.31 98.2871 110.89 98.5437 110.443 98.7452C110.765 98.3697 111.128 98.0316 111.525 97.7374C111.91 97.433 112.33 97.1766 112.776 96.9736Z" fill="white"/>
<path d="M136.82 102.095C136.5 102.474 136.137 102.814 135.738 103.109C135.354 103.413 134.934 103.67 134.487 103.873C134.807 103.493 135.17 103.153 135.569 102.858C135.956 102.557 136.375 102.301 136.82 102.095Z" fill="white"/>
<path d="M121.249 111.91C120.93 112.289 120.567 112.63 120.168 112.924C119.783 113.228 119.363 113.484 118.917 113.688C119.237 113.309 119.6 112.969 119.999 112.674C120.385 112.373 120.805 112.116 121.249 111.91Z" fill="white"/>
<path d="M142.786 88.6855C142.466 89.0646 142.103 89.405 141.704 89.6997C141.316 89.9996 140.897 90.2558 140.453 90.4634C140.773 90.0843 141.136 89.7439 141.535 89.4493C141.92 89.1458 142.34 88.8895 142.786 88.6855Z" fill="white"/>
<path d="M142.461 100.061C142.082 99.7403 141.742 99.3769 141.447 98.9776C141.143 98.593 140.887 98.1725 140.685 97.7256C141.065 98.0421 141.405 98.4036 141.698 98.8023C141.996 99.193 142.252 99.6149 142.461 100.061Z" fill="white"/>
<path d="M107.754 107.897C107.376 107.577 107.036 107.214 106.741 106.814C106.44 106.428 106.185 106.007 105.979 105.562C106.357 105.883 106.697 106.246 106.992 106.645C107.295 107.031 107.551 107.451 107.754 107.897Z" fill="white"/>
<path d="M138.24 117.219C137.86 116.903 137.52 116.541 137.227 116.143C136.927 115.755 136.671 115.335 136.464 114.891C136.843 115.211 137.183 115.574 137.477 115.974C137.779 116.358 138.035 116.776 138.24 117.219Z" fill="white"/>
<path d="M122.962 90.6451C122.584 90.3271 122.244 89.9657 121.949 89.5684C121.651 89.1796 121.395 88.7599 121.187 88.3164C121.567 88.6329 121.907 88.9944 122.2 89.3931C122.498 89.7819 122.754 90.2016 122.962 90.6451Z" fill="white"/>
<path d="M123.232 122.527C122.853 122.207 122.513 121.844 122.219 121.444C121.919 121.057 121.663 120.637 121.456 120.192C121.836 120.509 122.176 120.87 122.469 121.269C122.77 121.658 123.026 122.08 123.232 122.527Z" fill="white"/>
<path d="M125.826 103.723C125.451 103.401 125.113 103.037 124.82 102.64C124.514 102.256 124.258 101.835 124.057 101.388C124.433 101.708 124.771 102.072 125.063 102.471C125.367 102.856 125.624 103.276 125.826 103.723Z" fill="white"/>
<path d="M138.665 88.1102C136.308 87.672 134.094 82.7954 133.812 79.5152C133.812 79.2898 134.913 77.5057 136.17 75.2709C136.933 73.9125 137.74 72.3788 138.384 70.9265C138.515 70.6322 139.284 71.6276 139.284 71.6276L140.96 72.8796L146.494 77.1301C145.176 78.7132 144.057 80.4518 143.161 82.3071C143.073 82.5082 143.006 82.718 142.961 82.9331C142.959 82.9686 142.959 83.0041 142.961 83.0396C142.617 84.279 140.935 88.5296 138.665 88.1102Z" fill="#EB9481"/>
<path d="M142.961 82.9638C142.959 82.9993 142.959 83.0348 142.961 83.0703C142.633 82.9738 142.313 82.8503 142.005 82.7009C135.945 79.8589 138.615 71.7334 138.615 71.7334L140.992 72.9103L146.526 77.1608C145.208 78.7439 144.089 80.4825 143.193 82.3378C143.094 82.5377 143.016 82.7475 142.961 82.9638Z" fill="#263238"/>
<path d="M152.854 59.834C152.854 59.834 155.624 61.593 155.636 64.723C155.649 67.853 154.386 70.9142 154.123 71.0269C153.86 71.1395 152.854 59.834 152.854 59.834Z" fill="#263238"/>
<path d="M139.109 61.4614C137.446 64.7479 137.533 75.1082 139.609 77.775C142.623 81.6437 148.427 82.9771 151.935 79.1522C155.33 75.4463 154.98 61.9497 152.56 59.4332C149.039 55.7148 141.573 56.5974 139.109 61.4614Z" fill="#EB9481"/>
<path d="M147.939 69.7559C147.939 69.7559 147.883 69.7934 147.889 69.8185C147.926 70.5258 147.851 71.3396 147.22 71.59C147.22 71.59 147.22 71.6339 147.22 71.6276C148.001 71.5024 148.089 70.4194 147.939 69.7559Z" fill="#263238"/>
<path d="M147.295 69.0354C146.157 68.9728 146.119 71.2515 147.176 71.3078C148.233 71.3642 148.245 69.0855 147.295 69.0354Z" fill="#263238"/>
<path d="M151.796 69.7305C151.796 69.7305 151.853 69.7305 151.853 69.7931C151.815 70.5004 151.897 71.3142 152.534 71.5584C152.534 71.5584 152.534 71.6022 152.534 71.596C151.746 71.477 151.653 70.394 151.796 69.7305Z" fill="#263238"/>
<path d="M152.441 69.0045C153.573 68.9356 153.629 71.2142 152.578 71.2768C151.528 71.3394 151.49 69.0608 152.441 69.0045Z" fill="#263238"/>
<path d="M146.581 67.3015C146.88 67.2163 147.175 67.1161 147.463 67.001C147.792 66.9415 148.091 66.7741 148.314 66.5252C148.368 66.4341 148.39 66.3277 148.378 66.2225C148.365 66.1172 148.319 66.019 148.245 65.943C148.076 65.8143 147.875 65.733 147.664 65.7077C147.453 65.6824 147.239 65.7139 147.044 65.7991C146.622 65.9122 146.257 66.1775 146.019 66.544C145.971 66.6312 145.949 66.7302 145.956 66.8293C145.963 66.9284 145.998 67.0235 146.058 67.1032C146.117 67.1829 146.198 67.244 146.291 67.2791C146.383 67.3142 146.484 67.322 146.581 67.3015Z" fill="#263238"/>
<path d="M153.216 68.3091C152.912 68.241 152.612 68.1575 152.316 68.0587C151.986 68.0151 151.681 67.8631 151.447 67.6268C151.387 67.5397 151.357 67.4348 151.364 67.3291C151.371 67.2235 151.413 67.1232 151.484 67.0446C151.646 66.9066 151.841 66.8145 152.05 66.7782C152.259 66.7418 152.474 66.7625 152.672 66.838C153.1 66.9268 153.479 67.1724 153.736 67.5266C153.789 67.6105 153.817 67.7081 153.816 67.8076C153.815 67.9071 153.786 68.0043 153.731 68.0872C153.676 68.1701 153.598 68.2352 153.507 68.2746C153.415 68.314 153.314 68.326 153.216 68.3091Z" fill="#263238"/>
<path d="M146.338 76.4478C146.507 76.6168 146.669 76.8422 146.926 76.8672C147.189 76.8671 147.448 76.8116 147.689 76.7045C147.689 76.7045 147.732 76.7044 147.689 76.742C147.586 76.8796 147.448 76.9867 147.289 77.0517C147.131 77.1168 146.958 77.1374 146.788 77.1114C146.645 77.0724 146.517 76.9923 146.419 76.881C146.321 76.7697 146.258 76.6321 146.238 76.4854C146.233 76.4721 146.233 76.4574 146.239 76.4444C146.245 76.4315 146.256 76.4215 146.269 76.4165C146.282 76.4115 146.297 76.412 146.31 76.4179C146.323 76.4238 146.333 76.4345 146.338 76.4478Z" fill="#263238"/>
<path d="M150.427 73.4303C150.427 73.4303 150.458 74.482 150.427 74.9765C149.466 74.8745 148.496 74.9082 147.544 75.0767C147.319 75.1268 147.344 74.9452 147.601 74.8263C148.367 74.4756 149.221 74.3623 150.052 74.5008C150.102 74.3693 149.971 72.8732 150.052 72.8794C150.43 72.9538 150.796 73.0802 151.14 73.255C151.14 71.0515 150.79 68.873 150.821 66.6695C150.821 66.5944 150.94 66.5819 150.952 66.6695C151.397 69.0006 151.606 71.3704 151.578 73.7433C151.584 74.0125 150.615 73.5305 150.427 73.4303Z" fill="#263238"/>
<path d="M149.021 74.601C148.772 75.2574 148.309 75.8108 147.708 76.1723C146.763 76.5541 146.457 75.6965 147.407 74.9203C147.906 74.6681 148.464 74.5576 149.021 74.601Z" fill="#263238"/>
<path d="M148.038 75.9783C147.939 76.0597 147.827 76.1251 147.707 76.1724C146.838 76.5229 146.494 75.8281 147.194 75.127C147.669 75.1645 148.213 75.3398 148.038 75.9783Z" fill="#FF99BA"/>
<path d="M138.634 70.319C139.778 70.6696 141.091 67.2266 141.467 65.937C141.792 64.7727 142.167 61.073 142.223 60.8164C142.28 60.5597 147.226 64.0903 150.09 63.2515C152.954 62.4127 154.899 59.8148 154.943 58.6066C154.986 57.3984 151.403 54.331 148.308 54.1745C145.212 54.018 141.016 57.9305 141.016 57.9305C141.523 57.3547 141.983 56.7393 142.392 56.0901C142.342 55.9523 140.341 56.7536 139.972 58.1809C139.972 58.1809 140.372 56.3843 140.222 56.353C140.072 56.3217 138.515 57.8554 138.865 59.0197C138.865 59.0197 137.064 60.5785 136.902 62.2875C136.739 63.9964 137.289 69.9059 138.634 70.319Z" fill="#263238"/>
<path d="M152.141 62.6C151.289 63.0624 150.372 63.3917 149.421 63.5766C148.353 63.6719 147.278 63.4998 146.294 63.0758C145.302 62.6922 144.381 62.1464 143.567 61.4607C142.848 60.8723 142.204 60.1524 141.435 59.6265C141.241 59.4888 141.022 59.7705 141.141 59.9458C142.424 61.7603 144.258 63.1125 146.369 63.802C147.349 64.122 148.396 64.1818 149.407 63.9756C150.418 63.7693 151.357 63.3039 152.134 62.6251C152.134 62.6251 152.153 62.6 152.141 62.6Z" fill="#263238"/>
<path d="M139.828 70.012C139.828 70.012 138.052 66.4062 136.451 66.9884C134.85 67.5706 135.826 72.5598 137.47 73.4738C137.672 73.6042 137.897 73.6927 138.134 73.7337C138.37 73.7747 138.613 73.7676 138.846 73.7126C139.08 73.6577 139.3 73.5561 139.493 73.4139C139.687 73.2718 139.849 73.092 139.972 72.8853L139.828 70.012Z" fill="#EB9481"/>
<path d="M136.771 68.4102C136.771 68.4102 136.733 68.4102 136.771 68.4602C137.909 69.1363 138.371 70.3382 138.647 71.5902C138.595 71.4577 138.515 71.338 138.412 71.2394C138.31 71.1409 138.187 71.0658 138.053 71.0193C137.918 70.9729 137.775 70.9562 137.634 70.9705C137.492 70.9848 137.356 71.0296 137.233 71.102C137.196 71.102 137.233 71.1708 137.233 71.1708C137.457 71.136 137.686 71.1715 137.889 71.2724C138.091 71.3733 138.258 71.5346 138.365 71.7342C138.544 72.0685 138.687 72.4211 138.79 72.7859C138.828 72.9048 139.034 72.8735 139.016 72.7421C139.284 71.1833 138.409 68.8233 136.771 68.4102Z" fill="#263238"/>
<path d="M128.103 86.1134C126.853 93.206 134.532 117.1 139.453 121.564C146.776 128.199 160.314 132.563 165.223 133.984C167.362 134.61 173.278 119.542 171.114 118.546C166.48 116.437 152.085 111.93 150.716 110.803C149.346 109.676 141.092 97.7382 137.415 90.8647C132.493 81.6125 128.723 82.5264 128.103 86.1134Z" fill="#EB9481"/>
<path d="M167.468 117.219C167.468 117.219 173.859 118.853 177.98 120.111C180.281 120.818 184.12 122.377 185.577 123.667C187.754 125.601 195.62 135.066 193.369 137.025C191.331 138.803 185.602 129.808 185.602 129.808C185.602 129.808 192.181 138.371 189.354 140.055C186.528 141.739 181.356 130.715 181.356 130.715C181.356 130.715 187.916 139.667 184.708 140.938C182.282 141.896 177.079 132.174 177.079 132.174C177.079 132.174 182.67 139.905 180.206 141C177.492 142.215 172.133 133.539 172.133 133.539C165.429 135.273 161.502 133.351 158.919 131.661C158.313 131.247 167.468 117.219 167.468 117.219Z" fill="#EB9481"/>
<path d="M183.513 126.697C184.326 127.673 185.152 128.663 185.871 129.708C186.59 130.753 187.272 131.83 187.891 132.938C188.729 134.371 189.401 135.896 189.892 137.483C188.816 134.728 186.296 130.941 185.577 129.896C184.858 128.85 184.189 127.767 183.476 126.722C183.457 126.697 183.495 126.672 183.513 126.697Z" fill="#263238"/>
<path d="M179.693 129.232C181.082 130.334 183.989 134.428 185.109 137.176C185.159 137.289 185.109 137.283 185.027 137.176C184.152 135.818 180.6 130.56 179.662 129.251C179.643 129.232 179.675 129.214 179.693 129.232Z" fill="#263238"/>
<path d="M176.022 130.835C177.747 132.646 179.11 134.771 180.037 137.095C180.081 137.208 179.993 137.189 179.924 137.095C178.63 134.985 177.629 133.339 175.953 130.891C175.928 130.835 175.985 130.779 176.022 130.835Z" fill="#263238"/>
<path d="M135.082 86.6326C129.373 78.5509 125.959 81.5432 127.103 90.3197C128.179 98.5266 131.049 108.305 131.049 108.305L145.431 101.319C145.431 101.319 138.715 91.8096 135.082 86.6326Z" fill="#2F4153"/>
<path d="M138.553 89.8125C138.742 90.269 138.879 90.7458 138.959 91.2335C139.047 91.7228 139.078 92.2206 139.053 92.7171C138.865 92.2583 138.731 91.7794 138.653 91.2899C138.56 90.8033 138.526 90.3072 138.553 89.8125Z" fill="white"/>
<path d="M130.029 94.7272C130.947 94.3535 131.935 94.1827 132.925 94.2264C132.468 94.4142 131.992 94.5486 131.505 94.6271C131.019 94.72 130.523 94.7536 130.029 94.7272Z" fill="white"/>
<path d="M130.398 82.1562C130.011 83.0711 129.433 83.8928 128.703 84.5663C129.09 83.6515 129.668 82.8298 130.398 82.1562Z" fill="white"/>
<path d="M142.585 98.502C142.395 98.9598 142.154 99.3945 141.866 99.7978C141.586 100.206 141.258 100.58 140.891 100.912C141.278 99.9972 141.856 99.1755 142.585 98.502Z" fill="white"/>
<path d="M132.58 103.403C132.122 103.216 131.687 102.974 131.286 102.684C130.878 102.403 130.504 102.075 130.173 101.707C131.087 102.095 131.908 102.673 132.58 103.403Z" fill="white"/>
<path d="M136.958 89.0674C137.727 90.1253 138.521 91.1582 139.309 92.1974C139.109 91.6715 138.934 91.1394 138.784 90.6011H138.821C138.978 91.0142 139.159 91.4211 139.309 91.8531L139.534 92.4791C139.554 92.5218 139.57 92.5657 139.584 92.6105C140.21 93.4181 140.835 94.2256 141.41 95.0519C142.117 96.041 142.798 97.0426 143.486 98.0442C144.174 99.0458 144.868 100.292 145.612 101.299C145.681 101.387 144.362 101.925 144.218 101.994C144.074 102.063 143.999 101.944 144.137 101.9C144.274 101.857 145.325 101.212 145.337 101.199C144.649 100.185 143.855 99.2524 143.136 98.2696C142.417 97.2868 141.704 96.3039 141.01 95.3086C139.603 93.2804 138.315 91.177 136.914 89.1425L136.958 89.0674Z" fill="#263238"/>
<path d="M127.44 96.1294C127.659 96.555 127.897 96.9745 128.066 97.4127L128.303 97.9573C127.972 96.3985 127.678 94.8273 127.334 93.2686C127.997 95.7726 128.666 98.3329 129.279 100.874C129.86 103.303 130.567 105.757 130.905 108.236C131.341 108.045 131.793 107.892 132.255 107.779C131.791 108.08 131.291 108.322 130.767 108.499C130.013 105.978 129.387 103.421 128.891 100.837C128.735 100.136 128.591 99.4347 128.441 98.7335C128.278 98.3079 128.084 97.901 127.891 97.4815C127.697 97.0621 127.522 96.5926 127.346 96.1481C127.384 96.1231 127.428 96.0981 127.44 96.1294Z" fill="#263238"/>
<path d="M131.261 105.888C133.262 104.761 141.623 100.429 143.493 99.6281C143.624 99.5717 143.693 99.6281 143.561 99.7157C139.593 102.024 135.501 104.114 131.305 105.976C131.255 105.988 131.205 105.919 131.261 105.888Z" fill="#263238"/>
<path d="M360.403 270.464H169.876L197.422 114.058H387.948L360.403 270.464Z" fill="#2F4153"/>
<path d="M262.632 97.8564H200.28L197.422 114.057H264.151L262.632 97.8564Z" fill="#2F4153"/>
<g opacity="0.1">
<path d="M360.403 270.464H169.876L197.422 114.058H387.948L360.403 270.464Z" fill="black"/>
<path d="M262.632 97.8564H200.28L197.422 114.057H264.151L262.632 97.8564Z" fill="black"/>
</g>
<path d="M193.551 104.467C193.134 102.675 193.134 100.812 193.551 99.0205C193.968 100.812 193.968 102.675 193.551 104.467Z" fill="#263238"/>
<path d="M188.011 106.07C187.374 105.409 186.825 104.668 186.379 103.866C185.91 103.081 185.542 102.24 185.284 101.362C185.923 102.019 186.472 102.758 186.916 103.56C187.384 104.348 187.752 105.191 188.011 106.07Z" fill="#263238"/>
<path d="M184.009 110.233C182.251 109.698 180.64 108.766 179.3 107.51C180.176 107.765 181.017 108.131 181.801 108.599C182.602 109.049 183.344 109.598 184.009 110.233Z" fill="#263238"/>
<path d="M182.607 115.841C180.818 116.259 178.956 116.259 177.167 115.841C178.956 115.424 180.818 115.424 182.607 115.841Z" fill="#263238"/>
<path d="M184.233 121.388C183.57 122.022 182.83 122.571 182.032 123.022C181.248 123.49 180.407 123.856 179.53 124.111C180.191 123.473 180.93 122.924 181.731 122.477C182.514 122.007 183.355 121.64 184.233 121.388Z" fill="#263238"/>
<path d="M188.385 125.388C187.853 127.149 186.922 128.765 185.665 130.108C185.92 129.229 186.288 128.387 186.759 127.604C187.205 126.799 187.751 126.054 188.385 125.388Z" fill="#263238"/>
<path d="M193.988 126.771C194.206 127.662 194.311 128.577 194.301 129.495C194.314 130.412 194.209 131.327 193.988 132.218C193.764 131.328 193.659 130.412 193.676 129.495C193.665 128.577 193.77 127.662 193.988 126.771Z" fill="#263238"/>
<path d="M199.529 125.2C200.166 125.861 200.715 126.602 201.161 127.404C201.631 128.187 201.997 129.029 202.25 129.908C200.992 128.564 200.062 126.949 199.529 125.188V125.2Z" fill="#263238"/>
<path d="M203.524 121.006C204.402 121.259 205.243 121.625 206.026 122.095C206.827 122.542 207.567 123.092 208.227 123.729C207.349 123.476 206.509 123.11 205.726 122.64C204.925 122.192 204.185 121.643 203.524 121.006Z" fill="#263238"/>
<path d="M204.906 115.397C206.698 114.98 208.561 114.98 210.353 115.397C208.561 115.814 206.698 115.814 204.906 115.397Z" fill="#263238"/>
<path d="M203.305 109.851C203.967 109.217 204.707 108.671 205.507 108.223C206.288 107.749 207.129 107.38 208.008 107.128C206.666 108.386 205.053 109.318 203.293 109.851H203.305Z" fill="#263238"/>
<path d="M199.147 105.85C199.405 104.973 199.77 104.132 200.236 103.346C200.682 102.544 201.231 101.804 201.868 101.143C201.615 102.021 201.249 102.863 200.78 103.647C200.333 104.448 199.784 105.189 199.147 105.85Z" fill="#263238"/>
<path d="M360.121 270.464H169.188L142.073 119.735H333.013L360.121 270.464Z" fill="#2F4153"/>
<path d="M208.24 211.876C212.623 211.876 216.176 208.32 216.176 203.932C216.176 199.545 212.623 195.988 208.24 195.988C203.858 195.988 200.305 199.545 200.305 203.932C200.305 208.32 203.858 211.876 208.24 211.876Z" fill="#EBEBEB"/>
<path d="M270.974 211.876C275.356 211.876 278.909 208.32 278.909 203.932C278.909 199.545 275.356 195.988 270.974 195.988C266.591 195.988 263.038 199.545 263.038 203.932C263.038 208.32 266.591 211.876 270.974 211.876Z" fill="#EBEBEB"/>
<path d="M251.007 213.147L250.569 212.315C250.531 212.24 246.429 204.652 238.181 204.652C230.677 204.652 228.801 211.795 228.751 212.102L228.526 213.009L226.706 212.571L226.925 211.657C226.925 211.57 229.164 202.774 238.181 202.774C247.561 202.774 252.045 211.088 252.232 211.444L252.67 212.271L251.007 213.147Z" fill="#EBEBEB"/>
<path d="M196.558 59.6701C196.259 62.5454 195.167 65.2808 193.405 67.571C191.642 69.8613 189.279 71.6163 186.578 72.6402C183.878 73.664 180.946 73.9166 178.11 73.3695C175.275 72.8224 172.647 71.4974 170.52 69.5421L162.722 70.6877L166.624 63.9394C165.731 61.7436 165.351 59.3732 165.511 57.008C165.67 54.6429 166.366 52.3454 167.546 50.2899C168.726 48.2344 170.358 46.4751 172.318 45.1456C174.279 43.816 176.516 42.9512 178.86 42.6169C181.205 42.2825 183.594 42.4874 185.848 43.216C188.101 43.9445 190.159 45.1776 191.865 46.8215C193.571 48.4654 194.881 50.4769 195.694 52.7033C196.507 54.9296 196.803 57.3122 196.558 59.6701Z" fill="white"/>
<path d="M196.559 59.6699C196.265 62.5438 195.183 65.2802 193.432 67.5763C192.576 68.7376 191.545 69.7578 190.374 70.5999C189.229 71.4736 187.966 72.1797 186.622 72.697C185.278 73.227 183.865 73.5642 182.426 73.6986C181.707 73.7632 180.984 73.7779 180.263 73.7424C179.539 73.7238 178.817 73.6484 178.105 73.5171C175.231 72.9877 172.561 71.6676 170.395 69.7047L170.576 69.7611L162.791 70.9567L162.222 71.0443L162.509 70.5436L166.386 63.7828V64.0519C165.472 61.8156 165.083 59.3987 165.25 56.9879C165.417 54.5771 166.135 52.237 167.349 50.1485C168.562 48.0665 170.23 46.286 172.227 44.9402C174.221 43.6121 176.49 42.7533 178.862 42.4281C181.235 42.1028 183.651 42.3196 185.928 43.0622C188.181 43.8295 190.234 45.0914 191.938 46.7556C193.637 48.4155 194.936 50.4412 195.737 52.6789C196.538 54.9165 196.819 57.3073 196.559 59.6699ZM196.559 59.6699C196.811 57.319 196.521 54.9413 195.71 52.7206C194.899 50.4998 193.589 48.4953 191.881 46.8619C190.173 45.2285 188.113 44.0098 185.86 43.2999C183.607 42.5901 181.221 42.4081 178.887 42.7679C176.576 43.1104 174.374 43.9799 172.452 45.3095C170.547 46.6495 168.955 48.3882 167.787 50.4051C166.637 52.4265 165.96 54.6823 165.805 57.0032C165.653 59.3398 166.029 61.6807 166.905 63.8516L166.962 63.9893L166.887 64.1208L162.96 70.8566L162.684 70.4434L170.489 69.3479H170.595L170.67 69.4168C172.756 71.3605 175.341 72.6848 178.136 73.2416C178.833 73.3837 179.54 73.4695 180.25 73.4983C180.96 73.5483 181.673 73.5483 182.382 73.4983C183.806 73.3834 185.207 73.0738 186.547 72.5781C187.89 72.0887 189.154 71.4054 190.299 70.5498C191.465 69.7145 192.498 68.7078 193.363 67.5638C195.137 65.2788 196.243 62.5464 196.559 59.6699Z" fill="#263238"/>
<path d="M173.44 65.3226C173.428 65.1154 173.459 64.9079 173.53 64.713C173.602 64.5181 173.712 64.34 173.855 64.1897C173.998 64.0394 174.171 63.9202 174.362 63.8394C174.553 63.7586 174.758 63.718 174.966 63.7201C175.39 63.7201 175.798 63.8889 176.098 64.1894C176.398 64.49 176.567 64.8976 176.567 65.3226C176.567 65.7477 176.398 66.1553 176.098 66.4558C175.798 66.7563 175.39 66.9252 174.966 66.9252C174.758 66.9273 174.553 66.8866 174.362 66.8058C174.171 66.725 173.998 66.6058 173.855 66.4555C173.712 66.3053 173.602 66.1272 173.53 65.9323C173.459 65.7374 173.428 65.5299 173.44 65.3226ZM174.065 61.623L173.703 49.2031H176.204L175.841 61.623H174.065Z" fill="#2F4153"/>
<path d="M179.387 65.3226C179.375 65.1159 179.406 64.9089 179.477 64.7145C179.548 64.52 179.658 64.3422 179.801 64.192C179.943 64.0418 180.115 63.9225 180.305 63.8413C180.495 63.7601 180.7 63.7189 180.907 63.7201C181.331 63.7201 181.739 63.8889 182.039 64.1894C182.339 64.49 182.508 64.8976 182.508 65.3226C182.508 65.7477 182.339 66.1553 182.039 66.4558C181.739 66.7563 181.331 66.9252 180.907 66.9252C180.7 66.9264 180.495 66.8851 180.305 66.804C180.115 66.7228 179.943 66.6034 179.801 66.4532C179.658 66.3031 179.548 66.1252 179.477 65.9308C179.406 65.7363 179.375 65.5293 179.387 65.3226ZM180.013 61.623L179.669 49.2031H182.17L181.807 61.623H180.013Z" fill="#2F4153"/>
<path d="M185.328 65.3226C185.316 65.1154 185.346 64.9079 185.418 64.713C185.489 64.5181 185.6 64.34 185.743 64.1897C185.886 64.0394 186.059 63.9202 186.25 63.8394C186.441 63.7586 186.646 63.718 186.854 63.7201C187.278 63.7201 187.685 63.8889 187.986 64.1894C188.286 64.49 188.454 64.8976 188.454 65.3226C188.454 65.7477 188.286 66.1553 187.986 66.4558C187.685 66.7563 187.278 66.9252 186.854 66.9252C186.646 66.9273 186.441 66.8866 186.25 66.8058C186.059 66.725 185.886 66.6058 185.743 66.4555C185.6 66.3053 185.489 66.1272 185.418 65.9323C185.346 65.7374 185.316 65.5299 185.328 65.3226ZM185.953 61.623L185.59 49.2031H188.092L187.735 61.623H185.953Z" fill="#2F4153"/>
</svg>
