<svg width="250" height="250" viewBox="0 0 250 250" fill="none" xmlns="http://www.w3.org/2000/svg">
<path d="M224.95 199.245H208.39V199.37H224.95V199.245Z" fill="#EBEBEB"/>
<path d="M165.61 200.605H161.265V200.73H165.61V200.605Z" fill="#EBEBEB"/>
<path d="M207.89 194.605H198.295V194.73H207.89V194.605Z" fill="#EBEBEB"/>
<path d="M47.825 195.445H26.23V195.57H47.825V195.445Z" fill="#EBEBEB"/>
<path d="M55.445 195.445H52.28V195.57H55.445V195.445Z" fill="#EBEBEB"/>
<path d="M112.575 197.555H65.7351V197.68H112.575V197.555Z" fill="#EBEBEB"/>
<path d="M118.5 168.9H21.96C21.2028 168.9 20.4766 168.599 19.9412 168.064C19.4058 167.528 19.105 166.802 19.105 166.045V30.33C19.1116 29.5771 19.4153 28.8574 19.95 28.3274C20.4847 27.7973 21.2071 27.5 21.96 27.5H118.5C119.257 27.5 119.983 27.8008 120.519 28.3362C121.054 28.8716 121.355 29.5978 121.355 30.355V166.045C121.355 166.802 121.054 167.528 120.519 168.064C119.983 168.599 119.257 168.9 118.5 168.9ZM21.96 27.6C21.2363 27.6013 20.5427 27.8894 20.031 28.4011C19.5194 28.9127 19.2313 29.6064 19.23 30.33V166.045C19.2313 166.769 19.5194 167.462 20.031 167.974C20.5427 168.486 21.2363 168.774 21.96 168.775H118.5C119.224 168.774 119.917 168.486 120.429 167.974C120.941 167.462 121.229 166.769 121.23 166.045V30.33C121.229 29.6064 120.941 28.9127 120.429 28.4011C119.917 27.8894 119.224 27.6013 118.5 27.6H21.96Z" fill="#EBEBEB"/>
<path d="M226.655 168.9H130.105C129.348 168.899 128.623 168.597 128.088 168.062C127.553 167.527 127.251 166.802 127.25 166.045V30.33C127.258 29.5776 127.562 28.8585 128.096 28.3288C128.631 27.7991 129.353 27.5013 130.105 27.5H226.655C227.406 27.5026 228.126 27.8011 228.659 28.3309C229.191 28.8606 229.493 29.5789 229.5 30.33V166.045C229.5 166.8 229.201 167.525 228.667 168.06C228.134 168.595 227.41 168.897 226.655 168.9ZM130.105 27.6C129.381 27.6013 128.688 27.8894 128.176 28.4011C127.664 28.9127 127.376 29.6064 127.375 30.33V166.045C127.376 166.769 127.664 167.462 128.176 167.974C128.688 168.486 129.381 168.774 130.105 168.775H226.655C227.379 168.774 228.072 168.486 228.584 167.974C229.096 167.462 229.384 166.769 229.385 166.045V30.33C229.384 29.6064 229.096 28.9127 228.584 28.4011C228.072 27.8894 227.379 27.6013 226.655 27.6H130.105Z" fill="#EBEBEB"/>
<path d="M250 191.2H0V191.325H250V191.2Z" fill="#EBEBEB"/>
<path d="M89.3451 48.135H28.9451V191.5H89.3451V48.135Z" fill="#EBEBEB"/>
<path d="M86.775 50.7351H31.51V191.505H86.775V50.7351Z" fill="#F5F5F5"/>
<path d="M57.8501 69.3049H35.6951V120.86H57.8501V69.3049Z" fill="#FAFAFA"/>
<path d="M82.8901 69.3049H60.7351V120.86H82.8901V69.3049Z" fill="#FAFAFA"/>
<path d="M82.8901 136.45H35.6951V188.005H82.8901V136.45Z" fill="#EBEBEB"/>
<path d="M44.3351 54.47H74.2501C76.5415 54.47 78.7392 55.3803 80.3595 57.0006C81.9798 58.6209 82.8901 60.8185 82.8901 63.11V66.635H35.6951V63.11C35.6951 61.9753 35.9185 60.8518 36.3527 59.8036C36.7869 58.7553 37.4234 57.8029 38.2257 57.0006C39.028 56.1983 39.9804 55.5619 41.0287 55.1277C42.0769 54.6935 43.2004 54.47 44.3351 54.47Z" fill="#FAFAFA"/>
<path d="M39.7251 123.18H35.6951V133.68H39.7251V123.18Z" fill="#E6E6E6"/>
<path d="M39.7249 133.68H40.5149V123.18H39.7249V133.68Z" fill="#E0E0E0"/>
<path d="M38.39 127.305C38.39 127.641 38.2903 127.97 38.1035 128.249C37.9167 128.529 37.6512 128.747 37.3406 128.876C37.0299 129.004 36.6881 129.038 36.3583 128.972C36.0286 128.907 35.7257 128.745 35.4879 128.507C35.2502 128.269 35.0883 127.966 35.0227 127.637C34.9571 127.307 34.9907 126.965 35.1194 126.654C35.2481 126.344 35.466 126.078 35.7455 125.891C36.0251 125.705 36.3538 125.605 36.69 125.605C37.1409 125.605 37.5733 125.784 37.8921 126.103C38.2109 126.422 38.39 126.854 38.39 127.305Z" fill="#E0E0E0"/>
<path d="M38.0649 130.24H37.1899V132.365H38.0649V130.24Z" fill="#E0E0E0"/>
<path d="M35.1951 129.68C36.5067 129.68 37.5701 128.617 37.5701 127.305C37.5701 125.993 36.5067 124.93 35.1951 124.93C33.8834 124.93 32.8201 125.993 32.8201 127.305C32.8201 128.617 33.8834 129.68 35.1951 129.68Z" fill="#EBEBEB"/>
<path d="M148.205 50.6951H129.67V74.7701H148.205V50.6951Z" fill="#F5F5F5"/>
<path d="M146.775 52.5449H131.095V72.9199H146.775V52.5449Z" fill="#EBEBEB"/>
<path d="M145.795 53.8201H132.075V71.6451H145.795V53.8201Z" fill="#FAFAFA"/>
<path d="M165.31 78.0049H146.775V93.7999H165.31V78.0049Z" fill="#EBEBEB"/>
<path d="M163.885 79.22H148.205V92.585H163.885V79.22Z" fill="#F5F5F5"/>
<path d="M162.905 80.0549H149.185V91.7499H162.905V80.0549Z" fill="#FAFAFA"/>
<path d="M167.955 73.41V60.665H151.395V73.41H167.955Z" fill="#E6E6E6"/>
<path d="M166.685 72.43V61.645H152.675V72.43H166.685Z" fill="#F0F0F0"/>
<path d="M165.805 71.7551V62.3201H153.55V71.7551H165.805Z" fill="#EBEBEB"/>
<path d="M216.59 183.14C216.59 186.52 217.12 188.71 218.01 190.11C218.352 190.625 218.818 191.045 219.365 191.333C219.912 191.622 220.522 191.768 221.14 191.76H226.035C226.653 191.769 227.264 191.623 227.811 191.335C228.358 191.046 228.823 190.625 229.165 190.11C230.06 188.71 230.59 186.52 230.59 183.14C230.59 178.24 228.45 174.315 227.755 171.18C227.5 170.05 228.34 166.59 228.34 166.59H218.84C218.84 166.59 219.675 170.05 219.425 171.18C218.725 174.315 216.59 178.24 216.59 183.14Z" fill="#E6E6E6"/>
<path d="M200.41 163.3C200.41 159.045 207.085 160.8 208.765 154.205C209.405 151.705 203.975 146.04 203.975 146.04H220.9C220.9 146.04 215.47 151.705 216.11 154.205C217.79 160.81 224.465 159.045 224.465 163.3C224.465 167.99 215.05 177.75 214.595 188.74C214.555 189.74 216.365 191.74 216.365 191.74H208.5C208.5 191.74 210.31 189.705 210.27 188.74C209.825 177.75 200.41 168 200.41 163.3Z" fill="#F0F0F0"/>
<path d="M205.525 174.36C204.525 172.295 206.575 165.26 206.575 165.26H199.24C199.24 165.26 201.275 172.295 200.29 174.36C199.6 175.82 198.02 176.755 198.02 178.485V188.87C198.02 191.56 200.22 191.76 202.91 191.76C205.6 191.76 207.8 191.56 207.8 188.87V178.5C207.8 176.755 206.22 175.82 205.525 174.36Z" fill="#E6E6E6"/>
<path d="M122.59 211.855C176.131 211.855 219.535 209.321 219.535 206.195C219.535 203.069 176.131 200.535 122.59 200.535C69.0488 200.535 25.645 203.069 25.645 206.195C25.645 209.321 69.0488 211.855 122.59 211.855Z" fill="#F5F5F5"/>
<path d="M148.45 189L137.5 164.725H111.9L115.83 187.44C115.881 187.733 115.867 188.033 115.79 188.32C115.713 188.607 115.575 188.874 115.385 189.103C115.195 189.331 114.957 189.515 114.689 189.642C114.42 189.77 114.127 189.837 113.83 189.84H102.59C102.302 189.84 102.026 189.954 101.823 190.158C101.619 190.361 101.505 190.637 101.505 190.925V192.135C101.505 192.423 101.619 192.699 101.823 192.902C102.026 193.106 102.302 193.22 102.59 193.22H147.66C147.973 193.22 148.273 193.096 148.494 192.874C148.716 192.653 148.84 192.353 148.84 192.04V190.785C148.837 190.169 148.704 189.561 148.45 189ZM136.595 186H124.305C123.917 186.001 123.542 185.864 123.245 185.614C122.948 185.364 122.75 185.017 122.685 184.635L120.83 173.92C120.789 173.684 120.8 173.441 120.863 173.209C120.926 172.978 121.039 172.762 121.194 172.579C121.349 172.396 121.542 172.248 121.76 172.147C121.978 172.046 122.215 171.995 122.455 171.995H131.75C132.066 171.995 132.376 172.086 132.642 172.257C132.907 172.429 133.119 172.672 133.25 172.96L138.095 183.675C138.207 183.926 138.255 184.201 138.235 184.475C138.214 184.749 138.125 185.014 137.976 185.245C137.827 185.476 137.622 185.666 137.381 185.798C137.14 185.93 136.87 185.999 136.595 186Z" fill="#2F4153"/>
<path opacity="0.2" d="M148.45 189L137.5 164.725H111.9L115.83 187.44C115.881 187.733 115.867 188.033 115.79 188.32C115.713 188.607 115.575 188.874 115.385 189.103C115.195 189.331 114.957 189.515 114.689 189.642C114.42 189.77 114.127 189.837 113.83 189.84H102.59C102.302 189.84 102.026 189.954 101.823 190.158C101.619 190.361 101.505 190.637 101.505 190.925V192.135C101.505 192.423 101.619 192.699 101.823 192.902C102.026 193.106 102.302 193.22 102.59 193.22H147.66C147.973 193.22 148.273 193.096 148.494 192.874C148.716 192.653 148.84 192.353 148.84 192.04V190.785C148.837 190.169 148.704 189.561 148.45 189ZM136.595 186H124.305C123.917 186.001 123.542 185.864 123.245 185.614C122.948 185.364 122.75 185.017 122.685 184.635L120.83 173.92C120.789 173.684 120.8 173.441 120.863 173.209C120.926 172.978 121.039 172.762 121.194 172.579C121.349 172.396 121.542 172.248 121.76 172.147C121.978 172.046 122.215 171.995 122.455 171.995H131.75C132.066 171.995 132.376 172.086 132.642 172.257C132.907 172.429 133.119 172.672 133.25 172.96L138.095 183.675C138.207 183.926 138.255 184.201 138.235 184.475C138.214 184.749 138.125 185.014 137.976 185.245C137.827 185.476 137.622 185.666 137.381 185.798C137.14 185.93 136.87 185.999 136.595 186Z" fill="white"/>
<path d="M123.9 171.97H122.455C122.215 171.969 121.978 172.021 121.76 172.122C121.542 172.223 121.349 172.37 121.194 172.554C121.039 172.737 120.926 172.952 120.863 173.184C120.8 173.416 120.789 173.658 120.83 173.895L122.685 184.61C122.75 184.992 122.948 185.339 123.245 185.589C123.542 185.839 123.917 185.976 124.305 185.975H125.755C125.367 185.976 124.992 185.839 124.695 185.589C124.398 185.339 124.2 184.992 124.135 184.61L122.28 173.895C122.239 173.659 122.25 173.417 122.313 173.185C122.376 172.954 122.488 172.739 122.642 172.556C122.797 172.372 122.989 172.225 123.206 172.124C123.424 172.023 123.66 171.97 123.9 171.97Z" fill="#2F4153"/>
<path d="M149.9 189L138.94 164.745H137.5L148.45 189C148.707 189.567 148.839 190.183 148.84 190.805V192.06C148.84 192.215 148.809 192.369 148.75 192.512C148.691 192.655 148.604 192.785 148.494 192.895C148.385 193.004 148.255 193.091 148.112 193.15C147.968 193.21 147.815 193.24 147.66 193.24H149.11C149.265 193.24 149.418 193.21 149.562 193.15C149.705 193.091 149.835 193.004 149.944 192.895C150.054 192.785 150.141 192.655 150.2 192.512C150.259 192.369 150.29 192.215 150.29 192.06V190.805C150.289 190.183 150.156 189.567 149.9 189Z" fill="#2F4153"/>
<g opacity="0.2">
<path d="M123.9 171.97H122.455C122.215 171.97 121.978 172.022 121.76 172.122C121.542 172.223 121.349 172.371 121.194 172.554C121.039 172.738 120.926 172.953 120.863 173.184C120.8 173.416 120.789 173.659 120.83 173.895L122.685 184.61C122.75 184.993 122.948 185.339 123.245 185.589C123.542 185.839 123.917 185.976 124.305 185.975H125.755C125.367 185.976 124.992 185.839 124.695 185.589C124.398 185.339 124.2 184.993 124.135 184.61L122.28 173.895C122.239 173.659 122.25 173.417 122.313 173.186C122.376 172.954 122.488 172.739 122.642 172.556C122.797 172.373 122.989 172.225 123.206 172.124C123.424 172.023 123.66 171.97 123.9 171.97Z" fill="black"/>
<path d="M149.9 189L138.94 164.745H137.5L148.45 189C148.707 189.567 148.839 190.183 148.84 190.805V192.06C148.84 192.215 148.809 192.369 148.75 192.512C148.691 192.655 148.604 192.785 148.494 192.895C148.385 193.004 148.255 193.091 148.112 193.15C147.968 193.21 147.815 193.24 147.66 193.24H149.11C149.265 193.24 149.418 193.21 149.562 193.15C149.705 193.091 149.835 193.004 149.944 192.895C150.054 192.785 150.141 192.655 150.2 192.512C150.259 192.369 150.29 192.215 150.29 192.06V190.805C150.289 190.183 150.156 189.567 149.9 189Z" fill="black"/>
</g>
<path opacity="0.2" d="M137.49 164.725H111.89L112.895 170.52H140.11L137.49 164.725Z" fill="black"/>
<path d="M174.215 167.27H64.9999C64.4879 167.28 63.9798 167.18 63.5095 166.977C63.0392 166.775 62.6177 166.474 62.273 166.095C61.9284 165.717 61.6686 165.269 61.5112 164.781C61.3537 164.294 61.3021 163.779 61.3599 163.27L68.2599 84.35C68.3687 83.2669 68.8712 82.2614 69.672 81.5241C70.4729 80.7868 71.5165 80.369 72.6049 80.35H181.82C182.332 80.3403 182.84 80.4401 183.31 80.6427C183.781 80.8453 184.202 81.1461 184.547 81.5248C184.891 81.9035 185.151 82.3515 185.309 82.8387C185.466 83.326 185.518 83.8412 185.46 84.35L178.555 163.275C178.446 164.357 177.944 165.361 177.144 166.097C176.344 166.834 175.302 167.251 174.215 167.27Z" fill="#2F4153"/>
<path opacity="0.5" d="M174.215 167.27H64.9999C64.4879 167.28 63.9798 167.18 63.5095 166.977C63.0392 166.775 62.6177 166.474 62.273 166.095C61.9284 165.717 61.6686 165.269 61.5112 164.781C61.3537 164.294 61.3021 163.779 61.3599 163.27L68.2599 84.35C68.3687 83.2669 68.8712 82.2614 69.672 81.5241C70.4729 80.7868 71.5165 80.369 72.6049 80.35H181.82C182.332 80.3403 182.84 80.4401 183.31 80.6427C183.781 80.8453 184.202 81.1461 184.547 81.5248C184.891 81.9035 185.151 82.3515 185.309 82.8387C185.466 83.326 185.518 83.8412 185.46 84.35L178.555 163.275C178.446 164.357 177.944 165.361 177.144 166.097C176.344 166.834 175.302 167.251 174.215 167.27Z" fill="white"/>
<path d="M62.1 154.745L61.355 163.275C61.2972 163.784 61.3488 164.299 61.5063 164.786C61.6638 165.274 61.9235 165.722 62.2682 166.1C62.6128 166.479 63.0344 166.78 63.5046 166.982C63.9749 167.185 64.483 167.285 64.995 167.275H174.215C175.303 167.256 176.346 166.838 177.146 166.101C177.946 165.363 178.447 164.358 178.555 163.275L179.305 154.745H62.1Z" fill="#2F4153"/>
<path opacity="0.7" d="M62.1 154.745L61.355 163.275C61.2972 163.784 61.3488 164.299 61.5063 164.786C61.6638 165.274 61.9235 165.722 62.2682 166.1C62.6128 166.479 63.0344 166.78 63.5046 166.982C63.9749 167.185 64.483 167.285 64.995 167.275H174.215C175.303 167.256 176.346 166.838 177.146 166.101C177.946 165.363 178.447 164.358 178.555 163.275L179.305 154.745H62.1Z" fill="white"/>
<path d="M175.45 152.33H66.3751C66.0978 152.335 65.8226 152.281 65.5678 152.172C65.313 152.062 65.0845 151.899 64.8976 151.695C64.7106 151.49 64.5696 151.247 64.4838 150.983C64.398 150.72 64.3695 150.441 64.4001 150.165L70.1051 84.94C70.1649 84.3536 70.4376 83.8094 70.8716 83.4104C71.3056 83.0115 71.8707 82.7854 72.4601 82.775H181.535C181.812 82.7698 182.088 82.8237 182.342 82.9333C182.597 83.0429 182.826 83.2056 183.013 83.4105C183.2 83.6154 183.341 83.8578 183.426 84.1216C183.512 84.3853 183.541 84.6643 183.51 84.94L177.805 150.165C177.745 150.751 177.473 151.296 177.039 151.695C176.605 152.094 176.039 152.32 175.45 152.33Z" fill="#2F4153"/>
<path opacity="0.8" d="M175.45 152.33H66.3751C66.0978 152.335 65.8226 152.281 65.5678 152.172C65.313 152.062 65.0845 151.899 64.8976 151.695C64.7106 151.49 64.5696 151.247 64.4838 150.983C64.398 150.72 64.3695 150.441 64.4001 150.165L70.1051 84.94C70.1649 84.3536 70.4376 83.8094 70.8716 83.4104C71.3056 83.0115 71.8707 82.7854 72.4601 82.775H181.535C181.812 82.7698 182.088 82.8237 182.342 82.9333C182.597 83.0429 182.826 83.2056 183.013 83.4105C183.2 83.6154 183.341 83.8578 183.426 84.1216C183.512 84.3853 183.541 84.6643 183.51 84.94L177.805 150.165C177.745 150.751 177.473 151.296 177.039 151.695C176.605 152.094 176.039 152.32 175.45 152.33Z" fill="white"/>
<path d="M184.235 80.3649H181.82C182.332 80.3552 182.84 80.455 183.31 80.6576C183.781 80.8602 184.202 81.161 184.547 81.5397C184.892 81.9184 185.151 82.3664 185.309 82.8536C185.466 83.3409 185.518 83.8561 185.46 84.3649L178.555 163.275C178.447 164.358 177.946 165.363 177.146 166.1C176.346 166.838 175.303 167.256 174.215 167.275H176.63C177.718 167.256 178.761 166.838 179.561 166.1C180.361 165.363 180.862 164.358 180.97 163.275L187.875 84.3549C187.931 83.8469 187.879 83.3327 187.72 82.8467C187.562 82.3607 187.302 81.914 186.958 81.5364C186.613 81.1588 186.192 80.859 185.723 80.657C185.253 80.455 184.746 80.3554 184.235 80.3649Z" fill="#2F4153"/>
<path opacity="0.2" d="M184.235 80.3649H181.82C182.332 80.3552 182.84 80.455 183.31 80.6576C183.781 80.8602 184.202 81.161 184.547 81.5397C184.892 81.9184 185.151 82.3664 185.309 82.8536C185.466 83.3409 185.518 83.8561 185.46 84.3649L178.555 163.275C178.447 164.358 177.946 165.363 177.146 166.1C176.346 166.838 175.303 167.256 174.215 167.275H176.63C177.718 167.256 178.761 166.838 179.561 166.1C180.361 165.363 180.862 164.358 180.97 163.275L187.875 84.3549C187.931 83.8469 187.879 83.3327 187.72 82.8467C187.562 82.3607 187.302 81.914 186.958 81.5364C186.613 81.1588 186.192 80.859 185.723 80.657C185.253 80.455 184.746 80.3554 184.235 80.3649Z" fill="white"/>
<path d="M118.385 122.445C118.441 121.78 118.453 121.112 118.42 120.445L121.05 119.05C120.964 118.261 120.824 117.479 120.63 116.71L117.76 116.76C117.363 115.525 116.789 114.355 116.055 113.285L117.74 110.825C117.262 110.215 116.739 109.641 116.175 109.11L113.59 110.585C112.592 109.763 111.481 109.089 110.29 108.585L110.59 105.72C109.844 105.457 109.081 105.248 108.305 105.095L106.69 107.595C106.027 107.504 105.359 107.459 104.69 107.46C104.021 107.46 103.353 107.505 102.69 107.595L101.515 105.095C100.704 105.25 99.9035 105.458 99.12 105.72L98.915 108.585C97.6203 109.098 96.3943 109.77 95.265 110.585L92.935 109.11C92.2792 109.643 91.6563 110.216 91.07 110.825L92.33 113.285C91.4165 114.342 90.6388 115.51 90.015 116.76L87.155 116.71C86.8279 117.471 86.5506 118.253 86.325 119.05L88.71 120.445C88.5619 121.104 88.4567 121.772 88.395 122.445C88.3374 123.11 88.324 123.778 88.355 124.445L85.73 125.835C85.8122 126.624 85.9525 127.406 86.15 128.175L89.02 128.13C89.4146 129.374 89.989 130.553 90.725 131.63L89.035 134.085C89.5145 134.695 90.0393 135.269 90.605 135.8L93.19 134.33C94.1859 135.152 95.2958 135.826 96.485 136.33L96.19 139.195C96.9355 139.458 97.6992 139.667 98.475 139.82L100.09 137.32C100.753 137.409 101.421 137.454 102.09 137.455C102.759 137.452 103.427 137.407 104.09 137.32L105.265 139.82C106.076 139.665 106.876 139.457 107.66 139.195L107.865 136.33C109.159 135.816 110.385 135.144 111.515 134.33L113.84 135.8C114.498 135.269 115.121 134.696 115.705 134.085L114.45 131.63C115.365 130.565 116.143 129.389 116.765 128.13L119.625 128.175C119.954 127.414 120.231 126.633 120.455 125.835L118.07 124.445C118.218 123.786 118.323 123.118 118.385 122.445ZM102.94 127.545C102.287 127.557 101.638 127.43 101.038 127.172C100.437 126.914 99.8988 126.531 99.4582 126.049C99.0176 125.566 98.6851 124.995 98.4828 124.373C98.2805 123.752 98.213 123.095 98.285 122.445C98.4265 121.064 99.0687 119.783 100.09 118.843C101.112 117.904 102.442 117.371 103.83 117.345C104.483 117.333 105.131 117.461 105.731 117.719C106.331 117.977 106.869 118.361 107.31 118.843C107.75 119.326 108.083 119.896 108.285 120.517C108.488 121.139 108.556 121.796 108.485 122.445C108.345 123.826 107.703 125.108 106.681 126.048C105.659 126.988 104.328 127.52 102.94 127.545Z" fill="#2F4153"/>
<path opacity="0.4" d="M118.385 122.445C118.441 121.78 118.453 121.112 118.42 120.445L121.05 119.05C120.964 118.261 120.824 117.479 120.63 116.71L117.76 116.76C117.363 115.525 116.789 114.355 116.055 113.285L117.74 110.825C117.262 110.215 116.739 109.641 116.175 109.11L113.59 110.585C112.592 109.763 111.481 109.089 110.29 108.585L110.59 105.72C109.844 105.457 109.081 105.248 108.305 105.095L106.69 107.595C106.027 107.504 105.359 107.459 104.69 107.46C104.021 107.46 103.353 107.505 102.69 107.595L101.515 105.095C100.704 105.25 99.9035 105.458 99.12 105.72L98.915 108.585C97.6203 109.098 96.3943 109.77 95.265 110.585L92.935 109.11C92.2792 109.643 91.6563 110.216 91.07 110.825L92.33 113.285C91.4165 114.342 90.6388 115.51 90.015 116.76L87.155 116.71C86.8279 117.471 86.5506 118.253 86.325 119.05L88.71 120.445C88.5619 121.104 88.4567 121.772 88.395 122.445C88.3374 123.11 88.324 123.778 88.355 124.445L85.73 125.835C85.8122 126.624 85.9525 127.406 86.15 128.175L89.02 128.13C89.4146 129.374 89.989 130.553 90.725 131.63L89.035 134.085C89.5145 134.695 90.0393 135.269 90.605 135.8L93.19 134.33C94.1859 135.152 95.2958 135.826 96.485 136.33L96.19 139.195C96.9355 139.458 97.6992 139.667 98.475 139.82L100.09 137.32C100.753 137.409 101.421 137.454 102.09 137.455C102.759 137.452 103.427 137.407 104.09 137.32L105.265 139.82C106.076 139.665 106.876 139.457 107.66 139.195L107.865 136.33C109.159 135.816 110.385 135.144 111.515 134.33L113.84 135.8C114.498 135.269 115.121 134.696 115.705 134.085L114.45 131.63C115.365 130.565 116.143 129.389 116.765 128.13L119.625 128.175C119.954 127.414 120.231 126.633 120.455 125.835L118.07 124.445C118.218 123.786 118.323 123.118 118.385 122.445ZM102.94 127.545C102.287 127.557 101.638 127.43 101.038 127.172C100.437 126.914 99.8988 126.531 99.4582 126.049C99.0176 125.566 98.6851 124.995 98.4828 124.373C98.2805 123.752 98.213 123.095 98.285 122.445C98.4265 121.064 99.0687 119.783 100.09 118.843C101.112 117.904 102.442 117.371 103.83 117.345C104.483 117.333 105.131 117.461 105.731 117.719C106.331 117.977 106.869 118.361 107.31 118.843C107.75 119.326 108.083 119.896 108.285 120.517C108.488 121.139 108.556 121.796 108.485 122.445C108.345 123.826 107.703 125.108 106.681 126.048C105.659 126.988 104.328 127.52 102.94 127.545Z" fill="white"/>
<path d="M159.315 106.5C159.358 106.001 159.375 105.5 159.365 105L163.735 102.685C163.654 102.041 163.539 101.402 163.39 100.77L158.615 100.85C158.287 99.9201 157.851 99.0323 157.315 98.205L160.125 94.115C159.725 93.6247 159.297 93.1573 158.845 92.715L154.545 95.165C153.774 94.5599 152.935 94.0465 152.045 93.635L152.545 88.87C151.931 88.6688 151.307 88.5019 150.675 88.37L148 92.5C147.502 92.4444 147.001 92.416 146.5 92.415C145.987 92.4156 145.475 92.444 144.965 92.5L143.015 88.335C142.355 88.4681 141.703 88.635 141.06 88.835L140.72 93.6C139.744 94.0155 138.813 94.5281 137.94 95.13L134.065 92.68C133.535 93.125 133.03 93.59 132.565 94.08L134.655 98.17C133.983 98.9919 133.394 99.8778 132.895 100.815L128.135 100.735C127.88 101.36 127.635 101.995 127.455 102.65L131.42 104.965C131.324 105.461 131.252 105.962 131.205 106.465C131.161 106.974 131.144 107.484 131.155 107.995L126.785 110.31C126.863 110.953 126.978 111.59 127.13 112.22L131.9 112.145C132.229 113.074 132.666 113.962 133.2 114.79L130.39 118.875C130.79 119.367 131.217 119.836 131.67 120.28L135.97 117.825C136.74 118.431 137.579 118.945 138.47 119.355L137.97 124.12C138.581 124.323 139.204 124.49 139.835 124.62L142.5 120.5C142.998 120.555 143.499 120.584 144 120.585C144.513 120.584 145.025 120.556 145.535 120.5L147.49 124.67C148.15 124.539 148.803 124.372 149.445 124.17L149.785 119.405C150.761 118.99 151.692 118.478 152.565 117.875L156.435 120.33C156.965 119.885 157.475 119.42 157.96 118.925L155.865 114.84C156.54 114.021 157.13 113.134 157.625 112.195L162.385 112.27C162.645 111.646 162.872 111.008 163.065 110.36L159.1 108.045C159.2 107.534 159.272 107.019 159.315 106.5ZM144.705 112.5C143.938 112.514 143.176 112.364 142.472 112.06C141.767 111.756 141.136 111.305 140.62 110.736C140.104 110.168 139.716 109.496 139.481 108.765C139.247 108.035 139.171 107.262 139.26 106.5C139.425 104.882 140.178 103.38 141.376 102.28C142.574 101.18 144.134 100.557 145.76 100.53C146.524 100.518 147.281 100.668 147.983 100.971C148.684 101.274 149.313 101.723 149.827 102.287C150.342 102.852 150.73 103.52 150.967 104.246C151.204 104.972 151.283 105.741 151.2 106.5C151.042 108.123 150.293 109.631 149.095 110.737C147.898 111.843 146.335 112.471 144.705 112.5Z" fill="#2F4153"/>
<path opacity="0.3" d="M159.315 106.5C159.358 106.001 159.375 105.5 159.365 105L163.735 102.685C163.654 102.041 163.539 101.402 163.39 100.77L158.615 100.85C158.287 99.9201 157.851 99.0323 157.315 98.205L160.125 94.115C159.725 93.6247 159.297 93.1573 158.845 92.715L154.545 95.165C153.774 94.5599 152.935 94.0465 152.045 93.635L152.545 88.87C151.931 88.6688 151.307 88.5019 150.675 88.37L148 92.5C147.502 92.4444 147.001 92.416 146.5 92.415C145.987 92.4156 145.475 92.444 144.965 92.5L143.015 88.335C142.355 88.4681 141.703 88.635 141.06 88.835L140.72 93.6C139.744 94.0155 138.813 94.5281 137.94 95.13L134.065 92.68C133.535 93.125 133.03 93.59 132.565 94.08L134.655 98.17C133.983 98.9919 133.394 99.8778 132.895 100.815L128.135 100.735C127.88 101.36 127.635 101.995 127.455 102.65L131.42 104.965C131.324 105.461 131.252 105.962 131.205 106.465C131.161 106.974 131.144 107.484 131.155 107.995L126.785 110.31C126.863 110.953 126.978 111.59 127.13 112.22L131.9 112.145C132.229 113.074 132.666 113.962 133.2 114.79L130.39 118.875C130.79 119.367 131.217 119.836 131.67 120.28L135.97 117.825C136.74 118.431 137.579 118.945 138.47 119.355L137.97 124.12C138.581 124.323 139.204 124.49 139.835 124.62L142.5 120.5C142.998 120.555 143.499 120.584 144 120.585C144.513 120.584 145.025 120.556 145.535 120.5L147.49 124.67C148.15 124.539 148.803 124.372 149.445 124.17L149.785 119.405C150.761 118.99 151.692 118.478 152.565 117.875L156.435 120.33C156.965 119.885 157.475 119.42 157.96 118.925L155.865 114.84C156.54 114.021 157.13 113.134 157.625 112.195L162.385 112.27C162.645 111.646 162.872 111.008 163.065 110.36L159.1 108.045C159.2 107.534 159.272 107.019 159.315 106.5ZM144.705 112.5C143.938 112.514 143.176 112.364 142.472 112.06C141.767 111.756 141.136 111.305 140.62 110.736C140.104 110.168 139.716 109.496 139.481 108.765C139.247 108.035 139.171 107.262 139.26 106.5C139.425 104.882 140.178 103.38 141.376 102.28C142.574 101.18 144.134 100.557 145.76 100.53C146.524 100.518 147.281 100.668 147.983 100.971C148.684 101.274 149.313 101.723 149.827 102.287C150.342 102.852 150.73 103.52 150.967 104.246C151.204 104.972 151.283 105.741 151.2 106.5C151.042 108.123 150.293 109.631 149.095 110.737C147.898 111.843 146.335 112.471 144.705 112.5Z" fill="white"/>
<path d="M139.6 134.685C139.628 134.352 139.64 134.019 139.635 133.685L142.54 132.145C142.485 131.715 142.405 131.29 142.31 130.875L139.14 130.93C138.919 130.313 138.629 129.722 138.275 129.17L140.14 126.455C139.875 126.129 139.592 125.818 139.29 125.525L136.435 127.15C135.918 126.754 135.358 126.419 134.765 126.15L135.095 122.985C134.689 122.848 134.275 122.735 133.855 122.645L132.075 125.415C131.743 125.377 131.409 125.359 131.075 125.36C130.741 125.359 130.407 125.377 130.075 125.415L128.78 122.645C128.341 122.735 127.907 122.849 127.48 122.985L127.255 126.15C126.607 126.422 125.987 126.757 125.405 127.15L122.805 125.5C122.45 125.795 122.115 126.105 121.805 126.43L123.195 129.145C122.749 129.692 122.359 130.281 122.03 130.905L118.865 130.85C118.695 131.265 118.545 131.69 118.415 132.12L121.05 133.66C120.984 133.991 120.936 134.324 120.905 134.66C120.877 134.993 120.865 135.326 120.87 135.66L117.965 137.195C118.02 137.622 118.097 138.046 118.195 138.465L121.37 138.415C121.588 139.033 121.876 139.624 122.23 140.175L120.365 142.89C120.631 143.215 120.915 143.526 121.215 143.82L124.07 142.19C124.586 142.588 125.146 142.923 125.74 143.19L125.41 146.36C125.815 146.49 126.225 146.605 126.65 146.7L128.43 143.93C128.762 143.966 129.096 143.984 129.43 143.985C129.764 143.984 130.098 143.965 130.43 143.93L131.73 146.7C132.17 146.605 132.6 146.49 133.03 146.36L133.25 143.19C133.899 142.92 134.519 142.585 135.1 142.19L137.67 143.82C138.025 143.525 138.36 143.215 138.67 142.89L137.28 140.175C137.727 139.629 138.119 139.039 138.45 138.415L141.61 138.465C141.784 138.051 141.934 137.627 142.06 137.195L139.425 135.66C139.5 135.338 139.558 135.013 139.6 134.685ZM129.76 140.215C129.053 140.225 128.351 140.085 127.702 139.805C127.052 139.524 126.47 139.108 125.993 138.585C125.516 138.063 125.156 137.445 124.935 136.772C124.715 136.1 124.64 135.389 124.715 134.685C124.868 133.19 125.563 131.803 126.668 130.784C127.773 129.766 129.213 129.186 130.715 129.155C131.423 129.145 132.124 129.285 132.774 129.565C133.423 129.846 134.005 130.262 134.482 130.785C134.959 131.307 135.319 131.925 135.54 132.598C135.76 133.27 135.835 133.981 135.76 134.685C135.607 136.18 134.912 137.567 133.807 138.586C132.702 139.604 131.263 140.184 129.76 140.215Z" fill="#2F4153"/>
<path opacity="0.5" d="M139.6 134.685C139.628 134.352 139.64 134.019 139.635 133.685L142.54 132.145C142.485 131.715 142.405 131.29 142.31 130.875L139.14 130.93C138.919 130.313 138.629 129.722 138.275 129.17L140.14 126.455C139.875 126.129 139.592 125.818 139.29 125.525L136.435 127.15C135.918 126.754 135.358 126.419 134.765 126.15L135.095 122.985C134.689 122.848 134.275 122.735 133.855 122.645L132.075 125.415C131.743 125.377 131.409 125.359 131.075 125.36C130.741 125.359 130.407 125.377 130.075 125.415L128.78 122.645C128.341 122.735 127.907 122.849 127.48 122.985L127.255 126.15C126.607 126.422 125.987 126.757 125.405 127.15L122.805 125.5C122.45 125.795 122.115 126.105 121.805 126.43L123.195 129.145C122.749 129.692 122.359 130.281 122.03 130.905L118.865 130.85C118.695 131.265 118.545 131.69 118.415 132.12L121.05 133.66C120.984 133.991 120.936 134.324 120.905 134.66C120.877 134.993 120.865 135.326 120.87 135.66L117.965 137.195C118.02 137.622 118.097 138.046 118.195 138.465L121.37 138.415C121.588 139.033 121.876 139.624 122.23 140.175L120.365 142.89C120.631 143.215 120.915 143.526 121.215 143.82L124.07 142.19C124.586 142.588 125.146 142.923 125.74 143.19L125.41 146.36C125.815 146.49 126.225 146.605 126.65 146.7L128.43 143.93C128.762 143.966 129.096 143.984 129.43 143.985C129.764 143.984 130.098 143.965 130.43 143.93L131.73 146.7C132.17 146.605 132.6 146.49 133.03 146.36L133.25 143.19C133.899 142.92 134.519 142.585 135.1 142.19L137.67 143.82C138.025 143.525 138.36 143.215 138.67 142.89L137.28 140.175C137.727 139.629 138.119 139.039 138.45 138.415L141.61 138.465C141.784 138.051 141.934 137.627 142.06 137.195L139.425 135.66C139.5 135.338 139.558 135.013 139.6 134.685ZM129.76 140.215C129.053 140.225 128.351 140.085 127.702 139.805C127.052 139.524 126.47 139.108 125.993 138.585C125.516 138.063 125.156 137.445 124.935 136.772C124.715 136.1 124.64 135.389 124.715 134.685C124.868 133.19 125.563 131.803 126.668 130.784C127.773 129.766 129.213 129.186 130.715 129.155C131.423 129.145 132.124 129.285 132.774 129.565C133.423 129.846 134.005 130.262 134.482 130.785C134.959 131.307 135.319 131.925 135.54 132.598C135.76 133.27 135.835 133.981 135.76 134.685C135.607 136.18 134.912 137.567 133.807 138.586C132.702 139.604 131.263 140.184 129.76 140.215Z" fill="white"/>
<path d="M118.835 95.08C118.731 96.1614 118.232 97.1667 117.435 97.9044C116.637 98.642 115.596 99.0605 114.51 99.08C113.998 99.0899 113.49 98.9901 113.021 98.7874C112.551 98.5847 112.13 98.2838 111.786 97.9049C111.442 97.526 111.183 97.0778 111.027 96.5906C110.871 96.1033 110.821 95.5883 110.88 95.08C110.984 93.9986 111.482 92.9933 112.28 92.2557C113.078 91.518 114.119 91.0996 115.205 91.08C115.717 91.0701 116.224 91.1699 116.694 91.3726C117.164 91.5753 117.585 91.8762 117.929 92.2551C118.273 92.634 118.532 93.0822 118.688 93.5695C118.844 94.0567 118.894 94.5718 118.835 95.08Z" fill="#2F4153"/>
<path opacity="0.4" d="M118.835 95.08C118.731 96.1614 118.232 97.1667 117.435 97.9044C116.637 98.642 115.596 99.0605 114.51 99.08C113.998 99.0899 113.49 98.9901 113.021 98.7874C112.551 98.5847 112.13 98.2838 111.786 97.9049C111.442 97.526 111.183 97.0778 111.027 96.5906C110.871 96.1033 110.821 95.5883 110.88 95.08C110.984 93.9986 111.482 92.9933 112.28 92.2557C113.078 91.518 114.119 91.0996 115.205 91.08C115.717 91.0701 116.224 91.1699 116.694 91.3726C117.164 91.5753 117.585 91.8762 117.929 92.2551C118.273 92.634 118.532 93.0822 118.688 93.5695C118.844 94.0567 118.894 94.5718 118.835 95.08Z" fill="white"/>
<path d="M156.925 142.78C156.819 143.861 156.319 144.866 155.521 145.603C154.723 146.341 153.681 146.759 152.595 146.78C152.084 146.789 151.576 146.689 151.107 146.486C150.637 146.283 150.217 145.982 149.873 145.603C149.529 145.224 149.27 144.777 149.114 144.29C148.957 143.803 148.906 143.288 148.965 142.78C149.069 141.699 149.567 140.693 150.365 139.956C151.163 139.218 152.204 138.799 153.29 138.78C153.802 138.77 154.31 138.87 154.78 139.073C155.25 139.275 155.671 139.576 156.015 139.955C156.36 140.334 156.619 140.782 156.776 141.269C156.933 141.756 156.984 142.271 156.925 142.78Z" fill="#2F4153"/>
<path opacity="0.7" d="M156.925 142.78C156.819 143.861 156.319 144.866 155.521 145.603C154.723 146.341 153.681 146.759 152.595 146.78C152.084 146.789 151.576 146.689 151.107 146.486C150.637 146.283 150.217 145.982 149.873 145.603C149.529 145.224 149.27 144.777 149.114 144.29C148.957 143.803 148.906 143.288 148.965 142.78C149.069 141.699 149.567 140.693 150.365 139.956C151.163 139.218 152.204 138.799 153.29 138.78C153.802 138.77 154.31 138.87 154.78 139.073C155.25 139.275 155.671 139.576 156.015 139.955C156.36 140.334 156.619 140.782 156.776 141.269C156.933 141.756 156.984 142.271 156.925 142.78Z" fill="white"/>
<path d="M164.127 133.826C166.643 131.419 166.892 127.597 164.685 125.291C162.477 122.985 158.649 123.068 156.133 125.476C153.618 127.884 153.368 131.705 155.576 134.011C157.783 136.317 161.612 136.234 164.127 133.826Z" fill="#2F4153"/>
<path opacity="0.6" d="M164.127 133.826C166.643 131.419 166.892 127.597 164.685 125.291C162.477 122.985 158.649 123.068 156.133 125.476C153.618 127.884 153.368 131.705 155.576 134.011C157.783 136.317 161.612 136.234 164.127 133.826Z" fill="white"/>
<path d="M91.9536 103.236C95.6219 99.7241 95.9873 94.1525 92.7697 90.7914C89.5521 87.4302 83.9699 87.5522 80.3016 91.0639C76.6332 94.5756 76.2678 100.147 79.4854 103.508C82.703 106.869 88.2852 106.747 91.9536 103.236Z" fill="#2F4153"/>
<path opacity="0.6" d="M91.9536 103.236C95.6219 99.7241 95.9873 94.1525 92.7697 90.7914C89.5521 87.4302 83.9699 87.5522 80.3016 91.0639C76.6332 94.5756 76.2678 100.147 79.4854 103.508C82.703 106.869 88.2852 106.747 91.9536 103.236Z" fill="white"/>
<g opacity="0.3">
<path d="M138.56 82.7749H134.365L119.58 152.335H123.775L138.56 82.7749Z" fill="white"/>
<path d="M115.34 152.335L130.125 82.7749H114.365L99.5801 152.335H115.34Z" fill="white"/>
</g>
<path d="M84.5851 78.885H110C110.045 78.8777 110.085 78.8549 110.114 78.8205C110.143 78.7862 110.159 78.7426 110.159 78.6975C110.159 78.6524 110.143 78.6088 110.114 78.5745C110.085 78.5402 110.045 78.5173 110 78.51H84.5851C84.5406 78.5173 84.5002 78.5402 84.471 78.5745C84.4418 78.6088 84.4258 78.6524 84.4258 78.6975C84.4258 78.7426 84.4418 78.7862 84.471 78.8205C84.5002 78.8549 84.5406 78.8777 84.5851 78.885Z" fill="#2F4153"/>
<path d="M113.67 78.885H118.26C118.304 78.8777 118.345 78.8549 118.374 78.8205C118.403 78.7862 118.419 78.7426 118.419 78.6975C118.419 78.6524 118.403 78.6088 118.374 78.5745C118.345 78.5402 118.304 78.5173 118.26 78.51H113.67C113.626 78.5173 113.585 78.5402 113.556 78.5745C113.527 78.6088 113.511 78.6524 113.511 78.6975C113.511 78.7426 113.527 78.7862 113.556 78.8205C113.585 78.8549 113.626 78.8777 113.67 78.885Z" fill="#2F4153"/>
<path d="M106.415 155.05H131.85C131.894 155.043 131.935 155.02 131.964 154.986C131.993 154.951 132.009 154.908 132.009 154.863C132.009 154.817 131.993 154.774 131.964 154.74C131.935 154.705 131.894 154.682 131.85 154.675H106.415C106.37 154.682 106.33 154.705 106.301 154.74C106.272 154.774 106.256 154.817 106.256 154.863C106.256 154.908 106.272 154.951 106.301 154.986C106.33 155.02 106.37 155.043 106.415 155.05Z" fill="#2F4153"/>
<path d="M135.5 155.05H140.09C140.135 155.043 140.175 155.02 140.204 154.986C140.233 154.951 140.249 154.908 140.249 154.863C140.249 154.817 140.233 154.774 140.204 154.74C140.175 154.705 140.135 154.682 140.09 154.675H135.5C135.456 154.682 135.415 154.705 135.386 154.74C135.357 154.774 135.341 154.817 135.341 154.863C135.341 154.908 135.357 154.951 135.386 154.986C135.415 155.02 135.456 155.043 135.5 155.05Z" fill="#2F4153"/>
<path d="M143.545 126.095C143.546 126.383 143.632 126.663 143.793 126.902C143.953 127.141 144.181 127.326 144.447 127.436C144.713 127.545 145.005 127.573 145.287 127.516C145.569 127.46 145.828 127.321 146.031 127.117C146.234 126.913 146.372 126.654 146.427 126.372C146.483 126.09 146.454 125.798 146.344 125.532C146.233 125.266 146.047 125.04 145.808 124.88C145.569 124.72 145.287 124.635 145 124.635V126.095H143.545Z" fill="#2F4153"/>
<path opacity="0.2" d="M143.545 126.095C143.546 126.383 143.632 126.663 143.793 126.902C143.953 127.141 144.181 127.326 144.447 127.436C144.713 127.545 145.005 127.573 145.287 127.516C145.569 127.46 145.828 127.321 146.031 127.117C146.234 126.913 146.372 126.654 146.427 126.372C146.483 126.09 146.454 125.798 146.344 125.532C146.233 125.266 146.047 125.04 145.808 124.88C145.569 124.72 145.287 124.635 145 124.635V126.095H143.545Z" fill="black"/>
<path d="M143.97 131.04C141.935 133.19 138.075 135.895 135.375 133.375C134.9 132.935 134.18 133.65 134.655 134.095C137.83 137.05 142.225 134.355 144.685 131.755C145.135 131.285 144.42 130.565 143.97 131.04Z" fill="#2F4153"/>
<g opacity="0.6">
<path d="M143.97 131.04C141.935 133.19 138.075 135.895 135.375 133.375C134.9 132.935 134.18 133.65 134.655 134.095C137.83 137.05 142.225 134.355 144.685 131.755C145.135 131.285 144.42 130.565 143.97 131.04Z" fill="black"/>
</g>
<path d="M150.665 125.775C153.265 123.315 155.955 118.92 153 115.75C152.555 115.25 151.84 115.99 152.285 116.465C154.785 119.165 152.095 123.025 149.95 125.06C149.475 125.51 150.19 126.225 150.665 125.775Z" fill="#2F4153"/>
<g opacity="0.6">
<path d="M150.665 125.775C153.265 123.315 155.955 118.92 153 115.75C152.555 115.25 151.84 115.99 152.285 116.465C154.785 119.165 152.095 123.025 149.95 125.06C149.475 125.51 150.19 126.225 150.665 125.775Z" fill="black"/>
</g>
<path d="M144.41 134.585C143.515 138.06 143.555 143.185 147.74 144.335C147.872 144.369 148.013 144.348 148.131 144.279C148.248 144.209 148.333 144.095 148.367 143.962C148.401 143.83 148.381 143.689 148.311 143.572C148.241 143.454 148.127 143.369 147.995 143.335C144.425 142.335 144.645 137.715 145.39 134.835C145.424 134.702 145.403 134.562 145.334 134.444C145.264 134.326 145.15 134.241 145.017 134.207C144.885 134.174 144.744 134.194 144.626 134.264C144.509 134.334 144.424 134.447 144.39 134.58L144.41 134.585Z" fill="#2F4153"/>
<g opacity="0.6">
<path d="M144.41 134.585C143.515 138.06 143.555 143.185 147.74 144.335C147.872 144.369 148.013 144.348 148.131 144.279C148.248 144.209 148.333 144.095 148.367 143.962C148.401 143.83 148.381 143.689 148.311 143.572C148.241 143.454 148.127 143.369 147.995 143.335C144.425 142.335 144.645 137.715 145.39 134.835C145.424 134.702 145.403 134.562 145.334 134.444C145.264 134.326 145.15 134.241 145.017 134.207C144.885 134.174 144.744 134.194 144.626 134.264C144.509 134.334 144.424 134.447 144.39 134.58L144.41 134.585Z" fill="black"/>
</g>
<path d="M153.9 126.33C156.795 125.585 161.435 125.365 162.4 128.935C162.434 129.068 162.519 129.181 162.637 129.251C162.754 129.321 162.895 129.341 163.027 129.307C163.16 129.274 163.274 129.189 163.344 129.071C163.414 128.953 163.434 128.813 163.4 128.68C162.25 124.5 157.125 124.46 153.65 125.35C153.517 125.384 153.404 125.469 153.334 125.587C153.264 125.704 153.244 125.845 153.277 125.977C153.311 126.11 153.396 126.224 153.514 126.294C153.632 126.364 153.772 126.384 153.905 126.35L153.9 126.33Z" fill="#2F4153"/>
<g opacity="0.6">
<path d="M153.9 126.33C156.795 125.585 161.435 125.365 162.4 128.935C162.434 129.068 162.519 129.181 162.637 129.251C162.754 129.321 162.895 129.341 163.027 129.307C163.16 129.274 163.274 129.189 163.344 129.071C163.414 128.953 163.434 128.813 163.4 128.68C162.25 124.5 157.125 124.46 153.65 125.35C153.517 125.384 153.404 125.469 153.334 125.587C153.264 125.704 153.244 125.845 153.277 125.977C153.311 126.11 153.396 126.224 153.514 126.294C153.632 126.364 153.772 126.384 153.905 126.35L153.9 126.33Z" fill="black"/>
</g>
<path d="M143.295 134.785C143.829 135.865 144.537 136.849 145.39 137.7C149.08 141.39 154.585 141.87 157.68 138.775C160.775 135.68 160.3 130.175 156.61 126.48C155.758 125.628 154.774 124.921 153.695 124.385L143.295 134.785Z" fill="#2F4153"/>
<path opacity="0.3" d="M143.295 134.785C143.829 135.865 144.537 136.849 145.39 137.7C149.08 141.39 154.585 141.87 157.68 138.775C160.775 135.68 160.3 130.175 156.61 126.48C155.758 125.628 154.774 124.921 153.695 124.385L143.295 134.785Z" fill="black"/>
<path d="M144.335 133.745L152.655 125.425C150.03 124.13 147.035 124.36 145.155 126.245C143.275 128.13 143.04 131.12 144.335 133.745Z" fill="#2F4153"/>
<path opacity="0.5" d="M144.335 133.745L152.655 125.425C150.03 124.13 147.035 124.36 145.155 126.245C143.275 128.13 143.04 131.12 144.335 133.745Z" fill="black"/>
<path opacity="0.2" d="M143.295 134.785C143.829 135.865 144.537 136.849 145.39 137.7C149.08 141.39 154.585 141.87 157.68 138.775L148.5 129.585L143.295 134.785Z" fill="black"/>
<path d="M136.57 130.125C136.938 129.223 137.482 128.404 138.17 127.715C139.97 125.93 142.17 126.285 144.045 127.75C144.17 127.85 144.35 127.675 144.225 127.575C142.495 126.24 140.42 125.615 138.55 127.04C137.562 127.832 136.796 128.865 136.325 130.04C136.26 130.19 136.51 130.255 136.57 130.105V130.125Z" fill="#263238"/>
<path d="M148.97 117.415C147.794 117.886 146.76 118.654 145.97 119.645C144.545 121.515 145.165 123.585 146.5 125.315C146.6 125.445 146.78 125.265 146.68 125.135C145.22 123.245 144.855 121.055 146.64 119.265C147.331 118.578 148.15 118.032 149.05 117.66C149.2 117.6 149.14 117.355 148.99 117.415H148.97Z" fill="#263238"/>
<path d="M148.605 133.565C148.816 133.774 148.961 134.041 149.02 134.333C149.079 134.624 149.05 134.927 148.937 135.202C148.824 135.477 148.632 135.712 148.385 135.877C148.138 136.043 147.847 136.131 147.55 136.131C147.252 136.131 146.962 136.043 146.715 135.877C146.468 135.712 146.276 135.477 146.162 135.202C146.049 134.927 146.021 134.624 146.08 134.333C146.139 134.041 146.283 133.774 146.495 133.565C146.776 133.287 147.155 133.131 147.55 133.131C147.945 133.131 148.324 133.287 148.605 133.565Z" fill="white"/>
<path d="M154.585 127.585C154.796 127.794 154.941 128.061 155 128.353C155.059 128.644 155.03 128.947 154.917 129.222C154.804 129.497 154.612 129.732 154.365 129.897C154.118 130.063 153.827 130.151 153.53 130.151C153.232 130.151 152.942 130.063 152.695 129.897C152.448 129.732 152.256 129.497 152.142 129.222C152.029 128.947 152.001 128.644 152.06 128.353C152.119 128.061 152.263 127.794 152.475 127.585C152.756 127.307 153.135 127.151 153.53 127.151C153.925 127.151 154.304 127.307 154.585 127.585Z" fill="white"/>
<path d="M153.28 136.805C153.491 137.014 153.636 137.281 153.695 137.573C153.754 137.864 153.725 138.167 153.612 138.442C153.499 138.717 153.307 138.952 153.06 139.117C152.813 139.283 152.522 139.371 152.225 139.371C151.928 139.371 151.637 139.283 151.39 139.117C151.143 138.952 150.951 138.717 150.838 138.442C150.724 138.167 150.696 137.864 150.755 137.573C150.814 137.281 150.958 137.014 151.17 136.805C151.451 136.527 151.83 136.371 152.225 136.371C152.62 136.371 152.999 136.527 153.28 136.805Z" fill="white"/>
<path d="M157.825 132.26C158.036 132.469 158.181 132.736 158.24 133.028C158.299 133.319 158.27 133.621 158.157 133.896C158.044 134.172 157.852 134.407 157.605 134.572C157.358 134.738 157.067 134.826 156.77 134.826C156.473 134.826 156.182 134.738 155.935 134.572C155.688 134.407 155.496 134.172 155.383 133.896C155.27 133.621 155.241 133.319 155.3 133.028C155.359 132.736 155.504 132.469 155.715 132.26C155.996 131.982 156.375 131.826 156.77 131.826C157.165 131.826 157.544 131.982 157.825 132.26Z" fill="white"/>
<path d="M82.895 145.415C82.6486 145.414 82.4074 145.486 82.202 145.622C81.9966 145.759 81.8362 145.953 81.7412 146.18C81.6462 146.408 81.6209 146.658 81.6683 146.9C81.7158 147.142 81.834 147.364 82.0079 147.539C82.1818 147.713 82.4037 147.832 82.6453 147.881C82.8869 147.929 83.1375 147.905 83.3653 147.811C83.5931 147.717 83.7878 147.557 83.9249 147.352C84.0619 147.147 84.135 146.907 84.135 146.66H82.895V145.415Z" fill="#2F4153"/>
<path opacity="0.2" d="M82.895 145.415C82.6486 145.414 82.4074 145.486 82.202 145.622C81.9966 145.759 81.8362 145.953 81.7412 146.18C81.6462 146.408 81.6209 146.658 81.6683 146.9C81.7158 147.142 81.834 147.364 82.0079 147.539C82.1818 147.713 82.4037 147.832 82.6453 147.881C82.8869 147.929 83.1375 147.905 83.3653 147.811C83.5931 147.717 83.7878 147.557 83.9249 147.352C84.0619 147.147 84.135 146.907 84.135 146.66H82.895V145.415Z" fill="black"/>
<path d="M78.6649 145.78C76.8299 144.04 74.5199 140.745 76.6649 138.435C77.0449 138.03 76.4349 137.435 76.0499 137.825C73.5249 140.535 75.8299 144.285 78.0499 146.39C78.4499 146.775 79.0499 146.165 78.6599 145.78H78.6649Z" fill="#2F4153"/>
<g opacity="0.6">
<path d="M78.6649 145.78C76.8299 144.04 74.5199 140.745 76.6649 138.435C77.0449 138.03 76.4349 137.435 76.0499 137.825C73.5249 140.535 75.8299 144.285 78.0499 146.39C78.4499 146.775 79.0499 146.165 78.6599 145.78H78.6649Z" fill="black"/>
</g>
<path d="M83.165 151.5C85.265 153.72 89.02 156 91.73 153.5C92.14 153.12 91.525 152.5 91.12 152.89C88.81 155.04 85.515 152.73 83.775 150.89C83.39 150.485 82.775 151.095 83.165 151.5Z" fill="#2F4153"/>
<g opacity="0.6">
<path d="M83.165 151.5C85.265 153.72 89.02 156 91.73 153.5C92.14 153.12 91.525 152.5 91.12 152.89C88.81 155.04 85.515 152.73 83.775 150.89C83.39 150.485 82.775 151.095 83.165 151.5Z" fill="black"/>
</g>
<path d="M75.6399 146.155C72.6699 145.395 68.2849 145.425 67.3099 149C67.2955 149.055 67.292 149.112 67.2996 149.168C67.3072 149.224 67.3259 149.278 67.3544 149.327C67.383 149.376 67.4209 149.419 67.466 149.454C67.5111 149.488 67.5626 149.513 67.6174 149.528C67.6722 149.542 67.7294 149.545 67.7855 149.538C67.8417 149.53 67.8959 149.512 67.9448 149.483C67.9938 149.454 68.0367 149.417 68.071 149.371C68.1054 149.326 68.1305 149.275 68.1449 149.22C68.9799 146.17 72.9449 146.36 75.4199 146.99C75.4747 147.004 75.5319 147.008 75.588 147C75.6442 146.993 75.6984 146.974 75.7473 146.946C75.7963 146.917 75.8392 146.879 75.8735 146.834C75.9079 146.789 75.933 146.737 75.9474 146.683C75.9619 146.628 75.9654 146.571 75.9577 146.514C75.9501 146.458 75.9315 146.404 75.9029 146.355C75.8744 146.306 75.8364 146.263 75.7913 146.229C75.7462 146.195 75.6947 146.169 75.6399 146.155Z" fill="#2F4153"/>
<g opacity="0.6">
<path d="M75.6399 146.155C72.6699 145.395 68.2849 145.425 67.3099 149C67.2955 149.055 67.292 149.112 67.2996 149.168C67.3072 149.224 67.3259 149.278 67.3544 149.327C67.383 149.376 67.4209 149.419 67.466 149.454C67.5111 149.488 67.5626 149.513 67.6174 149.528C67.6722 149.542 67.7294 149.545 67.7855 149.538C67.8417 149.53 67.8959 149.512 67.9448 149.483C67.9938 149.454 68.0367 149.417 68.071 149.371C68.1054 149.326 68.1305 149.275 68.1449 149.22C68.9799 146.17 72.9449 146.36 75.4199 146.99C75.4747 147.004 75.5319 147.008 75.588 147C75.6442 146.993 75.6984 146.974 75.7473 146.946C75.7963 146.917 75.8392 146.879 75.8735 146.834C75.9079 146.789 75.933 146.737 75.9474 146.683C75.9619 146.628 75.9654 146.571 75.9577 146.514C75.9501 146.458 75.9315 146.404 75.9029 146.355C75.8744 146.306 75.8364 146.263 75.7913 146.229C75.7462 146.195 75.6947 146.169 75.6399 146.155Z" fill="black"/>
</g>
<path d="M82.6898 154.265C83.3248 156.735 83.5148 160.7 80.4648 161.54C80.3541 161.569 80.2595 161.641 80.2018 161.74C80.1442 161.839 80.1281 161.957 80.1573 162.068C80.1865 162.178 80.2585 162.273 80.3574 162.331C80.4563 162.388 80.5741 162.404 80.6848 162.375C84.2548 161.375 84.2898 157.015 83.5298 154.045C83.4952 153.94 83.4218 153.852 83.3245 153.799C83.2273 153.746 83.1135 153.732 83.0064 153.76C82.8993 153.788 82.807 153.856 82.7481 153.95C82.6893 154.044 82.6685 154.156 82.6898 154.265Z" fill="#2F4153"/>
<g opacity="0.6">
<path d="M82.6898 154.265C83.3248 156.735 83.5148 160.7 80.4648 161.54C80.3541 161.569 80.2595 161.641 80.2018 161.74C80.1442 161.839 80.1281 161.957 80.1573 162.068C80.1865 162.178 80.2585 162.273 80.3574 162.331C80.4563 162.388 80.5741 162.404 80.6848 162.375C84.2548 161.375 84.2898 157.015 83.5298 154.045C83.4952 153.94 83.4218 153.852 83.3245 153.799C83.2273 153.746 83.1135 153.732 83.0064 153.76C82.8993 153.788 82.807 153.856 82.7481 153.95C82.6893 154.044 82.6685 154.156 82.6898 154.265Z" fill="black"/>
</g>
<path d="M75.465 145.2C74.5396 145.658 73.6952 146.265 72.965 146.995C69.815 150.145 69.4 154.85 72.05 157.495C74.7 160.14 79.395 159.73 82.55 156.58C83.2811 155.852 83.886 155.007 84.34 154.08L75.465 145.2Z" fill="#2F4153"/>
<path opacity="0.3" d="M75.465 145.2C74.5396 145.658 73.6952 146.265 72.965 146.995C69.815 150.145 69.4 154.85 72.05 157.495C74.7 160.14 79.395 159.73 82.55 156.58C83.2811 155.852 83.886 155.007 84.34 154.08L75.465 145.2Z" fill="black"/>
<path d="M76.355 146.09L83.465 153.2C84.57 150.955 84.375 148.4 82.765 146.79C81.155 145.18 78.6 145 76.355 146.09Z" fill="#2F4153"/>
<path opacity="0.5" d="M76.355 146.09L83.465 153.2C84.57 150.955 84.375 148.4 82.765 146.79C81.155 145.18 78.6 145 76.355 146.09Z" fill="black"/>
<path opacity="0.2" d="M75.465 145.2C74.5396 145.658 73.6952 146.265 72.965 146.995C69.815 150.145 69.4 154.85 72.05 157.495L79.9 149.645L75.465 145.2Z" fill="black"/>
<path d="M79.45 139.455C80.2205 139.771 80.9207 140.236 81.51 140.825C83.01 142.36 82.725 144.22 81.475 145.825C81.39 145.93 81.545 146.085 81.63 145.975C82.77 144.5 83.3 142.73 82.085 141.13C81.4026 140.284 80.5141 139.628 79.505 139.225C79.375 139.175 79.32 139.385 79.45 139.435V139.455Z" fill="#263238"/>
<path d="M90.3099 150.05C89.9079 149.04 89.2517 148.151 88.4049 147.47C86.8049 146.255 85.0349 146.785 83.5599 147.925C83.4499 148.01 83.5999 148.165 83.7099 148.08C85.3299 146.83 87.2099 146.52 88.7099 148.045C89.2956 148.636 89.7609 149.336 90.0799 150.105C90.1299 150.235 90.3399 150.18 90.2899 150.05H90.3099Z" fill="#263238"/>
<path d="M76.4998 149.74C76.3214 149.918 76.0942 150.039 75.847 150.088C75.5997 150.137 75.3435 150.112 75.1107 150.015C74.8779 149.919 74.6789 149.755 74.5389 149.546C74.3989 149.336 74.3242 149.09 74.3242 148.837C74.3242 148.585 74.3989 148.339 74.5389 148.129C74.6789 147.92 74.8779 147.756 75.1107 147.66C75.3435 147.563 75.5997 147.538 75.847 147.587C76.0942 147.636 76.3214 147.757 76.4998 147.935C76.7371 148.175 76.8701 148.5 76.8701 148.837C76.8701 149.175 76.7371 149.5 76.4998 149.74Z" fill="white"/>
<path d="M81.6148 154.85C81.4364 155.028 81.2092 155.149 80.962 155.198C80.7147 155.247 80.4585 155.222 80.2257 155.125C79.9929 155.028 79.7939 154.865 79.6539 154.655C79.5139 154.446 79.4392 154.199 79.4392 153.947C79.4392 153.695 79.5139 153.449 79.6539 153.239C79.7939 153.03 79.9929 152.866 80.2257 152.77C80.4585 152.673 80.7147 152.648 80.962 152.697C81.2092 152.746 81.4364 152.867 81.6148 153.045C81.7335 153.163 81.8277 153.304 81.8919 153.459C81.9561 153.614 81.9892 153.78 81.9892 153.947C81.9892 154.115 81.9561 154.281 81.8919 154.436C81.8277 154.591 81.7335 154.731 81.6148 154.85Z" fill="white"/>
<path d="M73.7399 153.73C73.5617 153.909 73.3346 154.031 73.0871 154.08C72.8397 154.13 72.5831 154.105 72.3499 154.008C72.1166 153.912 71.9172 153.749 71.7769 153.539C71.6367 153.329 71.5618 153.082 71.5618 152.83C71.5618 152.578 71.6367 152.331 71.7769 152.121C71.9172 151.911 72.1166 151.748 72.3499 151.652C72.5831 151.555 72.8397 151.53 73.0871 151.58C73.3346 151.629 73.5617 151.751 73.7399 151.93C73.978 152.169 74.1118 152.493 74.1118 152.83C74.1118 153.167 73.978 153.491 73.7399 153.73Z" fill="white"/>
<path d="M77.6248 157.62C77.4464 157.798 77.2192 157.919 76.972 157.968C76.7247 158.017 76.4685 157.992 76.2357 157.895C76.0029 157.798 75.8039 157.635 75.6639 157.425C75.5239 157.216 75.4492 156.969 75.4492 156.717C75.4492 156.465 75.5239 156.219 75.6639 156.009C75.8039 155.8 76.0029 155.636 76.2357 155.54C76.4685 155.443 76.7247 155.418 76.972 155.467C77.2192 155.516 77.4464 155.637 77.6248 155.815C77.8621 156.055 77.9951 156.38 77.9951 156.717C77.9951 157.055 77.8621 157.379 77.6248 157.62Z" fill="white"/>
<path d="M99.2849 93.5851C99.1242 93.4864 98.9379 93.4375 98.7495 93.4445C98.561 93.4515 98.3789 93.5142 98.226 93.6246C98.0732 93.735 97.9564 93.8881 97.8904 94.0648C97.8245 94.2414 97.8123 94.4336 97.8554 94.6172C97.8985 94.8008 97.995 94.9674 98.1327 95.0963C98.2704 95.2251 98.4431 95.3102 98.6292 95.341C98.8152 95.3718 99.0062 95.3468 99.178 95.2693C99.3499 95.1917 99.4949 95.065 99.5949 94.9051L98.7849 94.4051L99.2849 93.5851Z" fill="#2F4153"/>
<path opacity="0.2" d="M99.2849 93.5851C99.1242 93.4864 98.9379 93.4375 98.7495 93.4445C98.561 93.4515 98.3789 93.5142 98.226 93.6246C98.0732 93.735 97.9564 93.8881 97.8904 94.0648C97.8245 94.2414 97.8123 94.4336 97.8554 94.6172C97.8985 94.8008 97.995 94.9674 98.1327 95.0963C98.2704 95.2251 98.4431 95.3102 98.6292 95.341C98.8152 95.3718 99.0062 95.3468 99.178 95.2693C99.3499 95.1917 99.4949 95.065 99.5949 94.9051L98.7849 94.4051L99.2849 93.5851Z" fill="black"/>
<path d="M96.3748 92.115C95.8748 90.235 95.6998 87.14 98.0398 86.5C98.4498 86.385 98.2998 85.74 97.8848 85.85C95.1398 86.605 95.1248 89.99 95.7248 92.265C95.8348 92.68 96.4848 92.53 96.3748 92.115Z" fill="#2F4153"/>
<g opacity="0.6">
<path d="M96.3748 92.115C95.8748 90.235 95.6998 87.14 98.0398 86.5C98.4498 86.385 98.2998 85.74 97.8848 85.85C95.1398 86.605 95.1248 89.99 95.7248 92.265C95.8348 92.68 96.4848 92.53 96.3748 92.115Z" fill="black"/>
</g>
<path d="M96.9998 97.675C97.4998 99.98 98.9998 103.005 101.8 102.45C102.22 102.365 102.065 101.715 101.65 101.8C99.2648 102.3 98.0448 99.425 97.6498 97.52C97.5648 97.1 96.9148 97.255 96.9998 97.675Z" fill="#2F4153"/>
<g opacity="0.6">
<path d="M96.9998 97.675C97.4998 99.98 98.9998 103.005 101.8 102.45C102.22 102.365 102.065 101.715 101.65 101.8C99.2648 102.3 98.0448 99.425 97.6498 97.52C97.5648 97.1 96.9148 97.255 96.9998 97.675Z" fill="black"/>
</g>
<path d="M94.2399 91.135C92.6049 89.435 89.7399 87.685 87.6399 89.635C87.3299 89.925 87.7849 90.41 88.0999 90.135C89.8799 88.48 92.3999 90.205 93.7599 91.635C94.0549 91.94 94.5399 91.485 94.2599 91.175L94.2399 91.135Z" fill="#2F4153"/>
<g opacity="0.6">
<path d="M94.2399 91.135C92.6049 89.435 89.7399 87.685 87.6399 89.635C87.3299 89.925 87.7849 90.41 88.0999 90.135C89.8799 88.48 92.3999 90.205 93.7599 91.635C94.0549 91.94 94.5399 91.485 94.2599 91.175L94.2399 91.135Z" fill="black"/>
</g>
<path d="M95.575 99.2901C94.99 101.165 93.51 103.835 91.175 103.15C91.0908 103.124 90.9998 103.133 90.9219 103.174C90.8441 103.215 90.7859 103.286 90.76 103.37C90.7341 103.454 90.7428 103.545 90.784 103.623C90.8253 103.701 90.8958 103.759 90.98 103.785C93.715 104.59 95.51 101.74 96.21 99.4851C96.2228 99.4434 96.2273 99.3996 96.2231 99.3561C96.219 99.3127 96.2064 99.2705 96.1859 99.232C96.1655 99.1935 96.1377 99.1593 96.1041 99.1315C96.0705 99.1037 96.0317 99.0829 95.99 99.0701C95.9058 99.0442 95.8148 99.0528 95.7369 99.0941C95.6591 99.1354 95.6008 99.2058 95.575 99.2901Z" fill="#2F4153"/>
<g opacity="0.6">
<path d="M95.575 99.2901C94.99 101.165 93.51 103.835 91.175 103.15C91.0908 103.124 90.9998 103.133 90.9219 103.174C90.8441 103.215 90.7859 103.286 90.76 103.37C90.7341 103.454 90.7428 103.545 90.784 103.623C90.8253 103.701 90.8958 103.759 90.98 103.785C93.715 104.59 95.51 101.74 96.21 99.4851C96.2228 99.4434 96.2273 99.3996 96.2231 99.3561C96.219 99.3127 96.2064 99.2705 96.1859 99.232C96.1655 99.1935 96.1377 99.1593 96.1041 99.1315C96.0705 99.1037 96.0317 99.0829 95.99 99.0701C95.9058 99.0442 95.8148 99.0528 95.7369 99.0941C95.6591 99.1354 95.6008 99.2058 95.575 99.2901Z" fill="black"/>
</g>
<path d="M94.4999 90.4401C93.7111 90.367 92.9157 90.4227 92.1449 90.6051C88.8049 91.3901 86.6449 94.3001 87.2949 97.1051C87.9449 99.9101 91.1999 101.54 94.5399 100.755C95.3104 100.572 96.0465 100.267 96.7199 99.8501L94.4999 90.4401Z" fill="#2F4153"/>
<path opacity="0.3" d="M94.4999 90.4401C93.7111 90.367 92.9157 90.4227 92.1449 90.6051C88.8049 91.3901 86.6449 94.3001 87.2949 97.1051C87.9449 99.9101 91.1999 101.54 94.5399 100.755C95.3104 100.572 96.0465 100.267 96.7199 99.8501L94.4999 90.4401Z" fill="black"/>
<path d="M94.7349 91.3799L96.4999 98.9099C98.1299 97.9099 99.0399 96.1349 98.6349 94.4099C98.2299 92.6849 96.6499 91.5649 94.7349 91.3799Z" fill="#2F4153"/>
<path opacity="0.5" d="M94.7349 91.3799L96.4999 98.9099C98.1299 97.9099 99.0399 96.1349 98.6349 94.4099C98.2299 92.6849 96.6499 91.5649 94.7349 91.3799Z" fill="black"/>
<path opacity="0.2" d="M94.4999 90.4401C93.7111 90.367 92.9157 90.4227 92.1449 90.6051C88.8049 91.3901 86.6449 94.3001 87.2949 97.1051L95.6099 95.1451L94.4999 90.4401Z" fill="black"/>
<path d="M99.4449 88.2901C99.8213 88.8088 100.091 89.3967 100.24 90.0201C100.615 91.6451 99.6599 92.7351 98.1849 93.2901C98.0899 93.3301 98.1249 93.4901 98.2249 93.4551C99.5699 92.9551 100.635 92.0051 100.485 90.4551C100.382 89.6248 100.065 88.8355 99.5649 88.1651C99.5049 88.0801 99.3849 88.1951 99.4449 88.2801V88.2901Z" fill="#263238"/>
<path d="M102.265 99.615C102.41 98.7927 102.34 97.9468 102.06 97.16C101.51 95.715 100.135 95.35 98.7049 95.495C98.5999 95.495 98.6399 95.67 98.7449 95.66C100.31 95.495 101.655 96.045 102.04 97.66C102.186 98.2846 102.208 98.9319 102.105 99.565C102.105 99.67 102.245 99.715 102.265 99.61V99.615Z" fill="#263238"/>
<path d="M93.36 93.83C93.1668 93.8793 92.9633 93.8698 92.7756 93.8026C92.5879 93.7354 92.4245 93.6137 92.3065 93.453C92.1885 93.2923 92.1213 93.1 92.1133 92.9008C92.1054 92.7016 92.1572 92.5045 92.2621 92.335C92.367 92.1654 92.5202 92.0311 92.702 91.9492C92.8838 91.8674 93.0859 91.8418 93.2824 91.8756C93.4789 91.9095 93.6607 92.0013 93.8046 92.1393C93.9485 92.2773 94.0479 92.4551 94.09 92.65C94.1446 92.9029 94.0991 93.1671 93.963 93.3872C93.8268 93.6072 93.6107 93.766 93.36 93.83Z" fill="white"/>
<path d="M94.6349 99.2399C94.4417 99.2892 94.2382 99.2797 94.0505 99.2125C93.8628 99.1453 93.6995 99.0236 93.5814 98.8629C93.4634 98.7022 93.3962 98.5099 93.3882 98.3107C93.3803 98.1115 93.4321 97.9144 93.537 97.7449C93.6419 97.5753 93.7951 97.441 93.9769 97.3592C94.1587 97.2773 94.3608 97.2517 94.5573 97.2855C94.7538 97.3194 94.9356 97.4112 95.0795 97.5492C95.2234 97.6872 95.3228 97.865 95.3649 98.0599C95.4195 98.3128 95.374 98.5771 95.2379 98.7971C95.1017 99.0171 94.8856 99.1759 94.6349 99.2399Z" fill="white"/>
<path d="M89.9349 95.3199C89.7416 95.3705 89.5376 95.3621 89.3492 95.2957C89.1608 95.2292 88.9966 95.1079 88.8777 94.9473C88.7589 94.7867 88.6909 94.5942 88.6825 94.3946C88.6741 94.195 88.7257 93.9975 88.8306 93.8274C88.9355 93.6574 89.0889 93.5227 89.2711 93.4407C89.4533 93.3587 89.6558 93.3331 89.8527 93.3673C90.0495 93.4014 90.2316 93.4938 90.3755 93.6324C90.5193 93.771 90.6184 93.9495 90.6599 94.1449C90.7132 94.3964 90.6677 94.6588 90.5327 94.8776C90.3977 95.0965 90.1836 95.2548 89.9349 95.3199Z" fill="white"/>
<path d="M90.905 99.435C90.712 99.4853 90.5082 99.4767 90.3201 99.4103C90.1319 99.3439 89.9679 99.2227 89.8492 99.0624C89.7305 98.902 89.6624 98.7098 89.6538 98.5105C89.6451 98.3112 89.6964 98.1138 89.8008 97.9438C89.9053 97.7738 90.0582 97.6389 90.2399 97.5565C90.4216 97.4741 90.6238 97.448 90.8205 97.4814C91.0172 97.5149 91.1994 97.6065 91.3437 97.7443C91.4879 97.8821 91.5877 98.06 91.63 98.255C91.6848 98.5072 91.64 98.7709 91.5049 98.9908C91.3697 99.2107 91.1548 99.3699 90.905 99.435Z" fill="white"/>
<path d="M190.64 131.57C190.64 131.57 189.035 163.76 195.755 175.735C201.69 186.305 210.18 199.085 210.18 199.085L215.59 195.7C215.59 195.7 207.88 177.655 204.55 172.875C202.595 170.075 201.85 165.92 202.745 158.82C203.945 149.32 205.245 138.575 200.51 128.915L190.64 131.57Z" fill="#263238"/>
<path opacity="0.5" d="M194.335 137.37C194.335 137.37 195.065 143.665 191.03 153.75C190.715 148.97 190.635 144.36 190.64 140.825L190.695 140.715L194.335 137.37Z" fill="black"/>
<path d="M214.715 196.315L217.99 201.69L215.03 203.19L211.8 198.475L214.715 196.315Z" fill="#FFC3BD"/>
<path d="M212.71 202.805C212.399 203.059 212.006 203.191 211.605 203.175C211.54 203.147 211.486 203.1 211.448 203.04C211.411 202.98 211.392 202.91 211.395 202.84C211.387 202.718 211.425 202.597 211.5 202.5C211.94 202 213.5 201.915 213.545 201.91C213.564 201.909 213.582 201.914 213.598 201.924C213.614 201.934 213.627 201.948 213.635 201.965C213.645 201.981 213.65 201.999 213.65 202.017C213.65 202.036 213.645 202.054 213.635 202.07C213.349 202.341 213.039 202.587 212.71 202.805ZM211.795 202.51C211.746 202.543 211.7 202.581 211.66 202.625C211.632 202.651 211.611 202.683 211.597 202.718C211.583 202.754 211.577 202.792 211.58 202.83C211.58 202.96 211.635 202.995 211.675 203.005C211.96 203.115 212.77 202.595 213.32 202.13C212.793 202.157 212.276 202.283 211.795 202.5V202.51Z" fill="#2F4153"/>
<path d="M213.62 202.08H213.585C213.085 202.16 211.87 201.965 211.7 201.58C211.65 201.485 211.65 201.335 211.845 201.18C211.914 201.123 211.994 201.081 212.08 201.057C212.166 201.032 212.256 201.024 212.345 201.035C212.97 201.105 213.62 201.915 213.65 201.95C213.658 201.964 213.663 201.981 213.663 201.998C213.663 202.014 213.658 202.031 213.65 202.045C213.643 202.059 213.633 202.071 213.62 202.08ZM212 201.29L211.955 201.315C211.825 201.415 211.85 201.475 211.86 201.5C211.98 201.73 212.86 201.945 213.39 201.925C213.117 201.584 212.745 201.336 212.325 201.215C212.211 201.199 212.095 201.226 212 201.29Z" fill="#2F4153"/>
<path d="M213.67 201.41L217.17 199.13C217.234 199.088 217.311 199.07 217.387 199.077C217.463 199.084 217.535 199.117 217.59 199.17L220.09 201.61C220.142 201.662 220.184 201.724 220.212 201.792C220.241 201.86 220.255 201.934 220.255 202.007C220.255 202.081 220.241 202.155 220.212 202.223C220.184 202.291 220.142 202.353 220.09 202.405L220 202.5C218.72 203.3 217.555 203.96 216 205C214.145 206.21 214.76 206.125 212.6 207.575C211.295 208.45 210.1 207.11 210.6 206.675C212.945 204.675 212.705 203.75 213.1 202.175C213.19 201.859 213.393 201.587 213.67 201.41Z" fill="#263238"/>
<path opacity="0.1" d="M213.98 195.235L215.21 197.25L212.29 199.085L211.215 197.52L213.98 195.235Z" fill="black"/>
<path d="M215.075 193.135L216.275 195.605L210 199.61L208.135 197.43L215.075 193.135Z" fill="#2F4153"/>
<path d="M184.39 130.5C184.39 130.5 169.135 160.375 170.11 172.705C171.085 185.035 175.725 201.205 175.725 201.205L181.79 200.285C181.79 200.285 181.18 183.2 179.18 173.685C178.47 170.3 181.63 163.945 185.39 158.045C190.42 150.155 197.62 141.13 195.315 130.505L184.39 130.5Z" fill="#263238"/>
<path d="M180.4 198.85L181.195 205.095L177.88 205.255L176.855 199.635L180.4 198.85Z" fill="#FFC3BD"/>
<path d="M176 205.555C175.601 205.598 175.2 205.491 174.875 205.255C174.835 205.197 174.813 205.128 174.813 205.057C174.813 204.987 174.835 204.918 174.875 204.86C174.943 204.756 175.046 204.682 175.165 204.65C175.805 204.48 177.135 205.255 177.195 205.29C177.211 205.3 177.223 205.314 177.23 205.331C177.237 205.348 177.239 205.367 177.235 205.385C177.231 205.403 177.222 205.42 177.209 205.434C177.196 205.447 177.179 205.456 177.16 205.46C176.777 205.526 176.389 205.558 176 205.555ZM175.395 204.805C175.339 204.797 175.282 204.797 175.225 204.805C175.187 204.811 175.151 204.826 175.12 204.848C175.088 204.871 175.063 204.901 175.045 204.935C174.975 205.045 175 205.1 175.045 205.13C175.22 205.38 176.185 205.395 176.9 205.315C176.43 205.047 175.912 204.874 175.375 204.805H175.395Z" fill="#2F4153"/>
<path d="M177.14 205.455H177.1C176.645 205.245 175.73 204.41 175.815 203.955C175.815 203.855 175.905 203.73 176.155 203.705C176.245 203.696 176.336 203.706 176.422 203.734C176.508 203.761 176.587 203.806 176.655 203.865C177.155 204.27 177.23 205.305 177.235 205.365C177.238 205.382 177.235 205.398 177.228 205.413C177.221 205.429 177.209 205.441 177.195 205.45C177.187 205.455 177.178 205.458 177.168 205.459C177.159 205.459 177.149 205.458 177.14 205.455ZM176.215 203.9H176.16C176 203.9 175.99 203.975 175.98 204C175.98 204.26 176.555 204.915 177.025 205.2C176.985 204.764 176.81 204.352 176.525 204.02C176.44 203.943 176.329 203.902 176.215 203.905V203.9Z" fill="#2F4153"/>
<path d="M177.55 204.925L181.73 204.96C181.807 204.962 181.881 204.989 181.94 205.038C181.999 205.087 182.039 205.155 182.055 205.23L182.78 208.635C182.797 208.707 182.799 208.782 182.787 208.854C182.775 208.927 182.748 208.997 182.708 209.059C182.669 209.122 182.617 209.176 182.557 209.218C182.496 209.26 182.427 209.29 182.355 209.305H182.24C180.74 209.265 179.39 209.175 177.515 209.16C175.3 209.16 175.86 209.41 173.255 209.425C171.685 209.425 171.415 207.645 172.08 207.565C175.13 207.21 175.455 206.29 176.635 205.21C176.896 205.009 177.221 204.908 177.55 204.925Z" fill="#263238"/>
<path opacity="0.1" d="M180.525 199.835L180.82 202.175L177.405 202.655L177.065 200.79L180.525 199.835Z" fill="black"/>
<path d="M182.3 198.3L182.385 201.045L175.02 202.135L174.21 199.385L182.3 198.3Z" fill="#2F4153"/>
<path d="M182.935 104.115L179.18 98.615C179.18 98.615 179.15 95.78 178.455 94.92C177.76 94.06 177.12 94.805 176.695 94.755C176.135 94.685 175.67 92.985 174.785 94.19C173.9 95.395 173.86 96.555 174.91 97.55L177.01 99.55C178.294 102.29 179.721 104.96 181.285 107.55L182.935 104.115Z" fill="#FFC3BD"/>
<path d="M198.97 84.29C201.988 87.8629 204.763 91.6347 207.275 95.58C211.545 102.395 215.54 110.08 222.455 107.5C235.565 102.57 222.625 72.13 222.625 72.13L220.365 71.585L215.69 73.24L207.11 77.65L201.745 80.885L199.455 82.54L198.97 84.29Z" fill="#2F4153"/>
<path opacity="0.7" d="M198.97 84.29C201.988 87.8629 204.763 91.6347 207.275 95.58C211.545 102.395 215.54 110.08 222.455 107.5C235.565 102.57 222.625 72.13 222.625 72.13L220.365 71.585L215.69 73.24L207.11 77.65L201.745 80.885L199.455 82.54L198.97 84.29Z" fill="white"/>
<path opacity="0.1" d="M226.25 104.525C217.87 110.025 213.825 99.0249 212.165 95.3949C210.165 91.0649 206.165 83.6499 203.93 79.5649L201.745 80.8849L199.455 82.5399L198.955 84.2899C201.973 87.8629 204.748 91.6347 207.26 95.5799C211.53 102.395 215.525 110.08 222.44 107.5C223.993 106.936 225.327 105.895 226.25 104.525Z" fill="black"/>
<path d="M209.795 76.2699C203.265 79.6249 198.425 83.2349 198.985 84.3249C199.545 85.4149 205.3 83.5849 211.83 80.2249C218.36 76.8649 223.205 73.2599 222.64 72.1649C222.075 71.0699 216.33 72.9099 209.795 76.2699Z" fill="#2F4153"/>
<path opacity="0.4" d="M209.795 76.2699C203.265 79.6249 198.425 83.2349 198.985 84.3249C199.545 85.4149 205.3 83.5849 211.83 80.2249C218.36 76.8649 223.205 73.2599 222.64 72.1649C222.075 71.0699 216.33 72.9099 209.795 76.2699Z" fill="white"/>
<path d="M209.4 75.745C206.255 77.37 202.97 78.985 200.17 81.18C199.415 81.77 198.13 82.81 198.085 83.925L193.72 86.17L160.575 103.21C160.17 103.415 160.84 104.71 161.24 104.505L166.085 102.005L198.75 85.21C199.685 85.825 201.28 85.38 202.195 85.11C205.605 84.11 208.85 82.385 211.99 80.77C215.13 79.155 218.425 77.525 221.225 75.33C222.135 74.615 223.855 73.23 223.145 71.83C222.435 70.43 220.315 71.04 219.2 71.365C215.78 72.4 212.555 74.13 209.4 75.745ZM210.07 77.04C211.16 76.48 220.98 71.04 221.83 72.61C222.54 73.92 212.25 79.01 211.33 79.485C210.33 80.01 200.33 85.425 199.6 83.985C198.87 82.545 209.055 77.56 210.07 77.04Z" fill="#2F4153"/>
<path opacity="0.2" d="M210.07 77.04C211.16 76.48 220.98 71.04 221.83 72.61C222.54 73.92 212.25 79.01 211.33 79.485C210.33 80.01 200.33 85.425 199.6 83.985C198.87 82.545 209.055 77.56 210.07 77.04Z" fill="white"/>
<path d="M179.415 85.8C179.415 85.8 176.16 88.875 179.61 90.02L180.555 86.975L179.415 85.8Z" fill="#263238"/>
<path d="M179.04 91.725C179.065 92.045 179.25 92.295 179.46 92.28C179.67 92.265 179.835 91.975 179.805 91.66C179.775 91.345 179.59 91.09 179.38 91.11C179.17 91.13 179 91.4 179.04 91.725Z" fill="#263238"/>
<path d="M180.32 92.05L178.675 94.55C178.966 94.7441 179.299 94.8665 179.647 94.9074C179.994 94.9482 180.347 94.9063 180.675 94.785L180.32 92.05Z" fill="#ED893E"/>
<path d="M193.69 100.76C193.69 100.76 190.925 100.95 190.11 95.9449C190.11 95.9449 187.405 95.2299 186.03 96.9849C184.655 98.7399 188.345 101.66 186.58 103.455C184.815 105.25 193.69 100.76 193.69 100.76Z" fill="#FFC3BD"/>
<path opacity="0.1" d="M187.88 98.75C187.574 99.4741 187.179 100.158 186.705 100.785C186.45 100.165 186.12 99.53 185.915 98.925L187.88 98.75Z" fill="black"/>
<path d="M191.285 88.5999C191.81 92.8649 192.125 94.6649 190.395 97.2249C187.55 100.035 182.43 100.795 180.64 96.7699C179.03 93.1449 178.445 86.7699 182.26 84.3199C182.907 83.9002 183.63 83.6122 184.388 83.4725C185.146 83.3328 185.925 83.3441 186.679 83.5057C187.432 83.6674 188.147 83.9762 188.781 84.4145C189.416 84.8528 189.957 85.4119 190.375 86.0599C190.869 86.8255 191.181 87.6946 191.285 88.5999Z" fill="#FFC3BD"/>
<path d="M178.82 89.22C178.848 89.2216 178.875 89.2302 178.898 89.2451C178.922 89.2599 178.942 89.2806 178.955 89.305C179.056 89.4895 179.2 89.6475 179.373 89.7665C179.547 89.8855 179.746 89.962 179.955 89.99C179.999 89.9937 180.04 90.0138 180.069 90.0463C180.099 90.0787 180.115 90.1211 180.115 90.165C180.114 90.1873 180.108 90.2092 180.098 90.2293C180.089 90.2495 180.075 90.2675 180.058 90.2823C180.041 90.2972 180.022 90.3086 180.001 90.3159C179.98 90.3233 179.957 90.3263 179.935 90.325C179.669 90.2982 179.414 90.2068 179.192 90.0586C178.969 89.9104 178.787 89.71 178.66 89.475C178.648 89.456 178.641 89.435 178.638 89.413C178.634 89.3911 178.635 89.3687 178.641 89.3472C178.647 89.3257 178.657 89.3056 178.67 89.2881C178.684 89.2705 178.701 89.2558 178.72 89.245C178.751 89.2283 178.785 89.2197 178.82 89.22Z" fill="#263238"/>
<path d="M184.545 92C184.545 92 184.085 88.95 182.62 88.22C182.62 88.22 183.25 89.72 181.62 89.4C179.99 89.08 177.955 87.17 179.8 84.69C181.645 82.21 186.245 80.64 189.19 83.49C189.19 83.49 194.23 84.455 193.97 92.215C193.925 93.555 192.58 94.03 192.17 94.885C190.555 98.26 186.895 98.67 186.17 94.995C185.98 93.8426 185.407 92.7877 184.545 92Z" fill="#263238"/>
<path d="M185.065 91.69C185.065 91.69 183.465 91.225 183.065 92.69C183.08 92.705 182.795 90 185.065 91.69Z" fill="#263238"/>
<path d="M193.12 83.9499C193.12 83.9499 191.95 82.7649 190.89 83.8649C190.89 83.8649 191.965 81.3749 193.12 83.9499Z" fill="#263238"/>
<path d="M184.64 91.5C184.37 91.8412 184.171 92.2326 184.055 92.6516C183.938 93.0705 183.906 93.5085 183.96 93.94C184.11 95.095 185.26 95.23 186.115 94.535C186.89 93.905 187.735 92.535 187.15 91.57C187.019 91.3576 186.838 91.1812 186.622 91.0566C186.407 90.9319 186.163 90.863 185.914 90.8561C185.665 90.8491 185.418 90.9043 185.195 91.0168C184.973 91.1292 184.782 91.2953 184.64 91.5Z" fill="#FFC3BD"/>
<path d="M201.06 128.39C200.435 121.935 203.53 108.98 198.67 102.835C195.435 98.7451 182.025 100.89 180.38 104.795C179.51 106.86 182.12 116.89 183.04 120.855C183.54 122.975 184.15 130.955 184.15 130.955C184.15 130.955 188.22 131.79 194.385 131.125C196.59 130.885 198.805 130.955 201.325 130.065C201.325 130.065 201.1 128.805 201.06 128.39Z" fill="#2F4153"/>
<path opacity="0.1" d="M180.23 111.355L182.96 108.16L184.205 107.29C184.205 107.29 183.13 112.5 181.5 115.82C181.025 114.37 180.565 112.84 180.23 111.355Z" fill="black"/>
<path d="M180.86 106.17L173.86 112.57L169.7 103.7L168.755 100.65C168.755 100.65 167.345 99.2499 167.11 98.2599C166.875 97.2699 164.765 99.1548 164.565 99.9648C164.365 100.775 163.32 102.37 164.875 103.255C165.72 103.708 166.474 104.313 167.1 105.04C167.1 105.04 169.97 117.54 172.9 118.04C175.83 118.54 182.82 110.54 182.82 110.54L180.86 106.17Z" fill="#FFC3BD"/>
<path d="M182.22 102.835C182.22 102.835 179.08 103.675 177.51 107.89C177.51 107.89 176.51 107.76 176.13 109.125C177.706 110.644 178.989 112.441 179.915 114.425C180.259 114.346 180.567 114.157 180.793 113.886C181.019 113.615 181.15 113.277 181.165 112.925C181.165 112.925 187.345 106.675 182.22 102.835Z" fill="#2F4153"/>
<path d="M73.21 98.1549L74.71 95.3599C74.71 95.3599 73.905 93.6349 74.285 92.4549C74.665 91.2749 75.42 91.3349 75.645 90.4949C75.87 89.6549 77.03 89.5349 77.03 89.5349C77.03 89.5349 79.705 92.4549 79.16 93.7199C78.615 94.9849 76.915 96.4899 76.915 96.4899L75.355 100.09L73.21 98.1549Z" fill="#FFB573"/>
<path d="M57.375 83.905C57.375 83.905 60.04 83.645 61.79 87.145C63.54 90.645 68.125 100.735 69.54 100.61C70.955 100.485 73.425 96.905 73.425 96.905C73.425 96.905 74.46 96.81 76.21 99.31C76.21 99.31 73.21 105.895 68.54 105.895C64.48 105.895 59.96 97.98 59.96 97.98C59.96 97.98 55.96 87.66 57.375 83.905Z" fill="#263238"/>
<path opacity="0.2" d="M59.385 96.39C59.72 97.365 59.96 97.98 59.96 97.98C60.8417 99.4656 61.8451 100.875 62.96 102.195C61.93 97.56 59.635 90.355 59.635 90.355L59.385 96.39Z" fill="black"/>
<path d="M44.4701 83C45.9701 81.28 45.4701 77.87 45.0401 75.5L49.7451 79.5C49.2701 81.415 49.1901 82.53 51.9451 83.19L55.1801 83.88L56.0151 87.25C56.0151 87.25 54.4701 89.045 53.8451 89.25C53.2201 89.455 49.1801 89.5 49.1801 89.5L46.5501 89.085C46.5501 89.085 43.1801 86.835 43.0951 86.625C42.625 86.0565 42.1243 85.514 41.5951 85L41.3701 83.685L44.0001 83.25C44.1802 83.2213 44.3456 83.1333 44.4701 83Z" fill="#FFB573"/>
<path opacity="0.2" d="M46.9501 77.1199L49.715 79.5199C49.5943 79.9649 49.5157 80.4202 49.48 80.8799C48.425 80.7249 46.775 79.8299 46.55 78.6899C46.5508 78.1414 46.6883 77.6018 46.9501 77.1199Z" fill="black"/>
<path d="M42 71.705C43.055 75.58 43.42 77.24 45.82 78.84C49.435 81.25 53.96 79.1 54.085 74.99C54.195 71.29 52.445 65.555 48.275 64.815C47.3584 64.6496 46.4148 64.7196 45.5326 65.0185C44.6505 65.3175 43.8587 65.8355 43.2315 66.5242C42.6044 67.2128 42.1623 68.0494 41.9469 68.9556C41.7315 69.8618 41.7498 70.8078 42 71.705Z" fill="#FFB573"/>
<path d="M48.4701 71.4299C48.5401 71.7499 48.7601 71.9749 48.9701 71.9299C49.1801 71.8849 49.2951 71.5899 49.2301 71.2699C49.1651 70.9499 48.9351 70.7249 48.7301 70.7699C48.5251 70.8149 48.4201 71.1249 48.4701 71.4299Z" fill="#263238"/>
<path d="M52.08 70.6898C52.15 71.0148 52.37 71.2298 52.58 71.1898C52.79 71.1498 52.905 70.8498 52.84 70.5298C52.775 70.2098 52.545 69.9898 52.34 70.0298C52.135 70.0698 52 70.3698 52.08 70.6898Z" fill="#263238"/>
<path d="M51.085 71.5C51.5231 72.1693 52.0514 72.775 52.655 73.3C52.5154 73.4506 52.3447 73.5688 52.1547 73.6466C51.9647 73.7243 51.76 73.7596 51.555 73.75L51.085 71.5Z" fill="#ED893E"/>
<path d="M51.5 75.845C51.6599 75.8361 51.8187 75.8143 51.975 75.78C51.9998 75.7752 52.0218 75.7611 52.0366 75.7407C52.0515 75.7203 52.058 75.6951 52.055 75.67C52.0527 75.6574 52.0478 75.6454 52.0406 75.6348C52.0335 75.6241 52.0243 75.615 52.0136 75.608C52.0028 75.601 51.9908 75.5962 51.9781 75.594C51.9655 75.5918 51.9525 75.5921 51.94 75.595C51.5442 75.6858 51.1327 75.6824 50.7384 75.5852C50.3441 75.4879 49.9782 75.2995 49.67 75.035C49.6521 75.0171 49.6279 75.0071 49.6025 75.0071C49.5772 75.0071 49.5529 75.0171 49.535 75.035C49.5171 75.0529 49.5071 75.0772 49.5071 75.1025C49.5071 75.1279 49.5171 75.1521 49.535 75.17C49.8013 75.4074 50.1122 75.5894 50.4496 75.7053C50.787 75.8212 51.1441 75.8687 51.5 75.845Z" fill="#263238"/>
<path d="M46.8651 71C46.9066 70.9982 46.9465 70.9832 46.9789 70.9571C47.0113 70.931 47.0345 70.8953 47.0451 70.855C47.1649 70.5675 47.3425 70.3077 47.5671 70.0918C47.7916 69.8759 48.0581 69.7085 48.3501 69.6C48.3745 69.5916 48.3969 69.5785 48.4162 69.5613C48.4355 69.5442 48.4511 69.5233 48.4623 69.5001C48.4734 69.4768 48.4799 69.4516 48.4812 69.4259C48.4826 69.4001 48.4788 69.3743 48.4701 69.35C48.4531 69.3033 48.4185 69.265 48.3736 69.2435C48.3287 69.222 48.2772 69.219 48.2301 69.235C47.8802 69.361 47.5611 69.5599 47.2939 69.8185C47.0267 70.0771 46.8175 70.3895 46.6801 70.735C46.6679 70.7834 46.6752 70.8347 46.7005 70.8777C46.7257 70.9207 46.7669 70.9521 46.8151 70.965C46.8286 70.9807 46.8458 70.9927 46.8651 71Z" fill="#263238"/>
<path d="M52.8151 68.7999C52.8493 68.798 52.8824 68.7874 52.9113 68.769C52.9402 68.7506 52.9639 68.7251 52.9801 68.6949C52.9922 68.6727 52.9998 68.6482 53.0023 68.623C53.0049 68.5978 53.0023 68.5723 52.9949 68.5481C52.9874 68.5238 52.9752 68.5013 52.9589 68.4819C52.9426 68.4625 52.9226 68.4465 52.9001 68.4349C52.6318 68.2818 52.33 68.1972 52.0213 68.1885C51.7126 68.1798 51.4065 68.2472 51.1301 68.3849C51.0875 68.4073 51.0553 68.4455 51.0404 68.4912C51.0255 68.5369 51.0289 68.5867 51.0501 68.6299C51.0743 68.6733 51.1146 68.7054 51.1623 68.7194C51.2099 68.7335 51.2612 68.7282 51.3051 68.7049C51.5246 68.606 51.7642 68.5598 52.0047 68.5703C52.2452 68.5807 52.48 68.6474 52.6901 68.7649C52.727 68.7895 52.7708 68.8018 52.8151 68.7999Z" fill="#263238"/>
<path d="M47.275 121.2C49.005 136.565 53.89 149.7 55.275 159.37C56.625 168.905 55.395 170.225 62.745 199.655L69.05 198.08L64.37 157.27C64.37 157.27 62.37 138.95 60.505 116.395C60.5 116.395 46.87 117.595 47.275 121.2Z" fill="#2F4153"/>
<path opacity="0.1" d="M50.2749 137.79C51.3399 142.32 52.4649 146.545 53.4149 150.415C55.3849 139.985 54.0849 123.855 54.0849 123.855L50.2749 137.79Z" fill="black"/>
<path d="M41.435 118.68C39.39 134.005 40.65 147.925 39.935 157.645C39.2 167.645 38.27 169.81 38.27 200.145H44.77L49.27 157.81C49.27 157.81 52.605 139.48 56.27 117.145C56.265 117.145 41.915 115.085 41.435 118.68Z" fill="#2F4153"/>
<path d="M42.4601 83.5C42.4601 83.5 44.7901 88.33 50.2901 87.83C55.7901 87.33 53.6251 83.5 53.6251 83.5C53.6251 83.5 57.6251 83.165 59.6251 84.665C61.6251 86.165 60.6251 117.5 60.6251 117.5C60.6251 117.5 51.1251 119.5 41.2901 118.33C41.2901 118.33 36.1251 84.83 39.2901 84.165L42.4601 83.5Z" fill="#263238"/>
<path opacity="0.4" d="M39.655 106.315L40.155 90.355L38.365 93.085C38.62 97.13 39.13 101.965 39.655 106.315Z" fill="black"/>
<path d="M39.5 197.965L39.29 204.445L42.705 204.29L43.21 198.425L39.5 197.965Z" fill="#FFB573"/>
<path d="M43.4699 204.425C43.4507 204.425 43.432 204.418 43.4167 204.406C43.4014 204.395 43.3903 204.378 43.3849 204.36C43.3804 204.341 43.3813 204.321 43.3875 204.302C43.3937 204.284 43.4049 204.267 43.4199 204.255C43.4799 204.215 44.7649 203.295 45.4199 203.405C45.5453 203.426 45.6579 203.494 45.7349 203.595C45.7839 203.649 45.815 203.717 45.8239 203.789C45.8329 203.862 45.8193 203.935 45.7849 204C45.4733 204.271 45.073 204.419 44.6599 204.415C44.2644 204.455 43.8661 204.458 43.4699 204.425ZM43.7549 204.27C44.4949 204.27 45.4849 204.18 45.6399 203.905C45.6399 203.87 45.6849 203.815 45.6049 203.705C45.5827 203.673 45.5536 203.647 45.5199 203.628C45.4861 203.609 45.4486 203.598 45.4099 203.595C45.3487 203.585 45.2862 203.585 45.2249 203.595C44.6973 203.727 44.1988 203.956 43.7549 204.27Z" fill="#2F4153"/>
<path d="M43.4201 204.425C43.4052 204.418 43.3926 204.406 43.3838 204.392C43.375 204.378 43.3702 204.362 43.3701 204.345C43.3701 204.295 43.3701 203.23 43.8251 202.765C43.89 202.698 43.9677 202.645 44.0536 202.609C44.1396 202.573 44.2319 202.554 44.3251 202.555C44.5851 202.555 44.6751 202.675 44.6951 202.78C44.8251 203.215 43.9701 204.16 43.5201 204.415C43.5088 204.419 43.4964 204.419 43.4851 204.415C43.4758 204.421 43.465 204.426 43.4538 204.427C43.4425 204.429 43.431 204.428 43.4201 204.425ZM44.2801 202.735C44.1623 202.747 44.0524 202.8 43.9701 202.885C43.714 203.255 43.5763 203.695 43.5751 204.145C44.0301 203.805 44.5751 203.075 44.5301 202.815C44.5301 202.79 44.5001 202.725 44.3351 202.725H44.2801V202.735Z" fill="#2F4153"/>
<path d="M42.9999 203.92L38.7149 204.36C38.6369 204.367 38.5636 204.401 38.5073 204.456C38.4509 204.51 38.4148 204.582 38.4049 204.66L37.9999 208.225C37.9901 208.3 37.9953 208.377 38.0152 208.45C38.035 208.523 38.0692 208.592 38.1157 208.652C38.1621 208.711 38.22 208.762 38.286 208.799C38.3519 208.837 38.4246 208.861 38.4999 208.87H38.6249C40.1649 208.685 41.5299 208.455 43.4549 208.265C45.7249 208.03 45.1749 208.36 47.8449 208.125C49.4549 207.985 49.5649 206.125 48.8749 206.125C45.7149 206.05 45.2949 205.125 43.9749 204.125C43.6872 203.937 43.3391 203.864 42.9999 203.92Z" fill="#263238"/>
<path opacity="0.1" d="M39.4699 198.985L39.3899 201.415L42.9399 201.58L43.1099 199.63L39.4699 198.985Z" fill="black"/>
<path d="M37.5 197.58L37.68 200.405L45.335 200.815L45.905 197.92L37.5 197.58Z" fill="#263238"/>
<path d="M63.6499 197.095L64.8599 203.465L68.1549 202.57L67.3699 196.735L63.6499 197.095Z" fill="#FFB573"/>
<path d="M69.155 202.47C69.1359 202.47 69.1172 202.464 69.1012 202.453C69.0853 202.443 69.0727 202.428 69.0651 202.41C69.0573 202.392 69.0556 202.372 69.0601 202.353C69.0646 202.334 69.0751 202.317 69.09 202.305C69.14 202.26 70.34 201.22 71.02 201.27C71.1474 201.277 71.2672 201.333 71.3551 201.425C71.4087 201.475 71.4457 201.54 71.4609 201.612C71.4761 201.683 71.4689 201.758 71.4401 201.825C71.3201 202.065 70.8401 202.25 70.3601 202.325C69.963 202.406 69.56 202.454 69.155 202.47ZM69.4251 202.285C70.1651 202.235 71.14 202.035 71.27 201.745C71.27 201.71 71.3001 201.65 71.2101 201.55C71.1855 201.52 71.1541 201.496 71.1184 201.48C71.0828 201.465 71.0439 201.458 71.005 201.46C70.9455 201.45 70.8846 201.45 70.825 201.46C70.3104 201.644 69.8354 201.924 69.4251 202.285Z" fill="#2F4153"/>
<path d="M69.105 202.5C69.0895 202.494 69.0759 202.483 69.0654 202.47C69.0549 202.457 69.0479 202.442 69.045 202.425C69.045 202.375 68.94 201.31 69.35 200.805C69.4114 200.73 69.4875 200.669 69.5735 200.626C69.6595 200.582 69.7536 200.556 69.85 200.55C70.11 200.525 70.215 200.635 70.245 200.74C70.41 201.16 69.645 202.18 69.245 202.48H69.205C69.1927 202.494 69.1764 202.503 69.1583 202.507C69.1403 202.51 69.1216 202.508 69.105 202.5ZM69.805 200.735C69.6891 200.757 69.5846 200.819 69.51 200.91C69.2871 201.301 69.1894 201.751 69.23 202.2C69.655 201.82 70.135 201.045 70.06 200.785C70.06 200.785 70.025 200.7 69.855 200.72H69.805V200.735Z" fill="#2F4153"/>
<path d="M68.65 202L64.425 202.835C64.3473 202.849 64.2768 202.889 64.2257 202.95C64.1746 203.01 64.1461 203.086 64.145 203.165L64.06 206.755C64.056 206.908 64.1126 207.056 64.2175 207.168C64.3224 207.279 64.4671 207.345 64.62 207.35H64.74C66.24 207.02 67.595 206.67 69.495 206.3C71.73 205.86 71.215 206.24 73.855 205.755C75.445 205.465 75.355 203.605 74.69 203.65C71.535 203.87 71.035 203 69.63 202.15C69.3329 201.981 68.984 201.928 68.65 202Z" fill="#263238"/>
<path opacity="0.1" d="M63.8401 198.1L64.2951 200.485L67.7951 199.875L67.5301 197.935L63.8401 198.1Z" fill="black"/>
<path d="M61.615 197.155L62.405 199.875L69.965 198.605L69.885 195.655L61.615 197.155Z" fill="#263238"/>
<path d="M42.75 73.7549C42.75 73.7549 44.25 72.0799 44.14 70.6099C44.14 70.6099 45.335 69.9249 45.875 67.8849C45.875 67.8849 52.685 67.5249 53 65.9649C53.315 64.4049 51.28 64.7049 51.28 64.7049C51.28 64.7049 53.47 63.8649 52.075 62.5999C50.68 61.3349 49.015 62.9649 49.015 62.9649C49.015 62.9649 50.485 60.4649 48.455 60.3799C46.535 60.3049 46.455 63.5449 45.4 63.4449C44.735 63.3799 45.085 60.4999 42.75 63.7449C40.415 66.9899 40.955 68.1899 40.955 68.1899C40.955 68.1899 38.135 68.4599 38.195 70.1249C38.255 71.7899 39.195 71.3849 39.455 71.8349C39.715 72.2849 38.7 72.8349 39.555 73.7549C40.41 74.6749 42.75 73.7549 42.75 73.7549Z" fill="#263238"/>
<path d="M41.5601 74.9449C41.7538 75.2685 42.0094 75.5508 42.3122 75.7755C42.6151 76.0003 42.9593 76.1632 43.3251 76.2549C44.3251 76.4899 44.7651 75.5999 44.4601 74.6849C44.1801 73.8649 43.3351 72.7549 42.3601 72.9099C42.146 72.9513 41.9458 73.0461 41.7781 73.1856C41.6104 73.325 41.4806 73.5045 41.4008 73.7075C41.321 73.9105 41.2938 74.1303 41.3216 74.3466C41.3495 74.563 41.4315 74.7687 41.5601 74.9449Z" fill="#FFB573"/>
<path d="M41.1751 68.5C40.8419 68.0593 40.685 67.5102 40.7351 66.96C40.7751 65.96 39.7351 66.26 39.8551 67.1C39.8927 67.4453 40.042 67.7688 40.2802 68.0215C40.5185 68.2742 40.8327 68.4422 41.1751 68.5Z" fill="#263238"/>
<path d="M80.3201 97.0298L81.6051 96.6848L82.8751 97.9548C82.9598 97.5936 82.9509 97.2167 82.8492 96.8599C82.7475 96.5031 82.5565 96.1781 82.2941 95.9158C82.0318 95.6535 81.7068 95.4624 81.35 95.3607C80.9932 95.2591 80.6163 95.2502 80.2551 95.3348L77.8701 92.9498L75.9601 91.0398L73.5751 88.6548C73.6598 88.2936 73.6509 87.9167 73.5492 87.5599C73.4475 87.2031 73.2565 86.8782 72.9941 86.6158C72.7318 86.3535 72.4068 86.1624 72.05 86.0607C71.6932 85.9591 71.3163 85.9502 70.9551 86.0348L72.2251 87.3048L71.8801 88.5898L70.5951 88.9348L69.3251 87.6648C69.2404 88.0261 69.2494 88.4029 69.351 88.7597C69.4527 89.1165 69.6437 89.4415 69.9061 89.7039C70.1684 89.9662 70.4934 90.1573 70.8502 90.2589C71.207 90.3606 71.5839 90.3695 71.9451 90.2848L74.3301 92.6698L76.2401 94.5748L78.6251 96.9598C78.5409 97.3212 78.55 97.6981 78.6517 98.055C78.7535 98.4118 78.9444 98.7369 79.2065 98.9995C79.4687 99.2622 79.7934 99.4537 80.15 99.5561C80.5067 99.6585 80.8836 99.6684 81.2451 99.5848L80.0001 98.3148L80.3201 97.0298Z" fill="#263238"/>
<path opacity="0.4" d="M80.3201 97.0298L81.6051 96.6848L82.8751 97.9548C82.9598 97.5936 82.9509 97.2167 82.8492 96.8599C82.7475 96.5031 82.5565 96.1781 82.2941 95.9158C82.0318 95.6535 81.7068 95.4624 81.35 95.3607C80.9932 95.2591 80.6163 95.2502 80.2551 95.3348L77.8701 92.9498L75.9601 91.0398L73.5751 88.6548C73.6598 88.2936 73.6509 87.9167 73.5492 87.5599C73.4475 87.2031 73.2565 86.8782 72.9941 86.6158C72.7318 86.3535 72.4068 86.1624 72.05 86.0607C71.6932 85.9591 71.3163 85.9502 70.9551 86.0348L72.2251 87.3048L71.8801 88.5898L70.5951 88.9348L69.3251 87.6648C69.2404 88.0261 69.2494 88.4029 69.351 88.7597C69.4527 89.1165 69.6437 89.4415 69.9061 89.7039C70.1684 89.9662 70.4934 90.1573 70.8502 90.2589C71.207 90.3606 71.5839 90.3695 71.9451 90.2848L74.3301 92.6698L76.2401 94.5748L78.6251 96.9598C78.5409 97.3212 78.55 97.6981 78.6517 98.055C78.7535 98.4118 78.9444 98.7369 79.2065 98.9995C79.4687 99.2622 79.7934 99.4537 80.15 99.5561C80.5067 99.6585 80.8836 99.6684 81.2451 99.5848L80.0001 98.3148L80.3201 97.0298Z" fill="white"/>
<path d="M49.7701 112.835L51.6451 110.695L50.5001 109.525L48.3601 111.395L48.0901 111.92C48.0057 112.077 47.8997 112.222 47.7751 112.35L45.1851 114.94L46.2301 116L48.8201 113.41C48.947 113.284 49.0919 113.178 49.2501 113.095L49.7701 112.835Z" fill="#263238"/>
<path opacity="0.7" d="M49.7701 112.835L51.6451 110.695L50.5001 109.525L48.3601 111.395L48.0901 111.92C48.0057 112.077 47.8997 112.222 47.7751 112.35L45.1851 114.94L46.2301 116L48.8201 113.41C48.947 113.284 49.0919 113.178 49.2501 113.095L49.7701 112.835Z" fill="white"/>
<path d="M51.6149 110.73L51.6449 110.695L50.4999 109.525H50.4649C50.3749 109.695 50.5199 110.025 50.8249 110.345C51.1299 110.665 51.4499 110.82 51.6149 110.73Z" fill="#263238"/>
<path opacity="0.4" d="M51.6149 110.73L51.6449 110.695L50.4999 109.525H50.4649C50.3749 109.695 50.5199 110.025 50.8249 110.345C51.1299 110.665 51.4499 110.82 51.6149 110.73Z" fill="white"/>
<path d="M45.2299 117.38L45.9999 116.6L46.0449 116.65C46.0991 116.703 46.1718 116.732 46.2475 116.732C46.3231 116.732 46.3958 116.703 46.45 116.65C46.4775 116.623 46.4994 116.592 46.5143 116.556C46.5293 116.521 46.537 116.483 46.537 116.445C46.537 116.407 46.5293 116.369 46.5143 116.334C46.4994 116.298 46.4775 116.267 46.45 116.24L44.9199 114.705C44.8651 114.653 44.7921 114.624 44.7164 114.625C44.6407 114.626 44.5684 114.656 44.5149 114.71C44.4614 114.763 44.4309 114.836 44.43 114.911C44.4291 114.987 44.4577 115.06 44.5099 115.115L44.56 115.16L43.7799 115.94C43.638 115.916 43.4922 115.928 43.3565 115.976C43.2208 116.024 43.0997 116.107 43.005 116.215L38.505 120.715C37.97 121.25 38.24 121.855 38.77 122.39C39.3 122.925 39.9099 123.19 40.4449 122.655L44.9449 118.155C45.054 118.06 45.1374 117.94 45.1872 117.804C45.237 117.669 45.2517 117.523 45.2299 117.38Z" fill="#2F4153"/>
<path opacity="0.4" d="M45.2299 117.38L45.9999 116.6L46.0449 116.65C46.0991 116.703 46.1718 116.732 46.2475 116.732C46.3231 116.732 46.3958 116.703 46.45 116.65C46.4775 116.623 46.4994 116.592 46.5143 116.556C46.5293 116.521 46.537 116.483 46.537 116.445C46.537 116.407 46.5293 116.369 46.5143 116.334C46.4994 116.298 46.4775 116.267 46.45 116.24L44.9199 114.705C44.8651 114.653 44.7921 114.624 44.7164 114.625C44.6407 114.626 44.5684 114.656 44.5149 114.71C44.4614 114.763 44.4309 114.836 44.43 114.911C44.4291 114.987 44.4577 115.06 44.5099 115.115L44.56 115.16L43.7799 115.94C43.638 115.916 43.4922 115.928 43.3565 115.976C43.2208 116.024 43.0997 116.107 43.005 116.215L38.505 120.715C37.97 121.25 38.24 121.855 38.77 122.39C39.3 122.925 39.9099 123.19 40.4449 122.655L44.9449 118.155C45.054 118.06 45.1374 117.94 45.1872 117.804C45.237 117.669 45.2517 117.523 45.2299 117.38Z" fill="white"/>
<path d="M36.9351 114.35L39.3651 116.395C39.3651 116.395 41.2201 115.965 42.2901 116.58C43.3601 117.195 43.1551 117.92 43.9301 118.31C44.7051 118.7 44.5801 119.87 44.5801 119.87C44.5801 119.87 41.1751 121.87 40.0451 121.09C38.9151 120.31 37.8001 118.315 37.8001 118.315L34.6001 116.05L36.9351 114.35Z" fill="#FFB573"/>
<path d="M40.445 83.905C40.445 83.905 34.71 84.23 32.125 90.905C29.54 97.58 26.21 103.655 28.125 108.905C30.04 114.155 34.79 117.32 34.79 117.32C34.79 117.32 37.405 116.07 38.29 113.82C38.29 113.82 33.29 109.655 34.025 106.07C34.76 102.485 39.625 94 39.625 94C39.625 94 45.76 86.16 40.445 83.905Z" fill="#263238"/>
</svg>
