<svg width="277" height="277" viewBox="0 0 277 277" fill="none" xmlns="http://www.w3.org/2000/svg">
<path d="M257.433 184.56V247.345H119.487V197.213H131.453V211.744H134.533V186.344H149.752V210.454H151.763V179.878H164.987V188.266H171.773V198.714H173.823V192.144H185.85V211.739H189.363V195.811H200.36V183.712H207.839V176.82H216.487V207.384H219.395V194.626H233.644V212.886H235.616V197.983H250.065V184.56H257.433Z" fill="#EBEBEB"/>
<path d="M122.971 199.041H120.949V201.822H122.971V199.041Z" fill="white"/>
<path d="M126.484 199.041H124.462V201.822H126.484V199.041Z" fill="white"/>
<path d="M129.991 199.041H127.969V201.822H129.991V199.041Z" fill="white"/>
<path d="M122.971 203.219H120.949V206H122.971V203.219Z" fill="white"/>
<path d="M126.484 203.219H124.462V206H126.484V203.219Z" fill="white"/>
<path d="M129.991 203.219H127.969V206H129.991V203.219Z" fill="white"/>
<path d="M122.971 207.401H120.949V210.182H122.971V207.401Z" fill="white"/>
<path d="M126.484 207.401H124.462V210.182H126.484V207.401Z" fill="white"/>
<path d="M129.991 207.401H127.969V210.182H129.991V207.401Z" fill="white"/>
<path d="M122.971 211.584H120.949V214.365H122.971V211.584Z" fill="white"/>
<path d="M126.484 211.584H124.462V214.365H126.484V211.584Z" fill="white"/>
<path d="M129.991 211.584H127.969V214.365H129.991V211.584Z" fill="white"/>
<path d="M193.075 197.795H191.053V200.111H193.075V197.795Z" fill="white"/>
<path d="M196.587 197.795H194.565V200.111H196.587V197.795Z" fill="white"/>
<path d="M200.094 197.795H198.072V200.111H200.094V197.795Z" fill="white"/>
<path d="M193.075 201.285H191.053V203.601H193.075V201.285Z" fill="white"/>
<path d="M196.587 201.285H194.565V203.601H196.587V201.285Z" fill="white"/>
<path d="M200.094 201.285H198.072V203.601H200.094V201.285Z" fill="white"/>
<path d="M193.075 204.77H191.053V207.085H193.075V204.77Z" fill="white"/>
<path d="M196.587 204.77H194.565V207.085H196.587V204.77Z" fill="white"/>
<path d="M200.094 204.77H198.072V207.085H200.094V204.77Z" fill="white"/>
<path d="M193.075 208.26H191.053V210.575H193.075V208.26Z" fill="white"/>
<path d="M196.587 208.26H194.565V210.575H196.587V208.26Z" fill="white"/>
<path d="M200.094 208.26H198.072V210.575H200.094V208.26Z" fill="white"/>
<path d="M193.075 211.833H191.053V214.149H193.075V211.833Z" fill="white"/>
<path d="M196.587 211.833H194.565V214.149H196.587V211.833Z" fill="white"/>
<path d="M200.094 211.833H198.072V214.149H200.094V211.833Z" fill="white"/>
<path d="M193.075 215.406H191.053V217.722H193.075V215.406Z" fill="white"/>
<path d="M196.587 215.406H194.565V217.722H196.587V215.406Z" fill="white"/>
<path d="M200.094 215.406H198.072V217.722H200.094V215.406Z" fill="white"/>
<path d="M193.075 218.985H191.053V221.301H193.075V218.985Z" fill="white"/>
<path d="M196.587 218.985H194.565V221.301H196.587V218.985Z" fill="white"/>
<path d="M200.094 218.985H198.072V221.301H200.094V218.985Z" fill="white"/>
<path d="M193.075 222.559H191.053V224.874H193.075V222.559Z" fill="white"/>
<path d="M196.587 222.559H194.565V224.874H196.587V222.559Z" fill="white"/>
<path d="M200.094 222.559H198.072V224.874H200.094V222.559Z" fill="white"/>
<path d="M147.918 188.128H136.262V189.867H147.918V188.128Z" fill="white"/>
<path d="M147.918 191.496H136.262V193.236H147.918V191.496Z" fill="white"/>
<path d="M147.918 194.87H136.262V196.61H147.918V194.87Z" fill="white"/>
<path d="M147.918 198.243H136.262V199.983H147.918V198.243Z" fill="white"/>
<path d="M147.918 201.612H136.262V203.352H147.918V201.612Z" fill="white"/>
<path d="M147.918 204.985H136.262V206.725H147.918V204.985Z" fill="white"/>
<path d="M147.918 208.359H136.262V210.099H147.918V208.359Z" fill="white"/>
<path d="M147.918 211.728H136.262V213.467H147.918V211.728Z" fill="white"/>
<path d="M231.833 196.249H221.118V197.989H231.833V196.249Z" fill="white"/>
<path d="M231.833 199.623H221.118V201.363H231.833V199.623Z" fill="white"/>
<path d="M231.833 202.991H221.118V204.731H231.833V202.991Z" fill="white"/>
<path d="M231.833 206.365H221.118V208.105H231.833V206.365Z" fill="white"/>
<path d="M231.833 209.739H221.118V211.479H231.833V209.739Z" fill="white"/>
<path d="M231.833 213.107H221.118V214.847H231.833V213.107Z" fill="white"/>
<path d="M231.833 216.481H221.118V218.221H231.833V216.481Z" fill="white"/>
<path d="M231.833 219.855H221.118V221.595H231.833V219.855Z" fill="white"/>
<path d="M231.833 223.058H221.118V224.797H231.833V223.058Z" fill="white"/>
<path d="M231.833 226.26H221.118V227.999H231.833V226.26Z" fill="white"/>
<path d="M231.833 229.467H221.118V231.206H231.833V229.467Z" fill="white"/>
<path d="M231.833 232.669H221.118V234.408H231.833V232.669Z" fill="white"/>
<path d="M231.833 235.871H221.118V237.611H231.833V235.871Z" fill="white"/>
<path d="M249.161 200.321H237.843V202.061H249.161V200.321Z" fill="white"/>
<path d="M249.161 203.695H237.843V205.435H249.161V203.695Z" fill="white"/>
<path d="M249.161 207.068H237.843V208.808H249.161V207.068Z" fill="white"/>
<path d="M249.161 210.438H237.843V212.177H249.161V210.438Z" fill="white"/>
<path d="M249.161 213.811H237.843V215.55H249.161V213.811Z" fill="white"/>
<path d="M249.161 217.18H237.843V218.919H249.161V217.18Z" fill="white"/>
<path d="M249.161 220.553H237.843V222.292H249.161V220.553Z" fill="white"/>
<path d="M249.161 223.927H237.843V225.666H249.161V223.927Z" fill="white"/>
<path d="M249.161 226.946H237.843V228.686H249.161V226.946Z" fill="white"/>
<path d="M249.161 229.96H237.843V231.7H249.161V229.96Z" fill="white"/>
<path d="M249.161 232.979H237.843V234.719H249.161V232.979Z" fill="white"/>
<path d="M180.942 193.718H177.341V195.396H180.942V193.718Z" fill="white"/>
<path d="M180.942 196.975H177.341V198.653H180.942V196.975Z" fill="white"/>
<path d="M180.942 200.232H177.341V201.911H180.942V200.232Z" fill="white"/>
<path d="M180.942 203.484H177.341V205.163H180.942V203.484Z" fill="white"/>
<path d="M180.942 206.742H177.341V208.421H180.942V206.742Z" fill="white"/>
<path d="M180.942 209.999H177.341V211.678H180.942V209.999Z" fill="white"/>
<path d="M180.942 213.257H177.341V214.935H180.942V213.257Z" fill="white"/>
<path d="M180.942 216.515H177.341V218.193H180.942V216.515Z" fill="white"/>
<path d="M185.839 193.718H182.238V195.396H185.839V193.718Z" fill="white"/>
<path d="M185.839 196.975H182.238V198.653H185.839V196.975Z" fill="white"/>
<path d="M185.839 200.232H182.238V201.911H185.839V200.232Z" fill="white"/>
<path d="M185.839 203.484H182.238V205.163H185.839V203.484Z" fill="white"/>
<path d="M185.839 206.742H182.238V208.421H185.839V206.742Z" fill="white"/>
<path d="M185.839 209.999H182.238V211.678H185.839V209.999Z" fill="white"/>
<path d="M185.839 213.257H182.238V214.935H185.839V213.257Z" fill="white"/>
<path d="M185.839 216.515H182.238V218.193H185.839V216.515Z" fill="white"/>
<path d="M157.519 181.641H153.769V184.289H157.519V181.641Z" fill="white"/>
<path d="M163.114 181.641H159.364V184.289H163.114V181.641Z" fill="white"/>
<path d="M157.519 185.523H153.769V188.172H157.519V185.523Z" fill="white"/>
<path d="M163.114 185.523H159.364V188.172H163.114V185.523Z" fill="white"/>
<path d="M157.519 189.413H153.769V192.061H157.519V189.413Z" fill="white"/>
<path d="M163.114 189.413H159.364V192.061H163.114V189.413Z" fill="white"/>
<path d="M157.519 193.302H153.769V195.95H157.519V193.302Z" fill="white"/>
<path d="M163.114 193.302H159.364V195.95H163.114V193.302Z" fill="white"/>
<path d="M157.519 197.191H153.769V199.84H157.519V197.191Z" fill="white"/>
<path d="M163.114 197.191H159.364V199.84H163.114V197.191Z" fill="white"/>
<path d="M157.519 201.074H153.769V203.722H157.519V201.074Z" fill="white"/>
<path d="M163.114 201.074H159.364V203.722H163.114V201.074Z" fill="white"/>
<path d="M157.519 204.964H153.769V207.612H157.519V204.964Z" fill="white"/>
<path d="M163.114 204.964H159.364V207.612H163.114V204.964Z" fill="white"/>
<path d="M157.519 208.853H153.769V211.501H157.519V208.853Z" fill="white"/>
<path d="M163.114 208.853H159.364V211.501H163.114V208.853Z" fill="white"/>
<path d="M170.039 189.413H166.289V192.061H170.039V189.413Z" fill="white"/>
<path d="M170.039 193.302H166.289V195.95H170.039V193.302Z" fill="white"/>
<path d="M170.039 197.191H166.289V199.84H170.039V197.191Z" fill="white"/>
<path d="M170.039 201.074H166.289V203.722H170.039V201.074Z" fill="white"/>
<path d="M170.039 204.964H166.289V207.612H170.039V204.964Z" fill="white"/>
<path d="M170.039 208.853H166.289V211.501H170.039V208.853Z" fill="white"/>
<path d="M157.519 212.692H153.769V215.341H157.519V212.692Z" fill="white"/>
<path d="M163.114 212.692H159.364V215.341H163.114V212.692Z" fill="white"/>
<path d="M170.039 212.692H166.289V215.341H170.039V212.692Z" fill="white"/>
<path d="M157.519 216.537H153.769V219.185H157.519V216.537Z" fill="white"/>
<path d="M163.114 216.537H159.364V219.185H163.114V216.537Z" fill="white"/>
<path d="M170.039 216.537H166.289V219.185H170.039V216.537Z" fill="white"/>
<path d="M157.519 220.376H153.769V223.024H157.519V220.376Z" fill="white"/>
<path d="M163.114 220.376H159.364V223.024H163.114V220.376Z" fill="white"/>
<path d="M170.039 220.376H166.289V223.024H170.039V220.376Z" fill="white"/>
<path d="M157.519 224.221H153.769V226.869H157.519V224.221Z" fill="white"/>
<path d="M163.114 224.221H159.364V226.869H163.114V224.221Z" fill="white"/>
<path d="M170.039 224.221H166.289V226.869H170.039V224.221Z" fill="white"/>
<path d="M157.519 228.06H153.769V230.708H157.519V228.06Z" fill="white"/>
<path d="M163.114 228.06H159.364V230.708H163.114V228.06Z" fill="white"/>
<path d="M170.039 228.06H166.289V230.708H170.039V228.06Z" fill="white"/>
<path d="M203.911 185.413H201.889V187.729H203.911V185.413Z" fill="white"/>
<path d="M207.423 185.413H205.401V187.729H207.423V185.413Z" fill="white"/>
<path d="M203.911 188.903H201.889V191.219H203.911V188.903Z" fill="white"/>
<path d="M207.423 188.903H205.401V191.219H207.423V188.903Z" fill="white"/>
<path d="M203.911 192.394H201.889V194.709H203.911V192.394Z" fill="white"/>
<path d="M207.423 192.394H205.401V194.709H207.423V192.394Z" fill="white"/>
<path d="M203.911 195.878H201.889V198.194H203.911V195.878Z" fill="white"/>
<path d="M207.423 195.878H205.401V198.194H207.423V195.878Z" fill="white"/>
<path d="M203.911 199.451H201.889V201.767H203.911V199.451Z" fill="white"/>
<path d="M207.423 199.451H205.401V201.767H207.423V199.451Z" fill="white"/>
<path d="M203.911 203.03H201.889V205.346H203.911V203.03Z" fill="white"/>
<path d="M207.423 203.03H205.401V205.346H207.423V203.03Z" fill="white"/>
<path d="M203.911 206.604H201.889V208.919H203.911V206.604Z" fill="white"/>
<path d="M207.423 206.604H205.401V208.919H207.423V206.604Z" fill="white"/>
<path d="M203.911 210.177H201.889V212.492H203.911V210.177Z" fill="white"/>
<path d="M207.423 210.177H205.401V212.492H207.423V210.177Z" fill="white"/>
<path d="M203.911 213.789H201.889V216.105H203.911V213.789Z" fill="white"/>
<path d="M207.423 213.789H205.401V216.105H207.423V213.789Z" fill="white"/>
<path d="M203.911 217.401H201.889V219.717H203.911V217.401Z" fill="white"/>
<path d="M207.423 217.401H205.401V219.717H207.423V217.401Z" fill="white"/>
<path d="M203.911 221.013H201.889V223.328H203.911V221.013Z" fill="white"/>
<path d="M207.423 221.013H205.401V223.328H207.423V221.013Z" fill="white"/>
<path d="M203.911 224.625H201.889V226.941H203.911V224.625Z" fill="white"/>
<path d="M207.423 224.625H205.401V226.941H207.423V224.625Z" fill="white"/>
<path d="M253.356 185.79H251.333V188.521H253.356V185.79Z" fill="white"/>
<path d="M256.862 185.79H254.84V188.521H256.862V185.79Z" fill="white"/>
<path d="M253.356 189.9H251.333V192.632H253.356V189.9Z" fill="white"/>
<path d="M256.862 189.9H254.84V192.632H256.862V189.9Z" fill="white"/>
<path d="M253.356 194.011H251.333V196.742H253.356V194.011Z" fill="white"/>
<path d="M256.862 194.011H254.84V196.742H256.862V194.011Z" fill="white"/>
<path d="M253.356 198.122H251.333V200.853H253.356V198.122Z" fill="white"/>
<path d="M256.862 198.122H254.84V200.853H256.862V198.122Z" fill="white"/>
<path d="M253.356 202.332H251.333V205.063H253.356V202.332Z" fill="white"/>
<path d="M256.862 202.332H254.84V205.063H256.862V202.332Z" fill="white"/>
<path d="M253.356 206.543H251.333V209.274H253.356V206.543Z" fill="white"/>
<path d="M256.862 206.543H254.84V209.274H256.862V206.543Z" fill="white"/>
<path d="M253.356 210.753H251.333V213.484H253.356V210.753Z" fill="white"/>
<path d="M256.862 210.753H254.84V213.484H256.862V210.753Z" fill="white"/>
<path d="M253.356 214.963H251.333V217.694H253.356V214.963Z" fill="white"/>
<path d="M256.862 214.963H254.84V217.694H256.862V214.963Z" fill="white"/>
<path d="M253.356 219.218H251.333V221.949H253.356V219.218Z" fill="white"/>
<path d="M256.862 219.218H254.84V221.949H256.862V219.218Z" fill="white"/>
<path d="M253.356 223.473H251.333V226.204H253.356V223.473Z" fill="white"/>
<path d="M256.862 223.473H254.84V226.204H256.862V223.473Z" fill="white"/>
<path d="M253.356 227.733H251.333V230.465H253.356V227.733Z" fill="white"/>
<path d="M256.862 227.733H254.84V230.465H256.862V227.733Z" fill="white"/>
<path d="M253.356 231.987H251.333V234.719H253.356V231.987Z" fill="white"/>
<path d="M256.862 231.987H254.84V234.719H256.862V231.987Z" fill="white"/>
<path d="M211.418 185.413H209.396V187.729H211.418V185.413Z" fill="white"/>
<path d="M214.924 185.413H212.902V187.729H214.924V185.413Z" fill="white"/>
<path d="M211.418 181.84H209.396V184.156H211.418V181.84Z" fill="white"/>
<path d="M214.924 181.84H212.902V184.156H214.924V181.84Z" fill="white"/>
<path d="M211.418 178.261H209.396V180.576H211.418V178.261Z" fill="white"/>
<path d="M214.924 178.261H212.902V180.576H214.924V178.261Z" fill="white"/>
<path d="M211.418 188.903H209.396V191.219H211.418V188.903Z" fill="white"/>
<path d="M214.924 188.903H212.902V191.219H214.924V188.903Z" fill="white"/>
<path d="M211.418 192.394H209.396V194.709H211.418V192.394Z" fill="white"/>
<path d="M214.924 192.394H212.902V194.709H214.924V192.394Z" fill="white"/>
<path d="M211.418 195.878H209.396V198.194H211.418V195.878Z" fill="white"/>
<path d="M214.924 195.878H212.902V198.194H214.924V195.878Z" fill="white"/>
<path d="M211.418 199.451H209.396V201.767H211.418V199.451Z" fill="white"/>
<path d="M214.924 199.451H212.902V201.767H214.924V199.451Z" fill="white"/>
<path d="M211.418 203.03H209.396V205.346H211.418V203.03Z" fill="white"/>
<path d="M214.924 203.03H212.902V205.346H214.924V203.03Z" fill="white"/>
<path d="M211.418 206.604H209.396V208.919H211.418V206.604Z" fill="white"/>
<path d="M214.924 206.604H212.902V208.919H214.924V206.604Z" fill="white"/>
<path d="M211.418 210.177H209.396V212.492H211.418V210.177Z" fill="white"/>
<path d="M214.924 210.177H212.902V212.492H214.924V210.177Z" fill="white"/>
<path d="M211.418 213.789H209.396V216.105H211.418V213.789Z" fill="white"/>
<path d="M214.924 213.789H212.902V216.105H214.924V213.789Z" fill="white"/>
<path d="M211.418 217.401H209.396V219.717H211.418V217.401Z" fill="white"/>
<path d="M214.924 217.401H212.902V219.717H214.924V217.401Z" fill="white"/>
<path d="M211.418 221.013H209.396V223.328H211.418V221.013Z" fill="white"/>
<path d="M214.924 221.013H212.902V223.328H214.924V221.013Z" fill="white"/>
<path d="M211.418 224.625H209.396V226.941H211.418V224.625Z" fill="white"/>
<path d="M214.924 224.625H212.902V226.941H214.924V224.625Z" fill="white"/>
<path d="M119.487 247.345H19.5674V191.12H31.5338V205.651H34.614V197.424H49.8324V210.454H51.849V179.879H65.0729V188.266H71.8539V198.715H73.9092V192.144H85.931V211.739H89.449V195.812H100.446V183.713H107.919L116.567 183.751V207.385H119.481L119.487 247.345Z" fill="#EBEBEB"/>
<path d="M23.0577 192.947H21.0356V195.728H23.0577V192.947Z" fill="white"/>
<path d="M26.5646 192.947H24.5425V195.728H26.5646V192.947Z" fill="white"/>
<path d="M30.0768 192.947H28.0547V195.728H30.0768V192.947Z" fill="white"/>
<path d="M23.0577 197.125H21.0356V199.906H23.0577V197.125Z" fill="white"/>
<path d="M26.5646 197.125H24.5425V199.906H26.5646V197.125Z" fill="white"/>
<path d="M30.0768 197.125H28.0547V199.906H30.0768V197.125Z" fill="white"/>
<path d="M23.0577 201.308H21.0356V204.089H23.0577V201.308Z" fill="white"/>
<path d="M26.5646 201.308H24.5425V204.089H26.5646V201.308Z" fill="white"/>
<path d="M30.0768 201.308H28.0547V204.089H30.0768V201.308Z" fill="white"/>
<path d="M23.0577 205.49H21.0356V208.271H23.0577V205.49Z" fill="white"/>
<path d="M26.5646 205.49H24.5425V208.271H26.5646V205.49Z" fill="white"/>
<path d="M30.0768 205.49H28.0547V208.271H30.0768V205.49Z" fill="white"/>
<path d="M93.1608 197.795H91.1387V200.111H93.1608V197.795Z" fill="white"/>
<path d="M96.6676 197.795H94.6455V200.111H96.6676V197.795Z" fill="white"/>
<path d="M100.18 197.795H98.1577V200.111H100.18V197.795Z" fill="white"/>
<path d="M93.1608 201.285H91.1387V203.601H93.1608V201.285Z" fill="white"/>
<path d="M96.6676 201.285H94.6455V203.601H96.6676V201.285Z" fill="white"/>
<path d="M100.18 201.285H98.1577V203.601H100.18V201.285Z" fill="white"/>
<path d="M93.1608 204.77H91.1387V207.085H93.1608V204.77Z" fill="white"/>
<path d="M96.6676 204.77H94.6455V207.085H96.6676V204.77Z" fill="white"/>
<path d="M100.18 204.77H98.1577V207.085H100.18V204.77Z" fill="white"/>
<path d="M93.1608 208.26H91.1387V210.575H93.1608V208.26Z" fill="white"/>
<path d="M96.6676 208.26H94.6455V210.575H96.6676V208.26Z" fill="white"/>
<path d="M100.18 208.26H98.1577V210.575H100.18V208.26Z" fill="white"/>
<path d="M93.1608 211.833H91.1387V214.149H93.1608V211.833Z" fill="white"/>
<path d="M96.6676 211.833H94.6455V214.149H96.6676V211.833Z" fill="white"/>
<path d="M100.18 211.833H98.1577V214.149H100.18V211.833Z" fill="white"/>
<path d="M93.1608 215.406H91.1387V217.722H93.1608V215.406Z" fill="white"/>
<path d="M96.6676 215.406H94.6455V217.722H96.6676V215.406Z" fill="white"/>
<path d="M100.18 215.406H98.1577V217.722H100.18V215.406Z" fill="white"/>
<path d="M93.1608 218.985H91.1387V221.301H93.1608V218.985Z" fill="white"/>
<path d="M96.6676 218.985H94.6455V221.301H96.6676V218.985Z" fill="white"/>
<path d="M100.18 218.985H98.1577V221.301H100.18V218.985Z" fill="white"/>
<path d="M93.1608 222.559H91.1387V224.874H93.1608V222.559Z" fill="white"/>
<path d="M96.6676 222.559H94.6455V224.874H96.6676V222.559Z" fill="white"/>
<path d="M100.18 222.559H98.1577V224.874H100.18V222.559Z" fill="white"/>
<path d="M47.9984 199.208H36.3423V200.948H47.9984V199.208Z" fill="white"/>
<path d="M47.9984 202.576H36.3423V204.316H47.9984V202.576Z" fill="white"/>
<path d="M47.9984 205.95H36.3423V207.69H47.9984V205.95Z" fill="white"/>
<path d="M47.9984 209.323H36.3423V211.063H47.9984V209.323Z" fill="white"/>
<path d="M47.9984 212.692H36.3423V214.432H47.9984V212.692Z" fill="white"/>
<path d="M47.9984 216.065H36.3423V217.805H47.9984V216.065Z" fill="white"/>
<path d="M47.9984 219.439H36.3423V221.179H47.9984V219.439Z" fill="white"/>
<path d="M47.9984 222.808H36.3423V224.547H47.9984V222.808Z" fill="white"/>
<path d="M81.0282 193.718H77.4272V195.396H81.0282V193.718Z" fill="white"/>
<path d="M81.0282 196.975H77.4272V198.653H81.0282V196.975Z" fill="white"/>
<path d="M81.0282 200.232H77.4272V201.911H81.0282V200.232Z" fill="white"/>
<path d="M81.0282 203.484H77.4272V205.163H81.0282V203.484Z" fill="white"/>
<path d="M81.0282 206.742H77.4272V208.421H81.0282V206.742Z" fill="white"/>
<path d="M81.0282 209.999H77.4272V211.678H81.0282V209.999Z" fill="white"/>
<path d="M81.0282 213.257H77.4272V214.935H81.0282V213.257Z" fill="white"/>
<path d="M81.0282 216.515H77.4272V218.193H81.0282V216.515Z" fill="white"/>
<path d="M85.9257 193.718H82.3247V195.396H85.9257V193.718Z" fill="white"/>
<path d="M85.9257 196.975H82.3247V198.653H85.9257V196.975Z" fill="white"/>
<path d="M85.9257 200.232H82.3247V201.911H85.9257V200.232Z" fill="white"/>
<path d="M85.9257 203.484H82.3247V205.163H85.9257V203.484Z" fill="white"/>
<path d="M85.9257 206.742H82.3247V208.421H85.9257V206.742Z" fill="white"/>
<path d="M85.9257 209.999H82.3247V211.678H85.9257V209.999Z" fill="white"/>
<path d="M85.9257 213.257H82.3247V214.935H85.9257V213.257Z" fill="white"/>
<path d="M85.9257 216.515H82.3247V218.193H85.9257V216.515Z" fill="white"/>
<path d="M57.6051 181.641H53.8545V184.289H57.6051V181.641Z" fill="white"/>
<path d="M63.1949 181.641H59.4443V184.289H63.1949V181.641Z" fill="white"/>
<path d="M57.6051 185.523H53.8545V188.172H57.6051V185.523Z" fill="white"/>
<path d="M63.1949 185.523H59.4443V188.172H63.1949V185.523Z" fill="white"/>
<path d="M57.6051 189.413H53.8545V192.061H57.6051V189.413Z" fill="white"/>
<path d="M63.1949 189.413H59.4443V192.061H63.1949V189.413Z" fill="white"/>
<path d="M57.6051 193.302H53.8545V195.95H57.6051V193.302Z" fill="white"/>
<path d="M63.1949 193.302H59.4443V195.95H63.1949V193.302Z" fill="white"/>
<path d="M57.6051 197.191H53.8545V199.84H57.6051V197.191Z" fill="white"/>
<path d="M63.1949 197.191H59.4443V199.84H63.1949V197.191Z" fill="white"/>
<path d="M57.6051 201.074H53.8545V203.722H57.6051V201.074Z" fill="white"/>
<path d="M63.1949 201.074H59.4443V203.722H63.1949V201.074Z" fill="white"/>
<path d="M57.6051 204.964H53.8545V207.612H57.6051V204.964Z" fill="white"/>
<path d="M63.1949 204.964H59.4443V207.612H63.1949V204.964Z" fill="white"/>
<path d="M57.6051 208.853H53.8545V211.501H57.6051V208.853Z" fill="white"/>
<path d="M63.1949 208.853H59.4443V211.501H63.1949V208.853Z" fill="white"/>
<path d="M70.1256 189.413H66.375V192.061H70.1256V189.413Z" fill="white"/>
<path d="M70.1256 193.302H66.375V195.95H70.1256V193.302Z" fill="white"/>
<path d="M70.1256 197.191H66.375V199.84H70.1256V197.191Z" fill="white"/>
<path d="M70.1256 201.074H66.375V203.722H70.1256V201.074Z" fill="white"/>
<path d="M70.1256 204.964H66.375V207.612H70.1256V204.964Z" fill="white"/>
<path d="M70.1256 208.853H66.375V211.501H70.1256V208.853Z" fill="white"/>
<path d="M57.6051 212.692H53.8545V215.341H57.6051V212.692Z" fill="white"/>
<path d="M63.1949 212.692H59.4443V215.341H63.1949V212.692Z" fill="white"/>
<path d="M70.1256 212.692H66.375V215.341H70.1256V212.692Z" fill="white"/>
<path d="M57.6051 216.537H53.8545V219.185H57.6051V216.537Z" fill="white"/>
<path d="M63.1949 216.537H59.4443V219.185H63.1949V216.537Z" fill="white"/>
<path d="M70.1256 216.537H66.375V219.185H70.1256V216.537Z" fill="white"/>
<path d="M57.6051 220.376H53.8545V223.024H57.6051V220.376Z" fill="white"/>
<path d="M63.1949 220.376H59.4443V223.024H63.1949V220.376Z" fill="white"/>
<path d="M70.1256 220.376H66.375V223.024H70.1256V220.376Z" fill="white"/>
<path d="M57.6051 224.221H53.8545V226.869H57.6051V224.221Z" fill="white"/>
<path d="M63.1949 224.221H59.4443V226.869H63.1949V224.221Z" fill="white"/>
<path d="M70.1256 224.221H66.375V226.869H70.1256V224.221Z" fill="white"/>
<path d="M57.6051 228.06H53.8545V230.708H57.6051V228.06Z" fill="white"/>
<path d="M63.1949 228.06H59.4443V230.708H63.1949V228.06Z" fill="white"/>
<path d="M70.1256 228.06H66.375V230.708H70.1256V228.06Z" fill="white"/>
<path d="M103.991 185.413H101.969V187.729H103.991V185.413Z" fill="white"/>
<path d="M107.504 185.413H105.481V187.729H107.504V185.413Z" fill="white"/>
<path d="M103.991 188.903H101.969V191.219H103.991V188.903Z" fill="white"/>
<path d="M107.504 188.903H105.481V191.219H107.504V188.903Z" fill="white"/>
<path d="M103.991 192.394H101.969V194.709H103.991V192.394Z" fill="white"/>
<path d="M107.504 192.394H105.481V194.709H107.504V192.394Z" fill="white"/>
<path d="M103.991 195.878H101.969V198.194H103.991V195.878Z" fill="white"/>
<path d="M107.504 195.878H105.481V198.194H107.504V195.878Z" fill="white"/>
<path d="M103.991 199.451H101.969V201.767H103.991V199.451Z" fill="white"/>
<path d="M107.504 199.451H105.481V201.767H107.504V199.451Z" fill="white"/>
<path d="M103.991 203.03H101.969V205.346H103.991V203.03Z" fill="white"/>
<path d="M107.504 203.03H105.481V205.346H107.504V203.03Z" fill="white"/>
<path d="M103.991 206.604H101.969V208.919H103.991V206.604Z" fill="white"/>
<path d="M107.504 206.604H105.481V208.919H107.504V206.604Z" fill="white"/>
<path d="M103.991 210.177H101.969V212.492H103.991V210.177Z" fill="white"/>
<path d="M107.504 210.177H105.481V212.492H107.504V210.177Z" fill="white"/>
<path d="M103.991 213.789H101.969V216.105H103.991V213.789Z" fill="white"/>
<path d="M107.504 213.789H105.481V216.105H107.504V213.789Z" fill="white"/>
<path d="M103.991 217.401H101.969V219.717H103.991V217.401Z" fill="white"/>
<path d="M107.504 217.401H105.481V219.717H107.504V217.401Z" fill="white"/>
<path d="M103.991 221.013H101.969V223.328H103.991V221.013Z" fill="white"/>
<path d="M107.504 221.013H105.481V223.328H107.504V221.013Z" fill="white"/>
<path d="M103.991 224.625H101.969V226.941H103.991V224.625Z" fill="white"/>
<path d="M107.504 224.625H105.481V226.941H107.504V224.625Z" fill="white"/>
<path d="M111.498 185.413H109.476V187.729H111.498V185.413Z" fill="white"/>
<path d="M115.01 185.413H112.988V187.729H115.01V185.413Z" fill="white"/>
<path d="M111.498 188.903H109.476V191.219H111.498V188.903Z" fill="white"/>
<path d="M115.01 188.903H112.988V191.219H115.01V188.903Z" fill="white"/>
<path d="M111.498 192.394H109.476V194.709H111.498V192.394Z" fill="white"/>
<path d="M115.01 192.394H112.988V194.709H115.01V192.394Z" fill="white"/>
<path d="M111.498 195.878H109.476V198.194H111.498V195.878Z" fill="white"/>
<path d="M115.01 195.878H112.988V198.194H115.01V195.878Z" fill="white"/>
<path d="M111.498 199.451H109.476V201.767H111.498V199.451Z" fill="white"/>
<path d="M115.01 199.451H112.988V201.767H115.01V199.451Z" fill="white"/>
<path d="M111.498 203.03H109.476V205.346H111.498V203.03Z" fill="white"/>
<path d="M115.01 203.03H112.988V205.346H115.01V203.03Z" fill="white"/>
<path d="M111.498 206.604H109.476V208.919H111.498V206.604Z" fill="white"/>
<path d="M115.01 206.604H112.988V208.919H115.01V206.604Z" fill="white"/>
<path d="M111.498 210.177H109.476V212.492H111.498V210.177Z" fill="white"/>
<path d="M115.01 210.177H112.988V212.492H115.01V210.177Z" fill="white"/>
<path d="M111.498 213.789H109.476V216.105H111.498V213.789Z" fill="white"/>
<path d="M115.01 213.789H112.988V216.105H115.01V213.789Z" fill="white"/>
<path d="M111.498 217.401H109.476V219.717H111.498V217.401Z" fill="white"/>
<path d="M115.01 217.401H112.988V219.717H115.01V217.401Z" fill="white"/>
<path d="M111.498 221.013H109.476V223.328H111.498V221.013Z" fill="white"/>
<path d="M115.01 221.013H112.988V223.328H115.01V221.013Z" fill="white"/>
<path d="M111.498 224.625H109.476V226.941H111.498V224.625Z" fill="white"/>
<path d="M115.01 224.625H112.988V226.941H115.01V224.625Z" fill="white"/>
<path d="M26.8638 68.4525H86.5129C86.5129 68.4525 80.6018 52.2979 71.4995 52.2979C62.3973 52.2979 59.5442 63.4443 59.5442 63.4443C59.5442 63.4443 53.4004 57.3891 48.359 57.3891C43.3176 57.3891 38.941 65.3944 38.941 65.3944C38.941 65.3944 31.7999 61.0898 26.8638 68.4525Z" fill="#EBEBEB"/>
<path opacity="0.5" d="M167.89 129.005H195.767C195.767 129.005 189.534 119.975 184.632 119.975C179.729 119.975 178.272 125.997 178.272 125.997C178.272 125.997 174.809 123.188 171.624 123.686C168.438 124.185 167.89 129.005 167.89 129.005Z" fill="#EBEBEB"/>
<path d="M195.839 101.083H250.131C250.131 101.083 242.696 84.4633 234.741 83.4495C226.785 82.4357 222.985 95.7815 222.985 95.7815C222.985 95.7815 217.855 91.0559 213.816 91.0559C209.778 91.0559 206.67 97.2829 206.67 97.2829C206.67 97.2829 198.603 93.0171 195.839 101.083Z" fill="#EBEBEB"/>
<path opacity="0.5" d="M169.724 67.5885H206.404C206.404 67.5885 200.105 55.5612 193.269 55.4005C186.432 55.2398 182.82 64.4861 182.82 64.4861C182.82 64.4861 172.206 55.9545 169.724 67.5885Z" fill="#EBEBEB"/>
<path opacity="0.5" d="M76.2305 140.267H112.911C112.911 140.267 106.606 128.24 99.7699 128.079C92.9336 127.919 89.3436 137.181 89.3436 137.181C89.3436 137.181 78.7124 128.633 76.2305 140.267Z" fill="#EBEBEB"/>
<path d="M68.6073 65.4997C68.6412 65.7527 68.5993 66.0101 68.4869 66.2393C68.3745 66.4685 68.1967 66.6592 67.976 66.7874C67.7552 66.9155 67.5014 66.9753 67.2466 66.9593C66.9919 66.9432 66.7476 66.8519 66.5447 66.697C66.3418 66.5422 66.1894 66.3306 66.1067 66.0891C66.024 65.8476 66.0148 65.587 66.0802 65.3402C66.1456 65.0935 66.2827 64.8717 66.4742 64.7028C66.6656 64.534 66.9029 64.4257 67.1559 64.3917C67.495 64.3476 67.8379 64.4392 68.1098 64.6468C68.3817 64.8543 68.5605 65.1609 68.6073 65.4997Z" fill="#2F4153"/>
<path d="M67.3168 88.0023C67.3507 88.2553 67.3088 88.5127 67.1964 88.7419C67.084 88.9711 66.9062 89.1618 66.6854 89.29C66.4647 89.4181 66.2109 89.478 65.9561 89.4619C65.7013 89.4458 65.4571 89.3546 65.2542 89.1997C65.0513 89.0448 64.8988 88.8332 64.8162 88.5917C64.7335 88.3502 64.7243 88.0896 64.7897 87.8429C64.8551 87.5961 64.9922 87.3743 65.1837 87.2055C65.3751 87.0366 65.6123 86.9284 65.8653 86.8943C66.0334 86.8717 66.2043 86.8825 66.3682 86.9259C66.5321 86.9694 66.6858 87.0447 66.8206 87.1476C66.9554 87.2505 67.0686 87.3789 67.1538 87.5256C67.2389 87.6723 67.2943 87.8343 67.3168 88.0023Z" fill="#263238"/>
<path d="M113.155 115.404C113.166 115.488 113.16 115.573 113.138 115.655C113.116 115.737 113.078 115.814 113.026 115.881C112.974 115.948 112.91 116.004 112.837 116.046C112.763 116.089 112.682 116.116 112.598 116.127C112.514 116.138 112.429 116.132 112.347 116.11C112.265 116.088 112.188 116.05 112.121 115.998C112.054 115.947 111.998 115.882 111.956 115.809C111.913 115.735 111.886 115.654 111.875 115.57C111.853 115.4 111.899 115.229 112.004 115.093C112.108 114.958 112.262 114.869 112.432 114.847C112.601 114.825 112.773 114.871 112.909 114.976C113.044 115.08 113.133 115.234 113.155 115.404Z" fill="#2F4153"/>
<path d="M90.4626 42.3583C90.4802 42.4855 90.4596 42.615 90.4034 42.7305C90.3473 42.846 90.2581 42.9422 90.1472 43.0069C90.0362 43.0716 89.9086 43.1019 89.7804 43.0939C89.6522 43.086 89.5293 43.0402 89.4272 42.9622C89.3252 42.8843 89.2485 42.7778 89.2071 42.6563C89.1656 42.5348 89.1612 42.4036 89.1944 42.2796C89.2275 42.1555 89.2968 42.0441 89.3934 41.9595C89.49 41.8749 89.6095 41.8208 89.7369 41.8043C89.9065 41.7822 90.0779 41.828 90.2138 41.9318C90.3498 42.0356 90.4392 42.1888 90.4626 42.3583Z" fill="#2F4153"/>
<path d="M170.632 27.861C170.654 28.0307 170.608 28.2022 170.504 28.3378C170.399 28.4734 170.245 28.5619 170.076 28.5839C169.906 28.606 169.734 28.5597 169.599 28.4553C169.463 28.3509 169.375 28.1969 169.353 28.0272C169.331 27.8575 169.377 27.686 169.481 27.5504C169.586 27.4148 169.74 27.3262 169.909 27.3042C170.079 27.2822 170.251 27.3284 170.386 27.4329C170.522 27.5373 170.61 27.6913 170.632 27.861Z" fill="#263238"/>
<path d="M97.7755 76.9612C97.7954 77.0489 97.7967 77.1399 97.7795 77.2282C97.7623 77.3165 97.7269 77.4003 97.6755 77.4742C97.6242 77.5481 97.558 77.6105 97.4812 77.6574C97.4044 77.7043 97.3187 77.7347 97.2295 77.7467C97.1403 77.7586 97.0496 77.7519 96.9632 77.7269C96.8767 77.7019 96.7965 77.6592 96.7274 77.6014C96.6584 77.5437 96.6022 77.4722 96.5623 77.3916C96.5224 77.3109 96.4997 77.2228 96.4958 77.1329C96.4886 76.9712 96.5422 76.8126 96.6461 76.6884C96.75 76.5642 96.8966 76.4834 97.0571 76.4618C97.2176 76.4403 97.3803 76.4796 97.5133 76.572C97.6462 76.6644 97.7398 76.8032 97.7755 76.9612Z" fill="#263238"/>
<path d="M157.208 134.971C157.219 135.055 157.214 135.141 157.192 135.223C157.169 135.304 157.132 135.381 157.08 135.448C157.028 135.515 156.964 135.572 156.89 135.614C156.817 135.656 156.736 135.683 156.652 135.694C156.568 135.705 156.482 135.699 156.4 135.677C156.319 135.655 156.242 135.617 156.175 135.566C156.108 135.514 156.051 135.45 156.009 135.376C155.967 135.303 155.94 135.222 155.929 135.138C155.907 134.968 155.953 134.796 156.057 134.661C156.162 134.525 156.316 134.437 156.485 134.415C156.655 134.393 156.827 134.439 156.962 134.543C157.098 134.648 157.186 134.802 157.208 134.971Z" fill="#455A64"/>
<path d="M65.6768 138.7C65.6933 138.826 65.672 138.954 65.6157 139.068C65.5593 139.182 65.4705 139.276 65.3603 139.34C65.2502 139.403 65.1237 139.433 64.9968 139.424C64.87 139.416 64.7485 139.37 64.6478 139.292C64.547 139.215 64.4715 139.109 64.4308 138.989C64.3901 138.868 64.386 138.739 64.4191 138.616C64.4521 138.493 64.5209 138.383 64.6165 138.299C64.7122 138.216 64.8306 138.162 64.9566 138.146C65.0404 138.134 65.1257 138.139 65.2074 138.161C65.2892 138.182 65.3658 138.22 65.4329 138.272C65.4999 138.323 65.556 138.388 65.5979 138.461C65.6398 138.535 65.6666 138.616 65.6768 138.7Z" fill="#2F4153"/>
<path d="M46.2314 114.351C46.2652 114.604 46.2233 114.861 46.111 115.09C45.9986 115.319 45.8208 115.51 45.6 115.638C45.3792 115.767 45.1254 115.826 44.8707 115.81C44.6159 115.794 44.3716 115.703 44.1687 115.548C43.9658 115.393 43.8134 115.182 43.7307 114.94C43.648 114.699 43.6388 114.438 43.7042 114.191C43.7696 113.944 43.9068 113.723 44.0982 113.554C44.2897 113.385 44.5269 113.277 44.7799 113.243C44.9481 113.219 45.1192 113.23 45.2834 113.273C45.4476 113.316 45.6016 113.391 45.7366 113.494C45.8716 113.597 45.9848 113.726 46.0697 113.873C46.1546 114.02 46.2096 114.182 46.2314 114.351Z" fill="#2F4153"/>
<path d="M124.888 27.7719C124.922 28.0249 124.88 28.2822 124.768 28.5114C124.655 28.7406 124.477 28.9314 124.257 29.0595C124.036 29.1877 123.782 29.2475 123.527 29.2314C123.273 29.2153 123.028 29.1241 122.825 28.9692C122.623 28.8143 122.47 28.6027 122.387 28.3612C122.305 28.1197 122.296 27.8591 122.361 27.6124C122.426 27.3656 122.563 27.1438 122.755 26.975C122.946 26.8062 123.184 26.6979 123.437 26.6639C123.605 26.6413 123.776 26.652 123.939 26.6954C124.103 26.7389 124.257 26.8142 124.392 26.9171C124.527 27.02 124.64 27.1485 124.725 27.2951C124.81 27.4418 124.866 27.6038 124.888 27.7719Z" fill="#2F4153"/>
<path d="M212.536 157.59L214.365 156.975C214.365 156.975 213.118 156.333 213.118 154.333C213.118 152.333 214.83 151.563 214.093 149.74L212.054 150.294C212.284 150.77 212.411 151.288 212.427 151.816C212.443 152.344 212.348 152.869 212.149 153.358C211.628 154.499 211.118 155.867 212.536 157.59Z" fill="#2F4153"/>
<path d="M60.7848 153.264L58.9788 152.583C58.9788 152.583 59.5328 153.868 58.2807 155.419C57.0287 156.971 55.195 156.527 54.6299 158.378L56.5523 159.237C56.6749 158.723 56.9039 158.24 57.2245 157.82C57.5451 157.4 57.9503 157.053 58.4137 156.799C59.5605 156.228 60.7959 155.491 60.7848 153.264Z" fill="#2F4153"/>
<path d="M110.966 68.1414L109.138 67.4766C109.138 67.4766 109.692 68.7618 108.44 70.313C107.188 71.8642 105.354 71.421 104.789 73.2659L106.711 74.1301C106.833 73.6158 107.062 73.133 107.382 72.713C107.703 72.293 108.109 71.9453 108.573 71.6925C109.742 71.133 110.977 70.3851 110.966 68.1414Z" fill="#455A64"/>
<path d="M176.726 125.907L174.92 125.231C174.92 125.231 175.474 126.517 174.222 128.068C172.97 129.619 171.136 129.176 170.571 131.021L172.494 131.885C172.615 131.371 172.844 130.888 173.165 130.468C173.485 130.048 173.891 129.7 174.355 129.447C175.513 128.888 176.754 128.14 176.726 125.907Z" fill="#455A64"/>
<path d="M99.7199 108.872L99.9803 106.966C99.9803 106.966 98.8723 107.797 97.0607 106.91C95.2491 106.024 95.3211 104.14 93.3711 104.002L92.9556 106.068C93.4805 106.077 93.9979 106.194 94.4748 106.414C94.9517 106.633 95.3777 106.949 95.7256 107.343C96.5621 108.34 97.5704 109.381 99.7199 108.872Z" fill="#2F4153"/>
<path d="M186.565 146.522L186.826 144.61C186.826 144.61 185.718 145.441 183.906 144.555C182.094 143.669 182.166 141.785 180.216 141.646L179.801 143.713C180.326 143.722 180.844 143.84 181.321 144.06C181.798 144.281 182.224 144.598 182.571 144.993C183.374 145.984 184.393 147.026 186.565 146.522Z" fill="#455A64"/>
<path d="M178.765 58.2193L179.025 56.3135C179.025 56.3135 177.917 57.1445 176.106 56.2581C174.294 55.3717 174.366 53.4881 172.416 53.3496L172 55.416C172.525 55.4243 173.043 55.5419 173.52 55.7613C173.997 55.9807 174.423 56.2971 174.77 56.6902C175.585 57.6819 176.593 58.7234 178.765 58.2193Z" fill="#2F4153"/>
<path d="M213.844 67.3658L211.816 66.2578C211.816 66.2578 210.154 68.7342 212.149 69.9862C212.143 69.9918 211.733 68.3796 213.844 67.3658Z" fill="#2F4153"/>
<path d="M212.182 73.0112L214.321 72.219C214.321 72.219 214.448 70.3852 212.132 70.003C212.143 69.9919 213.595 71.6539 212.182 73.0112Z" fill="#2F4153"/>
<path d="M105.581 126.766L103.548 125.658C103.548 125.658 101.886 128.14 103.881 129.387C103.881 129.392 103.476 127.786 105.581 126.766Z" fill="#455A64"/>
<path d="M103.936 132.405L106.069 131.608C106.069 131.608 106.196 129.779 103.853 129.392C103.881 129.392 105.332 131.054 103.936 132.405Z" fill="#455A64"/>
<path d="M184.831 53.5712C184.797 53.318 184.839 53.0603 184.951 52.8309C185.064 52.6015 185.242 52.4106 185.463 52.2824C185.684 52.1543 185.938 52.0947 186.193 52.1111C186.448 52.1275 186.692 52.2192 186.895 52.3746C187.098 52.5301 187.25 52.7422 187.332 52.9841C187.415 53.2261 187.423 53.487 187.357 53.7338C187.291 53.9806 187.153 54.2022 186.96 54.3705C186.768 54.5388 186.53 54.6462 186.277 54.6792C185.938 54.7233 185.596 54.6315 185.325 54.4238C185.054 54.2162 184.876 53.9096 184.831 53.5712Z" fill="#263238"/>
<path d="M205.235 84.9777C205.201 84.7247 205.243 84.4674 205.355 84.2382C205.468 84.009 205.646 83.8182 205.866 83.6901C206.087 83.5619 206.341 83.5021 206.596 83.5182C206.851 83.5343 207.095 83.6255 207.298 83.7804C207.501 83.9353 207.653 84.1469 207.736 84.3884C207.818 84.6299 207.828 84.8905 207.762 85.1372C207.697 85.384 207.56 85.6058 207.368 85.7746C207.177 85.9434 206.94 86.0517 206.687 86.0857C206.518 86.1084 206.348 86.0976 206.184 86.0542C206.02 86.0107 205.866 85.9354 205.731 85.8325C205.596 85.7296 205.483 85.6011 205.398 85.4545C205.313 85.3078 205.258 85.1458 205.235 84.9777Z" fill="#2F4153"/>
<path d="M199.883 131.525C199.867 131.399 199.888 131.271 199.944 131.157C200.001 131.043 200.09 130.948 200.2 130.885C200.31 130.821 200.437 130.792 200.563 130.8C200.69 130.809 200.812 130.855 200.912 130.932C201.013 131.01 201.089 131.115 201.129 131.236C201.17 131.356 201.174 131.486 201.141 131.609C201.108 131.731 201.039 131.842 200.944 131.925C200.848 132.009 200.73 132.062 200.604 132.079C200.435 132.101 200.264 132.055 200.129 131.951C199.994 131.847 199.905 131.694 199.883 131.525Z" fill="#2F4153"/>
<path d="M125.005 110.855L124.739 112.766C124.739 112.766 125.847 111.935 127.658 112.822C129.47 113.708 129.403 115.592 131.354 115.73L131.763 113.664C131.239 113.655 130.721 113.538 130.244 113.318C129.767 113.099 129.341 112.783 128.993 112.389C128.179 111.392 127.176 110.351 125.005 110.855Z" fill="#455A64"/>
<path d="M231.201 132.611L228.126 133.481C228.126 133.481 226.658 129.636 229.711 128.55C229.711 128.528 228.669 130.6 231.201 132.611Z" fill="#455A64"/>
<path d="M230.697 124.489L233.339 126.212C233.339 126.212 232.951 128.722 229.71 128.55C229.71 128.528 232.17 126.75 230.697 124.489Z" fill="#455A64"/>
<path d="M176.172 101.597L173.081 102.489C173.081 102.489 171.618 98.6446 174.665 97.5588C174.665 97.5366 173.629 99.5864 176.172 101.597Z" fill="#263238"/>
<path d="M175.657 93.4766L178.299 95.1995C178.299 95.1995 177.911 97.7091 174.665 97.5374C174.665 97.5374 177.13 95.7369 175.657 93.4766Z" fill="#263238"/>
<path d="M71.1723 119.758L68.0921 120.628C68.0921 120.628 66.6295 116.783 69.6765 115.697C69.6765 115.697 68.635 117.747 71.1723 119.758Z" fill="#263238"/>
<path d="M70.6684 111.637L73.311 113.36C73.311 113.36 72.9177 115.869 69.6768 115.698C69.6768 115.698 72.1421 113.897 70.6684 111.637Z" fill="#263238"/>
<path d="M200.415 95.4095L202.448 96.5175C202.448 96.5175 204.11 94.0356 202.116 92.7891C202.116 92.7835 202.52 94.3901 200.415 95.4095Z" fill="#455A64"/>
<path d="M202.06 89.748L199.922 90.5458C199.922 90.5458 199.8 92.374 202.138 92.7618C202.116 92.784 200.664 91.122 202.06 89.748Z" fill="#455A64"/>
<path d="M129.73 85.6595L131.764 86.7675C131.764 86.7675 133.426 84.2911 131.431 83.0391C131.431 83.0335 131.852 84.6457 129.73 85.6595Z" fill="#2F4153"/>
<path d="M131.376 80.0137L129.237 80.8059C129.237 80.8059 129.116 82.6396 131.453 83.0219C131.431 83.033 129.98 81.3765 131.376 80.0137Z" fill="#2F4153"/>
<path d="M147.542 158.926L147.879 161.208C147.879 161.208 150.849 161.036 150.649 158.704C150.688 158.704 149.619 159.995 147.542 158.926Z" fill="#2F4153"/>
<path d="M153.043 156.848L151.126 155.618C151.126 155.618 149.586 156.615 150.66 158.704C150.688 158.704 151.115 156.549 153.043 156.848Z" fill="#2F4153"/>
<path d="M18.4814 247.533L48.4861 247.4L78.4907 247.35L138.5 247.256L198.509 247.35L228.514 247.4L258.519 247.533L228.514 247.671L198.509 247.716L138.5 247.81L78.4907 247.716L48.4861 247.666L18.4814 247.533Z" fill="#263238"/>
<path d="M164.92 118.234C156.699 123.509 142.583 126.988 131.564 126.018C129.831 125.891 128.111 125.618 126.423 125.204C124.157 124.65 121.952 124.024 119.825 123.442C105.665 119.564 93.4434 116.24 72.3692 121.985C47.201 128.844 41.589 131.957 41.1014 132.024L44.8188 127.974L39.8882 124.899C40.0045 124.899 45.6996 121.758 70.4524 115.01C93.4212 108.756 107.155 112.506 121.697 116.473C123.803 117.027 125.974 117.642 128.179 118.207C129.034 118.421 129.899 118.591 130.772 118.716C141.254 120.223 156.433 116.5 162.699 111.514C163.357 111.012 163.901 110.376 164.294 109.647L164.4 117.403C164.538 117.52 164.682 117.813 164.92 118.234Z" fill="#2F4153"/>
<path opacity="0.2" d="M164.92 118.234C156.699 123.509 142.583 126.988 131.564 126.018C129.831 125.891 128.111 125.618 126.423 125.204C124.157 124.65 121.952 124.024 119.825 123.442C105.665 119.564 93.4434 116.24 72.3692 121.985C47.201 128.844 41.589 131.957 41.1014 132.024L44.8188 127.974L39.8882 124.899C40.0045 124.899 45.6996 121.758 70.4524 115.01C93.4212 108.756 107.155 112.506 121.697 116.473C123.803 117.027 125.974 117.642 128.179 118.207C129.034 118.421 129.899 118.591 130.772 118.716C141.254 120.223 156.433 116.5 162.699 111.514C163.357 111.012 163.901 110.376 164.294 109.647L164.4 117.403C164.538 117.52 164.682 117.813 164.92 118.234Z" fill="black"/>
<path d="M163.275 106.955C163.275 106.955 163.402 125.581 159.757 129.603C159.757 129.603 135.708 173.873 122.75 176.388C111.775 178.521 71.8149 148.932 71.8149 148.932L84.4517 129.464C84.4517 129.464 91.4376 132.866 100.966 138.068C108.833 142.367 115.592 147.236 115.797 146.876C118.778 141.514 130.932 126.273 130.694 125.27C128.063 114.118 136.018 106.988 136.018 106.988L163.275 106.955Z" fill="#263238"/>
<path d="M159.752 129.603C159.752 129.603 153.846 140.483 146.306 151.763L130.689 125.254C128.068 114.107 136.024 106.972 136.024 106.972H163.281C163.281 106.972 163.397 125.581 159.752 129.603Z" fill="#37474F"/>
<path d="M35.5613 145.314C35.9214 143.968 56.8792 112.523 58.4415 111.836C59.0287 111.565 84.4795 129.464 84.4795 129.464L71.8538 148.854L55.6438 138.406C55.6438 138.406 42.5805 146.644 40.7855 147.22C38.9905 147.796 35.1956 146.655 35.5613 145.314Z" fill="#EB9481"/>
<path d="M35.5669 145.315C35.927 143.968 56.8793 112.523 58.436 111.836C58.7185 111.703 66.746 117.166 71.5381 120.457L58.5579 140.318L55.6161 138.428C55.6161 138.428 42.5805 146.639 40.7856 147.22C38.9906 147.802 35.1957 146.65 35.5669 145.315Z" fill="#EBEBEB"/>
<path d="M35.4893 145.458C35.8549 144.123 56.7352 112.273 58.2809 111.581C58.8681 111.315 63.627 114.506 68.6794 118.489L55.5663 138.755C55.5663 138.755 42.4752 146.777 40.6969 147.364C38.9186 147.951 35.1292 146.81 35.4893 145.458Z" fill="#2F4153"/>
<path d="M37.0405 145.846C40.6692 140.682 54.7962 119.514 57.9872 114.135C57.9872 114.09 57.9872 114.068 57.954 114.135C54.2533 119.171 40.2925 140.455 36.9574 145.807C36.8854 145.901 36.9685 145.951 37.0405 145.846Z" fill="#263238"/>
<path d="M43.1621 146.09C43.5672 145.517 43.8484 144.865 43.9876 144.178C44.1269 143.49 44.1212 142.781 43.971 142.095C43.7143 140.859 42.9899 139.769 41.9489 139.054C41.9489 139.054 41.8824 139.087 41.9101 139.115C42.8317 139.984 43.4457 141.13 43.6595 142.379C43.8733 143.628 43.6754 144.913 43.0956 146.04C43.0735 146.09 43.1344 146.134 43.1621 146.09Z" fill="#263238"/>
<path d="M53.943 140.046C55.3723 137.968 56.2532 135.06 55.4056 132.589C55.3723 132.495 55.2394 132.539 55.2283 132.622C54.9676 135.102 54.442 137.546 53.6605 139.913C53.6533 139.948 53.6581 139.985 53.6743 140.017C53.6904 140.049 53.7169 140.075 53.7495 140.091C53.7821 140.106 53.8189 140.11 53.854 140.102C53.8891 140.094 53.9204 140.074 53.943 140.046Z" fill="#263238"/>
<path d="M52.2311 141.27C53.6604 139.193 54.5413 136.284 53.6937 133.808C53.6604 133.714 53.5275 133.764 53.5164 133.847C53.255 136.326 52.7294 138.77 51.9486 141.137C51.9414 141.173 51.9462 141.209 51.9623 141.241C51.9785 141.274 52.005 141.3 52.0376 141.315C52.0702 141.33 52.107 141.334 52.1421 141.326C52.1772 141.318 52.2085 141.298 52.2311 141.27Z" fill="#263238"/>
<path d="M50.5195 142.45C51.9489 140.367 52.8297 137.464 51.9821 134.988C51.9489 134.893 51.8159 134.943 51.8048 135.026C51.5434 137.504 51.0178 139.946 50.237 142.311C50.2278 142.347 50.2312 142.385 50.2467 142.419C50.2621 142.452 50.2887 142.479 50.3219 142.496C50.3551 142.512 50.3928 142.516 50.4289 142.508C50.4649 142.5 50.4969 142.479 50.5195 142.45Z" fill="#263238"/>
<path d="M48.8076 143.652C50.2369 141.569 51.1178 138.638 50.2702 136.19C50.2369 136.096 50.104 136.145 50.0929 136.228C49.8315 138.706 49.3059 141.148 48.5251 143.514C48.5159 143.549 48.5193 143.587 48.5348 143.621C48.5502 143.654 48.5768 143.682 48.61 143.698C48.6432 143.714 48.6809 143.718 48.7169 143.71C48.7529 143.702 48.785 143.681 48.8076 143.652Z" fill="#263238"/>
<path d="M62.0815 118.788C63.6438 116.428 59.9763 113.996 58.4141 116.362C56.8518 118.727 60.5192 121.154 62.0815 118.788Z" fill="#263238"/>
<path d="M58.0374 146.057C59.633 145.575 59.6607 143.658 59.1842 142.4C58.5009 140.693 57.4709 139.146 56.1594 137.857C55.9821 137.669 55.7937 137.497 55.6054 137.303C55.5187 137.238 55.4354 137.167 55.3561 137.093L55.2841 137.049L55.0791 136.882C55.0706 136.877 55.061 136.873 55.051 136.872C55.0409 136.87 55.0307 136.871 55.0211 136.875C55.0114 136.878 55.0027 136.883 54.9954 136.89C54.9882 136.897 54.9827 136.906 54.9794 136.916C54.9206 136.895 54.8572 136.891 54.7965 136.905C54.7358 136.919 54.6801 136.949 54.6359 136.993C54.6103 137.016 54.59 137.044 54.5766 137.076C54.5632 137.107 54.557 137.142 54.5583 137.176C54.5583 137.78 54.5583 138.4 54.5583 139.021C54.5527 139.128 54.5527 139.235 54.5583 139.342C54.4796 140.853 54.6556 142.366 55.0791 143.818C55.489 145.07 56.5361 146.5 58.0374 146.057ZM55.2674 140.517C55.2674 139.996 55.2342 139.475 55.2176 138.96C55.201 138.445 55.1843 138.085 55.1622 137.647C55.1622 137.586 55.1622 137.519 55.1622 137.464C55.1622 137.409 55.1622 137.348 55.1622 137.298L55.2619 137.42C55.4724 137.702 55.6774 137.974 55.8935 138.245C56.4654 138.98 56.9962 139.745 57.4834 140.539C57.8242 141.087 58.1277 141.657 58.392 142.245C58.7798 143.165 59.1565 146.4 56.73 145.082C55.4004 144.367 55.345 141.78 55.2951 140.505L55.2674 140.517Z" fill="#263238"/>
<path d="M54.9015 137.442C54.9012 137.452 54.9033 137.463 54.9076 137.472C54.9119 137.481 54.9184 137.49 54.9264 137.496C54.9345 137.502 54.9439 137.507 54.954 137.509C54.9641 137.511 54.9746 137.511 54.9846 137.508C55.0509 137.497 55.1159 137.478 55.1785 137.453C55.2035 137.462 55.2311 137.462 55.2561 137.453C55.3724 137.437 55.486 137.405 55.594 137.359C56.0016 137.244 56.3998 137.097 56.7851 136.921C58.3342 136.272 59.7446 135.331 60.9401 134.151C61.893 133.193 62.6353 131.431 61.3722 130.351C61.3265 130.313 61.2784 130.277 61.2282 130.246C60.0592 129.398 58.6022 130.246 57.7546 131.176C56.9083 132.174 56.219 133.295 55.7103 134.5C55.3392 135.337 54.9901 136.162 54.6023 136.999C54.5772 137.047 54.5657 137.102 54.5689 137.156C54.5721 137.211 54.5899 137.264 54.6205 137.309C54.6511 137.354 54.6933 137.391 54.7428 137.414C54.7922 137.437 54.847 137.447 54.9015 137.442ZM56.63 134.312C57.184 133.16 58.292 130.822 59.821 130.694C60.1716 130.647 60.5285 130.691 60.857 130.822C62.0315 131.376 60.785 133.387 60.1811 133.957C59.7026 134.393 59.1955 134.797 58.6632 135.165C58.2643 135.448 57.8599 135.719 57.4333 135.946C56.7519 136.356 56.0538 136.727 55.3613 137.121C55.317 137.121 55.2782 137.176 55.2339 137.193C55.2607 137.154 55.2813 137.111 55.2948 137.065C55.3613 136.954 55.4167 136.855 55.4721 136.738C55.8655 135.941 56.2311 135.121 56.63 134.312Z" fill="#263238"/>
<path d="M244.442 225.528C243.572 226.636 211.816 247.095 210.094 247.134C209.445 247.134 193.269 220.592 193.269 220.592L212.592 207.85L223.284 223.916C223.284 223.916 238.519 221.583 240.392 221.766C242.264 221.949 245.311 224.442 244.442 225.528Z" fill="#EB9481"/>
<path d="M244.436 225.528C243.572 226.636 211.811 247.095 210.088 247.134C209.778 247.134 204.598 238.929 201.512 233.999L221.34 220.963L223.279 223.871C223.279 223.871 238.508 221.539 240.386 221.722C242.264 221.905 245.311 224.448 244.436 225.528Z" fill="#EBEBEB"/>
<path d="M244.563 225.423C243.699 226.531 211.85 247.383 210.154 247.4C209.506 247.4 206.421 242.586 203.374 236.918L223.478 223.567C223.478 223.567 238.685 221.423 240.547 221.606C242.408 221.789 245.422 224.337 244.563 225.423Z" fill="#2F4153"/>
<path d="M243.295 224.448C237.91 227.739 216.514 241.517 211.44 245.173C211.401 245.206 211.44 245.234 211.44 245.206C216.847 242.065 238.137 228.115 243.328 224.537C243.461 224.459 243.411 224.37 243.295 224.448Z" fill="#263238"/>
<path d="M237.783 221.783C237.185 222.146 236.669 222.628 236.266 223.2C235.864 223.772 235.584 224.421 235.445 225.107C235.189 226.341 235.419 227.627 236.087 228.696C236.087 228.73 236.165 228.696 236.148 228.658C235.65 227.493 235.543 226.199 235.842 224.968C236.142 223.738 236.832 222.637 237.81 221.832C237.866 221.816 237.821 221.755 237.783 221.783Z" fill="#263238"/>
<path d="M225.478 223.024C223.34 224.365 221.362 226.697 221.163 229.284C221.163 229.384 221.296 229.395 221.34 229.318C222.569 227.149 224.027 225.119 225.689 223.262C225.714 223.233 225.727 223.195 225.727 223.157C225.726 223.118 225.712 223.081 225.686 223.052C225.661 223.023 225.626 223.005 225.588 222.999C225.549 222.994 225.511 223.003 225.478 223.024Z" fill="#263238"/>
<path d="M227.533 222.603C225.389 223.943 223.417 226.281 223.218 228.863C223.218 228.963 223.351 228.974 223.395 228.902C224.622 226.732 226.078 224.7 227.738 222.841C227.761 222.812 227.772 222.776 227.771 222.739C227.77 222.702 227.756 222.667 227.732 222.639C227.708 222.611 227.675 222.592 227.639 222.586C227.603 222.579 227.566 222.585 227.533 222.603Z" fill="#263238"/>
<path d="M229.583 222.188C227.439 223.528 225.467 225.861 225.268 228.448C225.268 228.548 225.401 228.559 225.445 228.481C226.672 226.313 228.128 224.283 229.788 222.426C229.811 222.397 229.822 222.361 229.821 222.324C229.82 222.287 229.806 222.252 229.782 222.224C229.758 222.196 229.725 222.177 229.689 222.171C229.653 222.164 229.616 222.17 229.583 222.188Z" fill="#263238"/>
<path d="M231.633 221.766C229.489 223.106 227.517 225.444 227.317 228.026C227.317 228.126 227.45 228.137 227.495 228.065C228.722 225.895 230.178 223.863 231.838 222.004C231.86 221.975 231.872 221.939 231.871 221.902C231.87 221.865 231.856 221.83 231.832 221.802C231.808 221.774 231.775 221.755 231.739 221.749C231.703 221.742 231.665 221.748 231.633 221.766Z" fill="#263238"/>
<path d="M209.545 239.273C207.168 240.813 209.545 244.508 211.938 242.963C214.332 241.417 211.922 237.727 209.545 239.273Z" fill="#263238"/>
<path d="M224.126 215.883C222.464 215.683 221.683 217.434 221.617 218.78C221.564 220.616 221.891 222.444 222.575 224.149C222.664 224.392 222.769 224.625 222.874 224.852C222.93 224.946 222.974 225.046 223.018 225.14L223.068 225.212L223.19 225.445C223.196 225.453 223.204 225.459 223.213 225.464C223.223 225.468 223.233 225.471 223.243 225.471C223.253 225.471 223.263 225.468 223.272 225.464C223.281 225.459 223.289 225.453 223.295 225.445C223.341 225.488 223.398 225.518 223.46 225.53C223.522 225.541 223.586 225.535 223.644 225.511C223.676 225.501 223.706 225.483 223.731 225.46C223.756 225.437 223.775 225.409 223.788 225.378C224.016 224.824 224.27 224.27 224.52 223.683C224.57 223.589 224.608 223.495 224.653 223.395C225.327 222.04 225.769 220.581 225.96 219.079C226.071 217.805 225.683 216.06 224.126 215.883ZM224.431 222.065C224.243 222.553 224.043 223.035 223.877 223.511C223.711 223.988 223.556 224.331 223.401 224.741C223.401 224.797 223.356 224.863 223.34 224.913L223.284 225.068C223.284 225.018 223.257 224.968 223.246 224.919C223.162 224.581 223.09 224.248 223.002 223.91C222.764 223.01 222.579 222.096 222.448 221.174C222.356 220.535 222.306 219.891 222.298 219.246C222.298 218.248 223.251 215.135 224.946 217.307C225.86 218.481 224.891 220.88 224.431 222.065Z" fill="#263238"/>
<path d="M223.567 225.029C223.571 225.02 223.573 225.01 223.573 224.999C223.573 224.989 223.57 224.979 223.565 224.97C223.56 224.961 223.554 224.953 223.545 224.947C223.537 224.941 223.527 224.937 223.517 224.935C223.451 224.928 223.384 224.928 223.317 224.935C223.305 224.929 223.292 224.926 223.279 224.926C223.265 224.926 223.252 224.929 223.24 224.935C223.127 224.907 223.012 224.892 222.896 224.891C222.476 224.832 222.052 224.806 221.628 224.813C219.951 224.786 218.285 225.082 216.719 225.683C215.467 226.182 214.082 227.5 214.808 229.007C214.834 229.061 214.864 229.112 214.897 229.162C215.633 230.403 217.312 230.198 218.453 229.716C219.634 229.134 220.718 228.374 221.666 227.461C222.342 226.846 222.996 226.204 223.666 225.605C223.725 225.576 223.774 225.529 223.803 225.47C223.833 225.412 223.843 225.345 223.832 225.28C223.821 225.215 223.789 225.156 223.741 225.11C223.693 225.065 223.632 225.037 223.567 225.029ZM220.736 227.212C219.755 228.043 217.805 229.744 216.365 229.256C216.024 229.164 215.714 228.982 215.467 228.73C214.603 227.76 216.575 226.403 217.334 226.121C217.947 225.913 218.572 225.747 219.207 225.622C219.683 225.522 220.165 225.45 220.647 225.389C221.439 225.29 222.226 225.229 223.018 225.14H223.168C223.128 225.168 223.091 225.2 223.057 225.234C222.952 225.312 222.863 225.384 222.763 225.467C222.082 226.032 221.423 226.63 220.736 227.212Z" fill="#263238"/>
<path d="M213.179 208.448L193.285 220.564C193.285 220.564 173.003 199.274 168.355 180.892C166.954 175.352 143.276 140.838 135.331 132.19C124.877 120.805 135.414 106.938 135.414 106.938H164.289L164.433 117.359C166.704 121.043 213.179 208.448 213.179 208.448Z" fill="#263238"/>
<path d="M158.444 112.462C159.563 113.127 160.626 113.881 161.624 114.717C162.635 115.537 163.58 116.435 164.45 117.404C163.33 116.738 162.266 115.982 161.27 115.143C160.259 114.325 159.314 113.428 158.444 112.462Z" fill="#37474F"/>
<path d="M153.536 53.3668C153.181 51.1508 152.71 48.8185 149.397 47.7437C142.289 45.4446 137.209 55.1341 129.005 58.2365C119.121 61.9926 115.155 67.9592 119.177 71.7929C123.669 76.0864 132.013 73.6931 138.916 61.8209C143.237 54.4028 147.087 52.5303 148.86 52.558C150.14 52.558 151.935 55.1507 151.935 55.1507L153.536 53.3668Z" fill="#263238"/>
<path d="M141.398 57.8047C140.628 58.9127 139.991 60.137 139.315 61.317C138.639 62.4971 137.985 63.6882 137.287 64.846C136.589 66.0039 135.852 67.1451 135.038 68.2199C134.245 69.3034 133.347 70.3055 132.357 71.2115C131.384 72.1247 130.244 72.8414 128.999 73.3222C127.722 73.764 126.378 73.9814 125.027 73.9649C123.66 73.9518 122.315 73.6259 121.094 73.012C120.476 72.7047 119.901 72.3193 119.382 71.8652C119.125 71.6369 118.882 71.3926 118.656 71.1339C118.42 70.8793 118.222 70.592 118.069 70.2808C118.349 70.9258 118.758 71.5065 119.271 71.9871C119.767 72.4894 120.325 72.9251 120.933 73.2834C121.553 73.6382 122.213 73.9172 122.9 74.1144C123.588 74.309 124.296 74.4243 125.01 74.4579C125.719 74.4932 126.43 74.4617 127.132 74.3637L127.659 74.2807L128.174 74.1754C128.523 74.0996 128.867 74.0034 129.204 73.8873C130.53 73.3879 131.745 72.6352 132.783 71.6713C134.765 69.7541 136.428 67.5322 137.708 65.0898C138.378 63.8931 138.988 62.6743 139.581 61.45C140.173 60.2257 140.755 59.0013 141.398 57.8047Z" fill="#263238"/>
<path d="M153.552 54.01C153.486 53.0669 153.3 52.1361 152.998 51.24C152.692 50.3653 152.191 49.5719 151.533 48.9201C150.874 48.2682 150.076 47.7752 149.198 47.4783C148.762 47.3301 148.313 47.2243 147.857 47.1626C147.407 47.0879 146.95 47.06 146.494 47.0795C145.585 47.1496 144.695 47.3764 143.863 47.7498C143.024 48.1436 142.227 48.6225 141.486 49.1791C139.979 50.2871 138.583 51.5724 137.137 52.8078C135.697 54.074 134.164 55.2296 132.55 56.2648C130.894 57.2311 129.166 58.0682 127.381 58.7689C125.614 59.4346 123.892 60.2174 122.229 61.1123C121.4 61.5667 120.633 62.1252 119.947 62.7743L119.448 63.2673C119.293 63.4502 119.154 63.6385 119.005 63.8213L118.783 64.0983L118.595 64.3975L118.224 65.0069C119.046 63.2605 120.374 61.8014 122.035 60.8187C123.684 59.8545 125.394 58.9995 127.154 58.2592C128.883 57.514 130.56 56.6534 132.173 55.6831C133.749 54.656 135.246 53.5116 136.65 52.2594C138.101 51.0406 139.497 49.7442 141.082 48.6307C141.871 48.0588 142.718 47.5705 143.608 47.1736C144.516 46.7813 145.489 46.5615 146.478 46.5255C146.972 46.5232 147.466 46.5714 147.951 46.6695C148.433 46.7569 148.905 46.8867 149.364 47.0573C150.286 47.3928 151.115 47.944 151.781 48.6648C152.447 49.3857 152.931 50.2553 153.192 51.2012C153.445 52.1157 153.566 53.0614 153.552 54.01Z" fill="#263238"/>
<path d="M155.807 53.4941C155.741 52.8071 155.143 51.9872 154.699 51.9207C154.256 51.8543 151.143 53.6603 150.96 54.5356C150.777 55.4109 152.328 55.9705 152.328 55.9705L155.807 53.4941Z" fill="#2F4153"/>
<path d="M161.264 77.2939C165.258 68.4299 169.125 61.4994 175.114 51.0066C178.227 45.5442 183.646 36.7467 185.036 34.3866C186.87 31.3064 199.966 43.2506 198.487 45.1896C197.523 46.4694 192.033 54.4137 186.731 60.0313C179.923 67.2333 174.898 73.9256 167.297 81.3714C161.552 87.0166 158.627 83.1497 161.264 77.2939Z" fill="#EB9481"/>
<path d="M194.803 48.9845C198.088 47.7103 208.055 40.6745 209.706 38.8796C211.357 37.0846 215.739 31.4781 214.476 30.071C213.213 28.6638 211.8 30.1929 211.8 30.1929C211.8 30.1929 213.462 27.3176 211.872 26.2428C210.609 25.3897 208.509 27.4395 208.509 27.4395C208.509 27.4395 210.171 24.193 208.454 23.3288C206.897 22.5366 205.191 25.3232 205.191 25.3232C205.191 25.3232 206.299 22.4646 204.637 21.9992C202.659 21.4452 200.759 26.3758 198.764 28.2483C198.316 28.6749 185.707 36.2869 185.707 36.2869L194.803 48.9845Z" fill="#EB9481"/>
<path d="M205.113 25.1737C203.302 28.7304 202.449 30.1597 199.363 32.4311C199.302 32.4754 199.363 32.5751 199.418 32.5308C202.648 30.5752 203.784 28.9686 205.296 25.2346C205.368 25.0518 205.202 25.0075 205.113 25.1737Z" fill="#263238"/>
<path d="M208.471 27.4343C206.642 31.0796 205.285 32.4591 202.21 35.085C202.166 35.1238 202.21 35.1958 202.271 35.1626C205.49 32.8413 207.257 31.3455 208.581 27.4676C208.659 27.2903 208.554 27.2681 208.471 27.4343Z" fill="#263238"/>
<path d="M211.628 30.3263C209.628 33.7278 208.227 35.4009 204.93 37.5726C204.918 37.5837 204.909 37.5988 204.907 37.6154C204.904 37.632 204.907 37.6489 204.916 37.6634C204.924 37.6779 204.938 37.6889 204.953 37.6946C204.969 37.7002 204.987 37.7002 205.002 37.6945C208.581 35.8109 210.343 33.7389 211.728 30.3983C211.839 30.1711 211.772 30.1102 211.628 30.3263Z" fill="#263238"/>
<path d="M183.313 37.5561C183.313 37.5561 184.671 32.21 189.745 30.2433C191.79 29.4456 194.654 23.3682 196.543 23.4901C198.654 23.6286 197.141 29.1298 194.571 32.0882C194.571 32.0882 198 37.5395 195.679 40.4979C195.175 41.1405 191.491 43.1737 190.571 42.9853L183.313 37.5561Z" fill="#EB9481"/>
<path d="M194.416 32.4811C195.828 34.5586 196.809 37.7108 195.806 40.0044C195.799 40.0176 195.797 40.0332 195.801 40.0478C195.805 40.0623 195.815 40.0746 195.828 40.082C195.842 40.0893 195.857 40.0911 195.872 40.087C195.886 40.0828 195.899 40.073 195.906 40.0598C197.319 37.7496 196.211 34.0877 194.842 32.3038C194.576 31.9659 194.05 31.9492 194.416 32.4811Z" fill="#263238"/>
<path d="M165.136 102.391L164.272 106.956H136.018C136.018 106.956 140.45 83.8039 150.782 76.9343C155.957 73.4995 160.677 75.0064 162.97 78.8623C163.552 79.8373 169.463 90.0531 169.297 94.9283C169.142 99.2716 165.136 102.391 165.136 102.391Z" fill="#EB9481"/>
<path d="M169.303 94.9498C169.153 98.9995 165.613 102.002 165.175 102.362L137.63 100.506C138.273 98.2571 139.104 95.6201 140.162 92.9C142.899 92.9985 145.639 92.8744 148.356 92.5288C149.558 92.3016 152.234 88.2962 155.658 88.7062C159.081 89.1161 162.505 92.5288 162.505 92.5288C164.008 90.9202 165.956 89.7958 168.1 89.299C168.832 91.4097 169.358 93.4429 169.303 94.9498Z" fill="#263238"/>
<path d="M162.976 78.8565C162.829 78.6073 162.668 78.3668 162.494 78.1363C163.308 80.4964 164.848 85.6984 162.865 86.2136C160.688 86.7676 155.209 78.2748 153.514 75.5547C152.553 75.9024 151.637 76.3656 150.788 76.9341C142.86 82.114 136.218 100.823 135.403 106.939H164.278L165.136 102.374C165.136 102.374 169.142 99.2548 169.303 94.9336C169.469 90.0529 163.558 79.8371 162.976 78.8565ZM152.212 90.1858C150.749 93.3492 147.42 95.8034 145.204 95.5042C143.392 95.2549 142.544 92.7952 143.265 89.654C144.506 84.3023 149.785 76.4134 152.19 76.6017C154.948 76.8178 154.638 84.9173 152.212 90.1858Z" fill="#455A64"/>
<path d="M156.001 98.557C157.547 98.8201 159.067 99.2187 160.544 99.7481C161.28 100.025 161.995 100.346 162.715 100.679C163.07 100.851 163.43 101 163.823 101.15C164.194 101.321 164.588 101.437 164.992 101.493C165.026 101.493 165.02 101.56 164.992 101.56C164.61 101.559 164.228 101.527 163.851 101.465C163.486 101.387 163.126 101.281 162.776 101.15C162.028 100.878 161.292 100.562 160.56 100.28C159.053 99.7259 157.552 99.1719 156.017 98.7065C155.901 98.6899 155.929 98.5403 156.001 98.557Z" fill="#263238"/>
<path d="M152.079 99.9746C153.361 99.8887 154.647 99.8887 155.929 99.9746C156.571 100.024 157.203 100.119 157.84 100.229C158.139 100.285 158.444 100.346 158.743 100.412C159.042 100.479 159.397 100.612 159.729 100.678C159.768 100.678 159.762 100.75 159.729 100.745C159.413 100.689 159.087 100.706 158.771 100.673L157.812 100.584C157.175 100.529 156.538 100.479 155.896 100.412C154.621 100.279 153.347 100.168 152.067 100.091C151.995 100.096 152.012 99.9746 152.079 99.9746Z" fill="#263238"/>
<path d="M138.057 97.4208C140.796 97.5694 143.54 97.5694 146.278 97.4208C151.558 97.0607 157.514 96.1023 157.635 96.1798C157.857 96.3239 168.261 96.0801 168.261 96.0801L169.065 96.5344L169.192 95.9804L168.477 95.5926C168.73 94.7981 168.787 93.9542 168.643 93.1328C168.4 91.8309 166.427 86.4848 166.372 86.3353C166.317 86.1857 162.904 78.4574 162.86 78.4131C162.815 78.3687 162.494 78.1305 162.494 78.1305L165.896 86.3796C164.774 86.6273 163.635 86.7921 162.489 86.8726C161.09 86.8055 159.696 86.6668 158.311 86.4571C158.311 86.4571 155.874 80.0529 155.486 79.3936C155.098 78.7344 153.78 75.4492 153.647 75.5156C153.521 75.5573 153.394 75.5925 153.264 75.6209C153.264 75.6209 155.259 80.6069 155.547 81.1166C155.835 81.6263 157.696 86.8283 157.696 86.8283C157.696 86.8283 158.095 91.1717 158.112 91.9528C158.007 93.1089 157.833 94.2577 157.591 95.3932C157.591 95.3932 151.663 96.263 146.428 96.7117C142.063 97.094 138.24 97.0718 138.185 97.0718C138.129 97.0718 138.057 97.4208 138.057 97.4208Z" fill="white"/>
<path d="M160.987 89.1169L161.236 94.4575C161.236 94.74 161.098 94.9616 160.909 94.9727C160.721 94.9838 160.56 94.7732 160.549 94.4907L160.339 90.0587L160.101 90.2748C160.057 90.3241 159.995 90.354 159.929 90.3579C159.86 90.3526 159.795 90.3272 159.74 90.2848C159.686 90.2424 159.646 90.185 159.624 90.1196C159.569 90.0096 159.547 89.8858 159.562 89.7636C159.577 89.6415 159.627 89.5263 159.707 89.4327L160.439 88.7346C160.439 88.7346 160.439 88.7346 160.472 88.7346H160.505C160.505 88.7346 160.505 88.7346 160.533 88.7346C160.547 88.7291 160.563 88.7291 160.577 88.7346H160.66C160.66 88.7346 160.688 88.7346 160.699 88.7346H160.727C160.727 88.7346 160.754 88.7623 160.765 88.7623C160.774 88.7645 160.784 88.7645 160.793 88.7623V88.79C160.793 88.79 160.793 88.79 160.821 88.8233C160.848 88.8565 160.821 88.8233 160.821 88.8621L160.848 88.8953C160.848 88.8953 160.848 88.923 160.848 88.9396C160.848 88.9562 160.848 88.9784 160.848 88.9839C160.85 88.9987 160.85 89.0135 160.848 89.0283C160.84 89.0497 160.84 89.0733 160.848 89.0947L160.987 89.1169Z" fill="#263238"/>
<path d="M163.065 89.0164L163.32 94.3625C163.32 94.6395 163.181 94.8666 162.993 94.8777C162.804 94.8888 162.644 94.6727 162.627 94.3902L162.422 89.9582L162.178 90.1798C162.158 90.2038 162.132 90.2232 162.104 90.2366C162.075 90.2499 162.044 90.257 162.012 90.2573C161.943 90.2544 161.876 90.2298 161.821 90.1871C161.767 90.1444 161.727 90.0857 161.707 90.0191C161.651 89.9098 161.628 89.7862 161.642 89.6638C161.655 89.5415 161.705 89.4261 161.785 89.3322L162.522 88.6397C162.522 88.6397 162.522 88.6397 162.549 88.6397H162.588C162.603 88.635 162.618 88.635 162.633 88.6397H162.727C162.733 88.6371 162.739 88.6357 162.746 88.6357C162.753 88.6357 162.759 88.6371 162.766 88.6397C162.766 88.6397 162.793 88.6397 162.804 88.6397L162.832 88.6674L162.86 88.7061C162.862 88.7171 162.862 88.7284 162.86 88.7394L162.887 88.7726C162.887 88.7726 162.887 88.7726 162.887 88.8003C162.891 88.8149 162.891 88.83 162.887 88.8446C162.889 88.8594 162.889 88.8742 162.887 88.889C162.887 88.889 162.887 88.9222 162.887 88.9333C162.883 88.9534 162.883 88.9741 162.887 88.9942L163.065 89.0164Z" fill="#263238"/>
<path d="M166.649 89.0385L165.347 94.4677C165.303 94.656 165.186 94.7724 165.042 94.7779C164.996 94.7818 164.95 94.7721 164.909 94.7502C164.816 94.6747 164.746 94.5742 164.708 94.4603C164.669 94.3465 164.664 94.2241 164.693 94.1076L165.801 89.3986L164.2 89.4706C164.012 89.4706 163.846 89.249 163.835 88.9775C163.824 88.7061 163.968 88.4734 164.15 88.4679L166.283 88.3681C166.303 88.363 166.324 88.363 166.344 88.3681C166.392 88.3812 166.438 88.4038 166.477 88.4346V88.4623C166.481 88.4731 166.481 88.4848 166.477 88.4956L166.505 88.5288V88.5676C166.506 88.5823 166.506 88.5971 166.505 88.6119V88.6562C166.505 88.6562 166.505 88.6895 166.505 88.7005C166.503 88.7152 166.503 88.7302 166.505 88.7449C166.51 88.8112 166.51 88.8779 166.505 88.9443C166.654 88.9831 166.654 89.0108 166.649 89.0385Z" fill="#263238"/>
<path d="M155.625 75.8981C155.73 76.5241 158.428 80.7234 161.264 80.7733C162.184 80.7733 162.489 75.754 162.489 75.754L162.594 75.3829L164.09 70.2528L158.223 65.9261L157.37 65.3721C157.37 65.3721 157.054 66.8014 156.677 68.5908C156.677 68.6739 156.644 68.757 156.622 68.8456C156.6 68.9343 156.577 69.0396 156.561 69.1337C156.5 69.3997 156.439 69.6877 156.383 69.9426C156.328 70.1974 156.3 70.3525 156.267 70.5686C156.234 70.7846 156.19 71.0007 156.145 71.2223C155.867 72.7674 155.693 74.3296 155.625 75.8981Z" fill="#EB9481"/>
<path d="M156.677 68.5797C157.11 70.0752 157.864 71.4584 158.886 72.6332C159.907 73.808 161.173 74.7463 162.593 75.3829L164.089 70.2528L158.222 65.9261L157.369 65.3721C157.369 65.3721 157.053 66.7903 156.677 68.5797Z" fill="#263238"/>
<path d="M168.444 58.1974C173.036 66.3855 168.649 70.0585 166.881 71.0446C165.28 71.9421 159.679 74.7952 154.294 67.1278C148.91 59.4605 151.236 54.7349 154.799 52.4912C158.361 50.2475 163.851 50.0148 168.444 58.1974Z" fill="#EB9481"/>
<path d="M166.2 57.5276C166 57.6055 165.794 57.6703 165.585 57.7215C165.377 57.821 165.141 57.8483 164.915 57.799C164.847 57.7704 164.791 57.72 164.755 57.6558C164.718 57.5916 164.705 57.5173 164.715 57.4445C164.76 57.3062 164.84 57.1821 164.948 57.0848C165.056 56.9875 165.188 56.9205 165.33 56.8905C165.612 56.7826 165.924 56.7826 166.206 56.8905C166.265 56.9201 166.315 56.9659 166.35 57.0225C166.384 57.0791 166.402 57.1444 166.402 57.2107C166.401 57.2771 166.382 57.342 166.346 57.398C166.311 57.4541 166.26 57.4989 166.2 57.5276Z" fill="#263238"/>
<path d="M160.843 60.5801C161.019 60.4537 161.185 60.3149 161.341 60.1646C161.539 60.046 161.691 59.8646 161.774 59.6493C161.787 59.5762 161.775 59.5007 161.74 59.4352C161.705 59.3698 161.648 59.3183 161.58 59.2892C161.438 59.2474 161.289 59.2448 161.146 59.2819C161.003 59.319 160.874 59.3944 160.771 59.4998C160.524 59.6754 160.353 59.9391 160.294 60.2366C160.285 60.3043 160.295 60.3734 160.324 60.4354C160.353 60.4974 160.399 60.5496 160.457 60.586C160.515 60.6223 160.583 60.641 160.651 60.64C160.719 60.6389 160.786 60.6181 160.843 60.5801Z" fill="#263238"/>
<path d="M165.33 66.1032C165.526 66.2099 165.753 66.2452 165.973 66.203C166.189 66.0992 166.378 65.9476 166.527 65.7598C166.527 65.7598 166.571 65.7598 166.566 65.7598C166.541 65.9107 166.477 66.0524 166.38 66.1703C166.282 66.2881 166.155 66.3778 166.012 66.4301C165.879 66.4557 165.742 66.4415 165.618 66.3892C165.494 66.3369 165.388 66.249 165.314 66.1365C165.258 66.1254 165.297 66.0922 165.33 66.1032Z" fill="#263238"/>
<path d="M166.538 62.7848C166.538 62.7848 167.12 63.5549 167.336 63.9482C167.336 63.9814 167.275 64.0535 167.142 64.1366C166.837 64.3873 166.469 64.549 166.078 64.6037C165.687 64.6585 165.288 64.6042 164.926 64.4468C164.918 64.4405 164.912 64.432 164.909 64.4225C164.907 64.4129 164.907 64.4026 164.91 64.393C164.913 64.3835 164.918 64.375 164.926 64.3688C164.934 64.3626 164.944 64.3589 164.954 64.3582C165.645 64.4227 166.339 64.2614 166.931 63.8983C166.898 63.7765 165.895 62.6131 165.956 62.5743C166.276 62.4316 166.613 62.3329 166.959 62.2807C165.801 60.6187 164.389 59.2004 163.258 57.555C163.249 57.5431 163.244 57.5279 163.245 57.5126C163.246 57.4973 163.253 57.483 163.264 57.4725C163.276 57.4621 163.29 57.4562 163.306 57.4561C163.321 57.4559 163.336 57.4616 163.347 57.4719C164.909 58.9679 166.317 60.6159 167.552 62.3915C167.707 62.602 166.754 62.7626 166.538 62.7848Z" fill="#263238"/>
<path d="M166.682 64.2637C166.62 64.6288 166.465 64.9719 166.234 65.2609C166.101 65.4135 165.925 65.5218 165.729 65.5711C165.303 65.6708 165.109 65.3329 165.02 65.0171C164.972 64.8365 164.947 64.6502 164.948 64.4631C165.533 64.5852 166.141 64.5153 166.682 64.2637Z" fill="#263238"/>
<path d="M166.233 65.25C166.101 65.4026 165.925 65.5109 165.729 65.5603C165.303 65.66 165.109 65.3221 165.02 65.0063C165.221 64.9063 165.449 64.876 165.668 64.9201C165.888 64.9643 166.087 65.0804 166.233 65.25Z" fill="#FF9CBD"/>
<path d="M162.006 62.464C162.005 62.5422 161.988 62.6194 161.956 62.6911C161.936 62.7508 161.903 62.8052 161.859 62.8503C161.814 62.8954 161.761 62.9299 161.702 62.9515C161.336 63.0955 160.998 62.8075 160.793 62.464C160.793 62.464 160.793 62.4197 160.793 62.4307C161.031 62.536 161.297 62.6357 161.48 62.5028C161.595 62.3852 161.674 62.2372 161.707 62.0762C161.794 62.215 161.894 62.3449 162.006 62.464Z" fill="#263238"/>
<path d="M161.768 62.4631C161.699 62.2872 161.679 62.0954 161.713 61.9091C161.735 61.8106 161.777 61.7177 161.836 61.6358C161.895 61.5539 161.97 61.4848 162.056 61.4327C162.148 61.3864 162.25 61.3623 162.353 61.3623C162.455 61.3623 162.557 61.3864 162.649 61.4327C162.812 61.5092 162.954 61.6231 163.064 61.7651C163.13 61.8489 163.19 61.9378 163.242 62.031C163.356 62.2234 163.424 62.4395 163.441 62.6626C163.367 62.5198 163.28 62.3843 163.181 62.2581C163.088 62.1446 162.988 62.0372 162.882 61.9368C162.666 61.7374 162.405 61.6155 162.217 61.7374C162.111 61.8073 162.032 61.9115 161.994 62.0325C161.956 62.1535 161.96 62.284 162.006 62.4022C162.077 62.7031 162.177 62.9963 162.305 63.2775C162.064 63.0527 161.88 62.7735 161.768 62.4631Z" fill="#263238"/>
<path d="M167.053 59.3221C167.121 59.3593 167.194 59.3873 167.269 59.4052C167.331 59.4196 167.395 59.4206 167.457 59.4082C167.519 59.3958 167.578 59.3702 167.629 59.3332C167.765 59.2014 167.848 59.0254 167.864 58.8372C167.881 58.649 167.829 58.4613 167.718 58.3083C167.718 58.3083 167.685 58.2695 167.679 58.3083C167.635 58.5686 167.574 58.8623 167.363 58.9232C167.202 58.9576 167.034 58.9421 166.881 58.8789C166.955 59.0195 167.013 59.1682 167.053 59.3221Z" fill="#263238"/>
<path d="M167.175 59.1285C167.066 58.9836 166.921 58.8691 166.754 58.7961C166.66 58.7608 166.559 58.7451 166.458 58.7499C166.357 58.7546 166.258 58.7798 166.167 58.8238C166.077 58.8725 165.999 58.9413 165.939 59.0249C165.88 59.1084 165.84 59.2045 165.824 59.3058C165.796 59.4918 165.814 59.6816 165.873 59.8598C165.912 59.9595 165.957 60.0592 166.001 60.1534C166.102 60.3538 166.248 60.5282 166.427 60.6631C166.343 60.5241 166.276 60.3753 166.228 60.2199C166.18 60.0827 166.143 59.9419 166.117 59.7989C166.073 59.5052 166.117 59.2449 166.317 59.1341C166.433 59.0841 166.563 59.0755 166.685 59.1098C166.807 59.144 166.914 59.2191 166.987 59.3224C167.196 59.5448 167.382 59.788 167.541 60.0482C167.495 59.7166 167.37 59.4011 167.175 59.1285Z" fill="#263238"/>
<path d="M158.3 53.1842C158.86 53.802 159.221 54.5742 159.336 55.4002C159.425 57.7492 156.904 58.4417 156.522 59.5884C156.14 60.7352 157.17 61.9762 156.882 63.0177C156.478 64.4581 155.497 64.0925 155.691 64.8182C155.885 65.544 156.533 67.8375 155.846 68.5355C155.159 69.2336 144.14 57.4556 155.181 52.2369C155.181 52.2369 156.35 50.7521 159.259 50.802C163.43 50.874 166.2 54.8462 166.2 54.8462C165.787 54.9574 165.355 54.9801 164.932 54.9127C164.173 54.7299 163.729 54.5194 163.192 54.4196C162.344 54.2701 162.151 54.7964 161.286 54.6689C159.951 54.464 158.3 53.1842 158.3 53.1842Z" fill="#263238"/>
<path d="M157.957 52.752C158.408 53.2012 158.806 53.7013 159.142 54.2422C159.502 54.7512 159.714 55.3491 159.757 55.9707C159.715 56.5937 159.445 57.1794 158.998 57.6161C158.583 58.0759 158.045 58.4249 157.608 58.9401C157.381 59.2032 157.229 59.523 157.17 59.8653C157.143 60.2021 157.183 60.541 157.286 60.8625C157.514 61.4377 157.579 62.0644 157.475 62.6741C157.398 62.9681 157.26 63.2423 157.069 63.4783C156.878 63.7143 156.638 63.9067 156.367 64.0425C155.813 64.3306 155.137 64.4912 154.732 65.012C155.181 64.5245 155.84 64.458 156.428 64.1754C156.736 64.0451 157.011 63.8485 157.234 63.5995C157.457 63.3505 157.623 63.0553 157.718 62.735C157.864 62.0869 157.814 61.4102 157.574 60.7905C157.486 60.504 157.452 60.2032 157.475 59.9041C157.533 59.6158 157.667 59.3482 157.863 59.1285C158.25 58.6576 158.788 58.292 159.225 57.7989C159.452 57.5543 159.639 57.2757 159.779 56.9734C159.934 56.6703 160.008 56.3328 159.995 55.9929C159.926 55.3351 159.675 54.7098 159.27 54.1868C158.891 53.6574 158.451 53.1756 157.957 52.752Z" fill="#263238"/>
<path d="M158.444 53.1338C158.823 53.5971 159.263 54.007 159.752 54.3526C160.249 54.7239 160.844 54.9398 161.464 54.9731C161.765 54.9697 162.066 54.9363 162.361 54.8733C162.628 54.8269 162.902 54.8557 163.153 54.9564C163.408 55.1127 163.677 55.2445 163.957 55.3498C164.249 55.4314 164.556 55.4447 164.854 55.3886C164.564 55.3852 164.277 55.323 164.012 55.2057C163.748 55.0803 163.497 54.928 163.264 54.7515C162.977 54.601 162.649 54.5448 162.328 54.5908C162.047 54.6443 161.761 54.6721 161.475 54.6739C160.906 54.6288 160.358 54.438 159.885 54.1199C159.384 53.8218 158.903 53.4925 158.444 53.1338Z" fill="#263238"/>
<path d="M156.173 66.7849C156.173 66.7849 153.192 64.8127 152.228 65.9816C151.264 67.1506 154.251 70.53 155.918 70.4967C156.132 70.5072 156.345 70.4743 156.546 70.4001C156.746 70.3259 156.93 70.2118 157.085 70.0648C157.24 69.9178 157.364 69.7409 157.449 69.5447C157.534 69.3486 157.579 69.1372 157.58 68.9234L156.173 66.7849Z" fill="#EB9481"/>
<path d="M153.109 66.929C153.081 66.929 153.109 66.9733 153.109 66.9733C154.289 66.9733 155.198 67.7157 155.962 68.5411C155.863 68.4625 155.747 68.4064 155.624 68.3767C155.501 68.3471 155.373 68.3445 155.248 68.3693C155.124 68.394 155.006 68.4455 154.904 68.5202C154.801 68.5948 154.716 68.6908 154.655 68.8015C154.655 68.8348 154.655 68.8624 154.705 68.8458C154.859 68.7217 155.048 68.6477 155.246 68.6339C155.444 68.62 155.642 68.6669 155.813 68.7683C156.1 68.9461 156.367 69.1541 156.61 69.3888C156.693 69.4608 156.837 69.3444 156.76 69.2558C156.278 67.9262 154.566 66.5079 153.109 66.929Z" fill="#263238"/>
<path d="M169.524 60.4854C170.113 61.6661 170.47 62.9486 170.577 64.2636C170.632 64.9256 170.604 65.5919 170.494 66.247C170.439 66.5761 170.365 66.9017 170.272 67.222C170.167 67.5412 170.043 67.8538 169.901 68.1583C169.608 68.7596 169.235 69.3187 168.793 69.8203C168.339 70.3066 167.823 70.7313 167.258 71.0834C166.131 71.7757 164.85 72.1791 163.53 72.2578C164.169 72.1419 164.793 71.9561 165.391 71.7038C166.583 71.2384 167.651 70.5026 168.51 69.5543C168.928 69.0803 169.279 68.5509 169.552 67.981C170.099 66.8293 170.351 65.5592 170.283 64.2858C170.269 63.6435 170.197 63.0038 170.067 62.3745C169.936 61.7315 169.754 61.0999 169.524 60.4854Z" fill="#263238"/>
<path d="M148.893 84.2525C148.76 84.0365 148.627 83.8204 148.489 83.6043C149.353 84.4797 150.251 85.3107 151.181 86.114C151.181 86.114 151.237 86.114 151.215 86.0807C150.301 85.0281 149.37 83.9977 148.4 82.9949C147.941 82.524 147.497 82.0365 147.021 81.5767C146.544 81.1169 145.913 80.574 145.425 80.031C145.364 79.9646 145.259 80.031 145.32 80.1141C145.802 80.6294 146.234 81.1889 146.7 81.7263C147.165 82.2637 147.531 82.6348 147.963 83.0725C148.044 83.2433 148.135 83.4098 148.234 83.5711C148.4 83.8315 148.567 84.0863 148.749 84.3356C149.115 84.8287 149.503 85.3107 149.857 85.7926C149.536 85.3162 149.209 84.7622 148.893 84.2525Z" fill="#263238"/>
<path d="M152.583 76.5186C148.345 67.1006 144.794 60.303 138.439 49.162C135.115 43.3617 130.938 36.42 129.459 33.916C127.514 30.6418 113.609 43.2952 115.182 45.3838C116.202 46.7466 119.581 51.1454 125.548 58.2144C132.351 66.264 138.112 72.9619 146.184 80.873C152.278 86.8396 155.386 82.7344 152.583 76.5186Z" fill="#EB9481"/>
<path d="M118.623 48.5415C115.133 47.1898 104.557 39.744 102.801 37.8106C101.044 35.8771 96.3963 29.9604 97.737 28.4646C99.0777 26.9688 100.579 28.592 100.579 28.592C100.579 28.592 98.8173 25.5395 100.501 24.3982C101.842 23.4897 104.069 25.6669 104.069 25.6669C104.069 25.6669 102.319 22.221 104.13 21.3014C105.792 20.4648 107.598 23.4176 107.598 23.4176C107.598 23.4176 106.424 20.3873 108.152 19.8831C110.252 19.2848 112.285 24.5367 114.385 26.5311C114.861 26.9854 128.235 35.0627 128.235 35.0627L118.623 48.5415Z" fill="#EB9481"/>
<path d="M107.67 23.2686C109.598 27.0468 110.507 28.5537 113.764 30.9747C113.825 31.019 113.764 31.1243 113.698 31.08C110.269 29.0025 109.066 27.2961 107.46 23.324C107.404 23.1356 107.582 23.0857 107.67 23.2686Z" fill="#263238"/>
<path d="M104.113 25.6614C106.025 29.5394 107.493 30.9964 110.761 33.783C110.806 33.8218 110.761 33.9049 110.695 33.8717C107.282 31.4008 105.399 29.8108 103.997 25.6946C103.908 25.5118 104.025 25.4841 104.113 25.6614Z" fill="#263238"/>
<path d="M100.739 28.7309C102.861 32.343 104.351 34.1213 107.853 36.4259C107.868 36.4374 107.878 36.454 107.882 36.4725C107.885 36.4911 107.882 36.5103 107.873 36.5267C107.863 36.543 107.848 36.5553 107.83 36.5612C107.812 36.5672 107.792 36.5663 107.775 36.5589C103.975 34.559 102.102 32.354 100.634 28.8029C100.534 28.5647 100.606 28.5037 100.739 28.7309Z" fill="#263238"/>
<path d="M130.822 36.409C130.822 36.409 129.381 30.7305 123.997 28.653C121.819 27.811 118.778 21.3569 116.795 21.4843C114.579 21.6339 116.158 27.473 118.889 30.6142C118.889 30.6142 115.243 36.398 117.725 39.5447C118.279 40.2261 122.157 42.3812 123.143 42.1873L130.822 36.409Z" fill="#EB9481"/>
<path d="M119.033 31.0237C117.537 33.2397 116.49 36.5637 117.559 39.0069C117.567 39.0216 117.569 39.0389 117.564 39.055C117.56 39.0711 117.549 39.0847 117.534 39.0928C117.519 39.1008 117.502 39.1027 117.486 39.0981C117.47 39.0934 117.456 39.0825 117.448 39.0678C115.952 36.6136 117.127 32.7245 118.584 30.8354C118.861 30.4697 119.42 30.4697 119.033 31.0237Z" fill="#263238"/>
<path d="M164.294 108.191C157.58 104.994 138.345 98.4626 125.204 95.2882C113.443 92.4572 101.288 96.5402 89.5376 100.485C82.1085 102.978 75.0949 105.332 68.2917 105.958C41.5945 108.418 32.8745 89.449 32.2817 88.6402L37.2123 89.87L38.0821 84.3633C38.5807 85.0392 45.1068 100.861 67.638 98.7673C73.6046 98.2133 80.2304 95.9973 87.2496 93.6372C99.3767 89.5653 113.121 84.9505 126.894 88.2634C140.517 91.5376 161.419 98.0471 166.311 101.244L164.294 108.191Z" fill="#2F4153"/>
<path d="M71.0063 247.582L76.1863 246.646C76.1863 246.646 70.6462 240.995 74.0533 237.516C77.4604 234.037 82.5462 237.112 82.5462 237.112C82.5462 237.112 81.7539 228.841 88.1526 227.112C94.5513 225.384 100.174 237.743 100.174 237.743C100.174 237.743 101.116 234.84 105.892 235.982C110.667 237.123 114.44 243.627 114.44 243.627L212.614 247.532" fill="white"/>
<path d="M71.0063 247.582L76.1807 246.624V246.663C75.0478 245.484 74.1258 244.12 73.455 242.629C73.1184 241.879 72.9303 241.07 72.901 240.247C72.8813 239.412 73.1384 238.594 73.6323 237.92C73.8753 237.588 74.1602 237.288 74.4799 237.029C74.7981 236.764 75.1457 236.537 75.5159 236.353C76.26 235.996 77.0731 235.807 77.8981 235.799C79.5483 235.804 81.169 236.237 82.6016 237.056L82.4631 237.145C82.3778 235.9 82.4597 234.65 82.7068 233.428C82.9383 232.198 83.4007 231.023 84.0697 229.965C84.5825 229.172 85.2519 228.492 86.0369 227.967C86.8219 227.442 87.7059 227.083 88.6346 226.912C89.262 226.809 89.9035 226.828 90.5238 226.968C91.7524 227.274 92.8913 227.867 93.8478 228.696C94.8009 229.498 95.668 230.397 96.435 231.378C97.9571 233.341 99.2576 235.467 100.313 237.715H100.08C100.397 236.978 100.978 236.385 101.709 236.053C102.422 235.733 103.2 235.583 103.98 235.616C105.53 235.65 107.042 236.102 108.357 236.923C109.649 237.749 110.815 238.757 111.82 239.915C112.836 241.056 113.746 242.287 114.54 243.593L114.468 243.549L212.642 247.543L114.462 243.721H114.418V243.682C113.628 242.387 112.719 241.169 111.703 240.042C110.708 238.903 109.553 237.914 108.274 237.106C106.99 236.308 105.514 235.871 104.003 235.843C103.257 235.813 102.515 235.959 101.836 236.27C101.168 236.575 100.636 237.118 100.346 237.793L100.235 238.059L100.114 237.804C99.0546 235.58 97.7541 233.478 96.2355 231.538C95.4853 230.569 94.6349 229.681 93.6982 228.89C92.7794 228.084 91.6848 227.503 90.5016 227.195C89.8908 227.054 89.2583 227.036 88.6402 227.14C88.0438 227.247 87.4644 227.433 86.9172 227.694C85.813 228.22 84.877 229.043 84.2137 230.07C83.5575 231.106 83.1026 232.256 82.873 233.461C82.626 234.663 82.5384 235.892 82.6126 237.117V237.289L82.4631 237.206C81.0626 236.397 79.4763 235.966 77.8593 235.954C77.0544 235.966 76.262 236.155 75.5381 236.508C74.8185 236.864 74.1909 237.382 73.7043 238.02C73.2319 238.661 72.9828 239.44 72.9952 240.236C73.0124 241.043 73.1854 241.839 73.5049 242.58C74.1577 244.067 75.0588 245.433 76.1696 246.618L76.2029 246.651H76.1585L71.0063 247.582Z" fill="#263238"/>
<path d="M136.423 103.803C133.653 103.914 130.883 103.969 128.113 104.013C125.343 104.058 122.573 104.058 119.803 104.08C117.033 104.102 114.263 104.08 111.493 104.013L107.332 103.936C105.947 103.892 104.562 103.864 103.177 103.803C104.562 103.742 105.947 103.714 107.332 103.664L111.493 103.587C114.263 103.543 117.033 103.548 119.803 103.526C122.573 103.504 125.343 103.526 128.113 103.592C130.883 103.659 133.647 103.687 136.423 103.803Z" fill="#263238"/>
<path d="M179.225 38.1376C176.455 38.2484 173.685 38.3038 170.915 38.3481C168.145 38.3924 165.375 38.3869 162.605 38.409C159.835 38.4312 157.065 38.409 154.295 38.3481L150.134 38.2705C148.749 38.2262 147.364 38.1985 145.974 38.1376C147.364 38.0711 148.744 38.0434 150.134 37.9991L154.295 37.9215C157.065 37.8772 159.835 37.8772 162.605 37.8606C165.375 37.8439 168.145 37.8606 170.915 37.9215C173.685 37.9824 176.449 38.0212 179.225 38.1376Z" fill="#263238"/>
<path d="M183.59 41.4944C181.773 41.6108 179.961 41.6606 178.144 41.705C176.327 41.7493 174.516 41.7659 172.704 41.7714C170.892 41.777 169.07 41.7714 167.258 41.7105L164.538 41.6329C163.635 41.5831 162.726 41.5609 161.818 41.4944C162.726 41.4335 163.635 41.4058 164.538 41.3615L167.264 41.2839C169.075 41.2341 170.892 41.223 172.71 41.2174C174.527 41.2119 176.338 41.2174 178.15 41.2839C179.961 41.3504 181.773 41.3836 183.59 41.4944Z" fill="#263238"/>
<path d="M64.89 144.151C62.4579 144.261 60.0203 144.317 57.5883 144.361C55.1562 144.405 52.7186 144.405 50.2865 144.428C47.8545 144.45 45.4169 144.428 42.9793 144.361L39.334 144.283C38.1152 144.239 36.8964 144.211 35.6831 144.151C36.8964 144.09 38.1152 144.062 39.334 144.012L42.9848 143.934C45.4224 143.89 47.8545 143.896 50.2921 143.874C52.7297 143.851 55.1617 143.874 57.5938 143.94C60.0259 144.007 62.4579 144.04 64.89 144.151Z" fill="#263238"/>
<path d="M80.9841 139.159C78.5465 139.27 76.1144 139.326 73.6768 139.37C71.2392 139.414 68.8072 139.414 66.3751 139.436C63.943 139.459 61.5054 139.436 59.0678 139.37L55.417 139.292C54.1982 139.248 52.9849 139.22 51.7661 139.159C52.9849 139.093 54.1982 139.071 55.417 139.021L59.0678 138.943C61.5054 138.899 63.9375 138.905 66.3751 138.882C68.8127 138.86 71.2448 138.882 73.6768 138.943C76.1089 139.004 78.5465 139.054 80.9841 139.159Z" fill="#263238"/>
<path d="M141.414 110.933C137.536 111.05 133.658 111.099 129.78 111.144L118.146 111.21L106.512 111.149L100.706 111.072C98.7675 111.022 96.8285 111 94.895 110.933C96.834 110.872 98.773 110.845 100.706 110.8L106.512 110.723L118.146 110.656L129.78 110.723C133.675 110.767 137.542 110.8 141.414 110.933Z" fill="#263238"/>
<path d="M200.864 237.611C198.061 237.727 195.257 237.777 192.454 237.821C189.651 237.865 186.842 237.865 184.039 237.888C181.236 237.91 178.432 237.888 175.629 237.821L171.419 237.743C170.017 237.699 168.615 237.671 167.214 237.611C168.615 237.55 170.017 237.522 171.419 237.472L175.629 237.394C178.432 237.356 181.236 237.356 184.039 237.334C186.842 237.311 189.651 237.334 192.454 237.4C195.257 237.466 198.061 237.494 200.864 237.611Z" fill="#263238"/>
<path d="M192.715 241.228C188.754 241.345 184.787 241.4 180.826 241.444L168.931 241.505L157.043 241.444L151.098 241.367C149.115 241.322 147.137 241.295 145.154 241.228C147.137 241.167 149.115 241.14 151.098 241.095L157.043 241.018L168.931 240.951L180.826 241.018C184.787 241.062 188.754 241.117 192.715 241.228Z" fill="#263238"/>
<path d="M117.653 106.506C114.329 106.617 110.967 106.672 107.626 106.717C104.285 106.761 100.939 106.755 97.5986 106.783C94.2579 106.811 90.9118 106.783 87.5656 106.717L82.5519 106.639C80.8899 106.595 79.2279 106.567 77.5659 106.506C79.2279 106.44 80.8899 106.412 82.5519 106.368L87.5656 106.29C90.8896 106.246 94.2524 106.251 97.5986 106.229C100.945 106.207 104.28 106.229 107.626 106.29C110.972 106.351 114.313 106.368 117.653 106.506Z" fill="#263238"/>
</svg>
