<svg width="24" height="28" viewBox="0 0 24 28" fill="none" xmlns="http://www.w3.org/2000/svg">
<path fill-rule="evenodd" clip-rule="evenodd" d="M15.7668 0.701331L16.5104 1.40266L20.2552 1.40334L24 1.40401V2.80803V4.21204H23.2483H22.4965V14.9286C22.4965 24.9307 22.4901 25.6683 22.3999 25.9917C22.3468 26.1823 22.2897 26.35 22.2731 26.3643C22.2565 26.3786 22.1944 26.4928 22.1352 26.618C22.0229 26.8558 21.3978 27.5083 21.2823 27.5083C21.2457 27.5083 21.2158 27.5264 21.2158 27.5485C21.2158 27.5856 21.0624 27.6663 20.7146 27.8121C20.2672 27.9996 20.2485 28 12 28C3.75152 28 3.73275 27.9996 3.28538 27.8121C2.93758 27.6663 2.78422 27.5856 2.78422 27.5485C2.78422 27.5264 2.75588 27.5083 2.7213 27.5083C2.55452 27.5083 1.7819 26.6359 1.7819 26.4476C1.7819 26.4065 1.76308 26.3652 1.74008 26.3556C1.71709 26.3461 1.65444 26.1823 1.60087 25.9917C1.50966 25.6672 1.50348 24.9659 1.50348 14.9286V4.21204H0.75174H0V2.80803V1.40401H3.75157H7.50309L8.24809 0.703099L8.99304 0.00218401L12.0081 0.0010922L15.0232 0L15.7668 0.701331ZM4.51044 14.7162V25.2203H12H19.4896V14.7162V4.21204H12H4.51044V14.7162ZM10.4687 14.7162V22.4122H8.99304H7.5174V14.7162V7.02007H8.99304H10.4687V14.7162ZM16.4826 14.7162V22.4122H15.007H13.5313V14.7162V7.02007H15.007H16.4826V14.7162Z" fill="#BD1823"/>
</svg>
